<?xml version="1.0" encoding="UTF-8"?>
<!DOCTYPE svg PUBLIC "-//W3C//DTD SVG 1.1//EN" "http://www.w3.org/Graphics/SVG/1.1/DTD/svg11.dtd">
<!-- Creator: CorelDRAW 2021.5 -->
<svg xmlns="http://www.w3.org/2000/svg" xml:space="preserve" width="3.06056in" height="0.760614in" version="1.1" style="shape-rendering:geometricPrecision; text-rendering:geometricPrecision; image-rendering:optimizeQuality; fill-rule:evenodd; clip-rule:evenodd"
viewBox="0 0 461.57 114.71"
 xmlns:xlink="http://www.w3.org/1999/xlink"
 xmlns:xodm="http://www.corel.com/coreldraw/odm/2003">
 <defs>
  <style type="text/css">
   <![CDATA[
    .fil0 {fill:white}
    .fil1 {fill:white;fill-rule:nonzero}
   ]]>
  </style>
 </defs>
 <g id="Layer_x0020_1">
  <metadata id="CorelCorpID_0Corel-Layer"/>
  <g id="_2871318253936">
   <path class="fil0" d="M35.83 62.42l-0.14 -9.5c1.71,-0.47 3.9,-0.38 5.67,-0.08l-0.13 9.47c13.06,0.11 19.49,-1.82 28.26,6.57l1.31 1.4c0.01,0.02 0.38,0.48 0.4,0.5 0.7,0.89 0.94,1.27 1.42,2.13 3.16,5.69 3.86,12.3 1.21,18.53 -0.25,0.58 -0.25,0.74 -0.47,1.32 -0.52,1.42 -1.75,2.85 -2.71,4.04 -0.28,0.35 -0.57,0.81 -0.77,1.03 -4.16,4.37 -9.83,6.67 -15.98,6.71 -4.76,0.03 -9.51,-0.01 -14.27,-0.01 -0.21,2.63 -3.35,6.69 -5.12,8.49 -1.53,1.56 -3.32,1.09 -5.77,1.09 -1.82,-0 -4.9,0.48 -6.36,-0.31 1.26,-0.53 3.25,-0.45 6.87,-3.36 1.64,-1.32 3.89,-3.98 4.65,-5.97l0.49 -1.33c0.11,-0.31 0.24,-0.69 0.32,-0.89 0.16,-0.42 0.01,0.16 0.33,-0.87 1.34,-4.41 0.36,-9.99 0.76,-11.54 0.36,-1.42 0.75,-1.05 1,-1.13 0.76,-0.22 7.23,-0.28 7.99,0.15l2.34 2.44c5.32,4.41 13.03,1.87 15.43,-3.75 0.87,-2.03 0.89,-5.92 -0.14,-8l-0.94 -1.46c-3.39,-4.1 -6.38,-4.83 -11.39,-3.58 -1.89,0.47 -4.05,2.37 -5.07,4.26l-9.29 0.09c-0.09,-2.27 -0.29,-15.37 0.12,-16.45zm-0.15 -21.1l-9.71 -0.07 -0.04 37.6 -10.68 0.1c0.48,1.9 0.23,7.58 0.21,9.85 1.67,-0.39 8.95,-0.84 10.54,-0.09l9.49 -0.05 0.08 5.55 -9.42 -0.06 -0.04 4.08 -0.61 0c-0.25,4.94 -8.73,9.86 -14.24,2.59 -1.86,-2.46 -1.1,-3.63 -1.04,-7.03l-0.16 -12.93c0.57,-0.22 0.71,-0.41 1.07,-0.69 -1.72,-0.12 -0.72,0.42 -1.08,-0.68l0 -45.13 1.47 0.22 -1.33 -0.66c-0.3,-1.96 -0.12,-4.75 -0.12,-6.81 0,-1.93 -0.42,-5.89 0.57,-6.09 -0.46,-1.52 -0.66,-1.65 -0.58,-3.69 0.05,-1.42 0.34,-2.2 1,-3.17 2.81,-4.13 6.99,-5.43 11.39,-2.67 1.42,0.89 2.96,2.75 3.05,4.87l0.6 0c0.07,2.05 0.34,8.04 -0.18,9.69 -2.63,0.3 -8.32,0.53 -10.58,-0.41 0.25,1.82 0.32,8.35 -0.07,10.01l10.67 0.18 9.75 -0.01 9.31 0c0.45,0.85 0.2,0.52 0.75,1.18 4.34,5.25 12.14,4.86 16,-0.83 0.39,-0.58 0.43,-0.62 0.76,-1.33 1.26,-2.66 0.83,-7.47 -1.19,-9.85 -1.37,-1.61 -2.49,-2.66 -4.58,-3.4 -3.69,-1.29 -7.74,-0.26 -10.37,2.44l-0.72 0.72c-0.05,0.05 -0.3,0.26 -0.33,0.29l-0.22 0.97c-1.7,0.17 -8.12,0.41 -9.2,-0.14 -0.74,-0.66 0.16,-7.67 -0.68,-11.48 -0.44,-2 -0.72,-1.76 -0.83,-3.26 -0.64,-1.02 -0.44,0.25 -0.44,-1.01l23.15 0.03 5.09 1.54c5.87,2.69 9.74,6.82 12.04,12.48 0.88,2.16 1.07,3.95 1.1,6.19 0.05,4.86 -0.51,8.18 -3.21,12.35l-2.19 2.84c-1.63,1.69 -3.28,2.98 -5.33,4.14 -4.55,2.59 -7.59,2.6 -13.7,2.6 -3.09,-0 -12.82,0.37 -15.24,-0.19l-0 -10.78zm49.76 42.01c0.01,-5.53 -1.59,-10.3 -3.67,-14.3 -1.69,-3.25 -1.43,-2.19 -2.69,-4.08 -5.47,-8.19 -10.09,-6.16 -6.22,-8.81 1.5,-1.03 4.31,-3.83 5.55,-5.38 4.45,-5.6 4.33,-7.22 6.14,-12.87 0.43,-1.34 0.86,-6.03 0.84,-7.24 -0.05,-2.62 -0.61,-5.71 -1.22,-7.86l-1.56 -4.3c-0.03,-0.07 -0.06,-0.14 -0.09,-0.2 -0.03,-0.06 -0.07,-0.14 -0.1,-0.2 -0.03,-0.06 -0.07,-0.13 -0.1,-0.19 -0.14,-0.28 -0.29,-0.59 -0.39,-0.79l-3.97 -5.8 -10.43 -7.93c-0.06,-0.03 -0.14,-0.07 -0.2,-0.1 -0.06,-0.03 -0.14,-0.07 -0.2,-0.1 -1.79,-0.87 -3.55,-1.68 -5.55,-2.06 -3,-0.57 -4.14,-1.11 -7.7,-1.11l-39.93 0.56c-2.22,0.53 -1.17,0.36 -3.08,1.21l-2.02 0.98c-3.24,1.79 -6.39,5.55 -7.58,8.99 -0.03,0.07 -0.05,0.15 -0.07,0.23l-0.63 2.41c-0.18,1.82 -0.56,2.23 -0.56,3.85l0 78.13c0,1.59 0.2,1.53 0.36,2.23 0.18,0.8 0.14,1.65 0.29,2.47 0.4,2.08 1.97,4.85 3.28,6.46l0.39 0.5c2.15,2.66 5.96,5.15 9.36,5.96 4.83,1.16 34.34,0.58 39.6,0.59 5.59,0 11.88,-1.25 16.58,-4.31 3.3,-2.15 3.34,-1.99 6.03,-4.65 1.74,-1.72 3.54,-3.72 4.8,-5.87 1.39,-2.38 2.67,-4.6 3.32,-7.31 0.39,-1.65 0.57,-2.68 1.12,-4.18 0.45,-1.23 0.3,-3.4 0.3,-4.91z"/>
   <path class="fil0" d="M39.61 104.54l-5.73 -0.06c-0.77,1.99 -3.02,4.65 -4.65,5.97 -3.62,2.92 -5.61,2.84 -6.87,3.36 1.46,0.8 4.55,0.31 6.36,0.31 2.45,0 4.24,0.46 5.77,-1.09 1.77,-1.81 4.91,-5.87 5.12,-8.49z"/>
   <path class="fil0" d="M11.52 34.57c0.88,0.33 2.62,0.97 3.75,1.07 0.39,-1.67 0.32,-8.2 0.07,-10.01l-0.18 -0.41c-1.4,-0.55 -1.65,-0.51 -2.77,-1.64 -0.71,-0.71 -1.34,-1.57 -1.75,-2.57 -0.99,0.2 -0.57,4.16 -0.57,6.09 0,2.06 -0.18,4.85 0.12,6.81l1.33 0.66z"/>
   <path class="fil0" d="M11.13 80.17c-0.36,0.28 -0.5,0.47 -1.07,0.69l0.16 12.93c0.83,-0.48 1.35,-2.58 3.33,-3.74l1.6 -0.66c0.15,-0.27 0.15,-0.39 0.3,-0.59 0.02,-2.27 0.27,-7.95 -0.21,-9.85l-4.11 1.22z"/>
   <path class="fil0" d="M35.83 62.42l5.4 -0.11 0.13 -9.47c-1.77,-0.3 -3.96,-0.4 -5.67,0.08l0.14 9.5z"/>
   <polygon class="fil0" points="25.96,41.26 35.67,41.32 35.68,35.81 25.93,35.82 "/>
   <polygon class="fil0" points="26.14,94.15 35.56,94.21 35.48,88.66 25.99,88.71 "/>
  </g>
  <path class="fil1" d="M108.33 85.38l0 -56.06 29.95 0c7.74,0 13.45,1.37 17.14,4.12 3.68,2.75 5.53,6.26 5.53,10.53 0,2.83 -0.79,5.35 -2.36,7.57 -1.58,2.22 -3.86,3.96 -6.85,5.25 -2.99,1.28 -6.67,1.92 -11.05,1.92l1.6 -4.32c4.38,0 8.16,0.61 11.33,1.84 3.18,1.23 5.63,3 7.37,5.33 1.73,2.32 2.6,5.11 2.6,8.37 0,4.86 -2.02,8.65 -6.05,11.37 -4.03,2.72 -9.92,4.08 -17.66,4.08l-31.55 0zm18.58 -13.21l11.37 0c2.08,0 3.64,-0.37 4.68,-1.12 1.04,-0.75 1.56,-1.84 1.56,-3.28 0,-1.44 -0.52,-2.54 -1.56,-3.28 -1.04,-0.75 -2.6,-1.12 -4.68,-1.12l-12.65 0 0 -12.49 10.09 0c2.14,0 3.7,-0.36 4.68,-1.08 0.99,-0.72 1.48,-1.75 1.48,-3.08 0,-1.39 -0.49,-2.43 -1.48,-3.12 -0.99,-0.69 -2.55,-1.04 -4.68,-1.04l-8.81 0 0 29.63zm64.23 14.5c-4.7,0 -9.24,-0.53 -13.61,-1.6 -4.38,-1.07 -7.98,-2.46 -10.81,-4.16l6.09 -13.77c2.67,1.55 5.65,2.79 8.93,3.72 3.28,0.93 6.47,1.4 9.57,1.4 1.82,0 3.24,-0.12 4.28,-0.36 1.04,-0.24 1.8,-0.59 2.28,-1.04 0.48,-0.45 0.72,-1 0.72,-1.64 0,-1.01 -0.56,-1.82 -1.68,-2.4 -1.12,-0.59 -2.6,-1.08 -4.44,-1.48 -1.84,-0.4 -3.86,-0.83 -6.05,-1.28 -2.19,-0.45 -4.39,-1.05 -6.61,-1.8 -2.22,-0.75 -4.24,-1.73 -6.09,-2.96 -1.84,-1.23 -3.32,-2.84 -4.44,-4.85 -1.12,-2 -1.68,-4.5 -1.68,-7.49 0,-3.47 0.97,-6.63 2.92,-9.49 1.95,-2.86 4.86,-5.14 8.73,-6.85 3.87,-1.71 8.69,-2.56 14.46,-2.56 3.79,0 7.53,0.4 11.21,1.2 3.68,0.8 6.99,2.03 9.93,3.68l-5.69 13.69c-2.78,-1.39 -5.46,-2.43 -8.05,-3.12 -2.59,-0.69 -5.11,-1.04 -7.57,-1.04 -1.82,0 -3.26,0.16 -4.32,0.48 -1.07,0.32 -1.83,0.75 -2.28,1.28 -0.45,0.53 -0.68,1.12 -0.68,1.76 0,0.96 0.56,1.72 1.68,2.28 1.12,0.56 2.6,1.03 4.44,1.4 1.84,0.37 3.87,0.77 6.09,1.2 2.22,0.43 4.42,1.01 6.61,1.76 2.19,0.75 4.2,1.73 6.05,2.96 1.84,1.23 3.32,2.83 4.44,4.81 1.12,1.98 1.68,4.43 1.68,7.37 0,3.42 -0.97,6.55 -2.92,9.41 -1.95,2.86 -4.85,5.15 -8.69,6.89 -3.84,1.73 -8.68,2.6 -14.49,2.6zm60.7 0c-4.48,0 -8.64,-0.71 -12.45,-2.12 -3.82,-1.41 -7.13,-3.43 -9.93,-6.05 -2.8,-2.62 -4.98,-5.71 -6.53,-9.29 -1.55,-3.58 -2.32,-7.53 -2.32,-11.85 0,-4.32 0.77,-8.28 2.32,-11.85 1.55,-3.58 3.72,-6.67 6.53,-9.29 2.8,-2.62 6.11,-4.63 9.93,-6.05 3.82,-1.41 7.97,-2.12 12.45,-2.12 5.5,0 10.37,0.96 14.62,2.88 4.24,1.92 7.75,4.7 10.53,8.33l-11.93 10.65c-1.66,-2.08 -3.48,-3.7 -5.49,-4.85 -2,-1.15 -4.26,-1.72 -6.77,-1.72 -1.98,0 -3.76,0.32 -5.37,0.96 -1.6,0.64 -2.98,1.57 -4.12,2.8 -1.15,1.23 -2.04,2.71 -2.68,4.44 -0.64,1.73 -0.96,3.67 -0.96,5.81 0,2.14 0.32,4.07 0.96,5.81 0.64,1.73 1.54,3.22 2.68,4.44 1.15,1.23 2.52,2.16 4.12,2.8 1.6,0.64 3.39,0.96 5.37,0.96 2.51,0 4.76,-0.57 6.77,-1.72 2,-1.15 3.83,-2.76 5.49,-4.85l11.93 10.65c-2.78,3.58 -6.29,6.34 -10.53,8.29 -4.24,1.95 -9.12,2.92 -14.62,2.92zm30.03 -1.28l0 -56.06 26.99 0c5.23,0 9.76,0.85 13.57,2.56 3.82,1.71 6.77,4.15 8.85,7.33 2.08,3.18 3.12,6.93 3.12,11.25 0,4.32 -1.04,8.06 -3.12,11.21 -2.08,3.15 -5.03,5.59 -8.85,7.33 -3.82,1.73 -8.34,2.6 -13.57,2.6l-16.5 0 8.41 -8.09 0 21.86 -18.9 0zm18.9 -19.78l-8.41 -8.57 15.3 0c2.62,0 4.55,-0.59 5.81,-1.76 1.25,-1.18 1.88,-2.78 1.88,-4.81 0,-2.03 -0.63,-3.63 -1.88,-4.8 -1.26,-1.18 -3.19,-1.76 -5.81,-1.76l-15.3 0 8.41 -8.57 0 30.27zm30.91 19.78l24.51 -56.06 18.58 0 24.51 56.06 -19.54 0 -18.1 -47.09 7.37 0 -18.1 47.09 -19.22 0zm14.58 -9.77l4.8 -13.61 25.79 0 4.81 13.61 -35.4 0zm56.06 9.77l0 -56.06 27.63 0c6.25,0 11.75,1.13 16.5,3.4 4.75,2.27 8.46,5.49 11.13,9.65 2.67,4.16 4,9.16 4,14.98 0,5.77 -1.33,10.74 -4,14.94 -2.67,4.19 -6.38,7.42 -11.13,9.69 -4.75,2.27 -10.25,3.4 -16.5,3.4l-27.63 0zm18.9 -14.74l7.93 0c2.67,0 5.01,-0.51 7.01,-1.52 2,-1.01 3.56,-2.52 4.68,-4.52 1.12,-2 1.68,-4.42 1.68,-7.25 0,-2.88 -0.56,-5.31 -1.68,-7.29 -1.12,-1.98 -2.68,-3.47 -4.68,-4.48 -2,-1.01 -4.34,-1.52 -7.01,-1.52l-7.93 0 0 26.59z"/>
 </g>
</svg>
