<?xml version="1.0" encoding="UTF-8"?>
<!DOCTYPE svg PUBLIC "-//W3C//DTD SVG 1.1//EN" "http://www.w3.org/Graphics/SVG/1.1/DTD/svg11.dtd">
<!-- Creator: CorelDRAW 2021.5 -->
<svg xmlns="http://www.w3.org/2000/svg" xml:space="preserve" width="4.17539in" height="1.43711in" version="1.1" style="shape-rendering:geometricPrecision; text-rendering:geometricPrecision; image-rendering:optimizeQuality; fill-rule:evenodd; clip-rule:evenodd"
viewBox="0 0 1714.35 590.06"
 xmlns:xlink="http://www.w3.org/1999/xlink"
 xmlns:xodm="http://www.corel.com/coreldraw/odm/2003">
 <defs>
  <style type="text/css">
   <![CDATA[
    .fil0 {fill:white}
    .fil1 {fill:white;fill-rule:nonzero}
   ]]>
  </style>
 </defs>
 <g id="Layer_x0020_1">
  <metadata id="CorelCorpID_0Corel-Layer"/>
  <g id="_2870894146896">
   <polygon class="fil0" points="224.54,505.62 455.72,87.88 504.36,0 269.78,101.05 -0,588.54 "/>
   <polygon class="fil0" points="478.48,111.15 281.95,466.27 294.11,479.94 392.1,590.06 482.74,426.27 590.95,230.74 592.55,227.85 "/>
   <polygon class="fil0" points="615.3,251.12 519.2,424.78 667.53,418.72 745.01,278.7 621.35,240.2 "/>
  </g>
  <path class="fil1" d="M870.82 286.73l0 -152.62 75.22 0c17.01,0 31.98,3.09 44.91,9.27 12.94,6.18 23.04,14.93 30.3,26.27 7.27,11.34 10.9,24.93 10.9,40.77 0,15.7 -3.63,29.25 -10.9,40.66 -7.27,11.41 -17.37,20.2 -30.3,26.38 -12.94,6.18 -27.91,9.27 -44.91,9.27l-75.22 0zm51.45 -40.12l21.58 0c7.27,0 13.63,-1.38 19.08,-4.14 5.45,-2.76 9.7,-6.87 12.75,-12.32 3.05,-5.45 4.58,-12.03 4.58,-19.73 0,-7.85 -1.53,-14.46 -4.58,-19.84 -3.05,-5.38 -7.3,-9.45 -12.75,-12.21 -5.45,-2.76 -11.81,-4.14 -19.08,-4.14l-21.58 0 0 72.38zm109.88 40.12l66.72 -152.62 50.58 0 66.72 152.62 -53.2 0 -49.27 -128.2 20.06 0 -49.27 128.2 -52.33 0zm39.68 -26.6l13.08 -37.06 70.2 0 13.08 37.06 -96.37 0zm230.67 30.09c-12.5,0 -24.02,-1.96 -34.56,-5.89 -10.54,-3.92 -19.66,-9.48 -27.36,-16.68 -7.7,-7.19 -13.7,-15.66 -17.99,-25.4 -4.29,-9.74 -6.43,-20.35 -6.43,-31.83 0,-11.63 2.15,-22.27 6.43,-31.94 4.29,-9.66 10.28,-18.1 17.99,-25.29 7.7,-7.19 16.82,-12.75 27.36,-16.68 10.54,-3.92 21.98,-5.89 34.34,-5.89 12.5,0 23.98,1.96 34.45,5.89 10.47,3.92 19.55,9.49 27.25,16.68 7.7,7.19 13.7,15.63 17.99,25.29 4.29,9.67 6.43,20.31 6.43,31.94 0,11.48 -2.14,22.09 -6.43,31.83 -4.29,9.74 -10.28,18.2 -17.99,25.4 -7.7,7.19 -16.79,12.76 -27.25,16.68 -10.47,3.92 -21.88,5.89 -34.23,5.89zm-0.22 -41.64c4.8,0 9.27,-0.87 13.41,-2.62 4.14,-1.74 7.78,-4.25 10.9,-7.52 3.12,-3.27 5.56,-7.27 7.3,-11.99 1.74,-4.72 2.62,-10.07 2.62,-16.03 0,-5.96 -0.87,-11.3 -2.62,-16.02 -1.74,-4.72 -4.18,-8.72 -7.3,-11.99 -3.12,-3.27 -6.76,-5.78 -10.9,-7.52 -4.14,-1.74 -8.61,-2.62 -13.41,-2.62 -4.8,0 -9.27,0.87 -13.41,2.62 -4.14,1.74 -7.78,4.25 -10.9,7.52 -3.12,3.27 -5.56,7.27 -7.3,11.99 -1.74,4.72 -2.62,10.07 -2.62,16.02 0,5.96 0.87,11.3 2.62,16.03 1.74,4.72 4.18,8.72 7.3,11.99 3.12,3.27 6.76,5.78 10.9,7.52 4.14,1.74 8.61,2.62 13.41,2.62zm-431.47 210.85l0 -152.62 42.3 0 61.05 99.64 -22.24 0 59.3 -99.64 42.3 0 0.44 152.62 -46.88 0 -0.43 -81.98 7.41 0 -40.55 68.24 -22.68 0 -42.3 -68.24 9.16 0 0 81.98 -46.87 0zm191.42 0l66.72 -152.62 50.58 0 66.72 152.62 -53.2 0 -49.27 -128.2 20.06 0 -49.27 128.2 -52.33 0zm39.68 -26.6l13.08 -37.06 70.2 0 13.08 37.06 -96.37 0zm198.62 -6.1l-2.84 -56.47 57.56 -63.45 56.03 0 -64.54 71.07 -28.56 29.22 -17.66 19.62zm-46 32.7l0 -152.62 50.58 0 0 152.62 -50.58 0zm100.29 0l-44.91 -59.3 33.36 -35.32 71.08 94.62 -59.52 0zm66.5 0l0 -152.62 124.05 0 0 38.81 -73.47 0 0 75 76.31 0 0 38.81 -126.89 0zm47.09 -58.87l0 -37.06 68.02 0 0 37.06 -68.02 0zm99.64 58.87l0 -152.62 71.29 0c23.4,0 41.21,5.16 53.42,15.48 12.21,10.32 18.31,24.35 18.31,42.08 0,11.77 -2.84,21.91 -8.5,30.41 -5.67,8.5 -13.7,15.01 -24.09,19.51 -10.39,4.51 -22.71,6.76 -36.96,6.76l-44.91 0 22.89 -21.15 0 59.52 -51.45 0zm91.35 0l-37.5 -55.6 54.51 0 37.94 55.6 -54.94 0zm-39.9 -53.85l-22.89 -23.33 41.64 0c7.12,0 12.39,-1.6 15.81,-4.8 3.42,-3.2 5.12,-7.56 5.12,-13.08 0,-5.52 -1.71,-9.88 -5.12,-13.08 -3.42,-3.2 -8.69,-4.8 -15.81,-4.8l-41.64 0 22.89 -23.33 0 82.41z"/>
 </g>
</svg>
