<?xml version="1.0" encoding="UTF-8"?>
<!DOCTYPE svg PUBLIC "-//W3C//DTD SVG 1.1//EN" "http://www.w3.org/Graphics/SVG/1.1/DTD/svg11.dtd">
<!-- Creator: CorelDRAW 2021.5 -->
<svg xmlns="http://www.w3.org/2000/svg" xml:space="preserve" width="3.37206in" height="0.757201in" version="1.1" style="shape-rendering:geometricPrecision; text-rendering:geometricPrecision; image-rendering:optimizeQuality; fill-rule:evenodd; clip-rule:evenodd"
viewBox="0 0 266.46 59.83"
 xmlns:xlink="http://www.w3.org/1999/xlink"
 xmlns:xodm="http://www.corel.com/coreldraw/odm/2003">
 <defs>
  <style type="text/css">
   <![CDATA[
    .str0 {stroke:#E6E6E6;stroke-width:0.55;stroke-miterlimit:2.61313}
    .fil1 {fill:#999999}
    .fil3 {fill:#B3B3B3}
    .fil2 {fill:#CCCCCC}
    .fil4 {fill:#E6E6E6}
    .fil0 {fill:white}
    .fil5 {fill:white;fill-rule:nonzero}
   ]]>
  </style>
 </defs>
 <g id="Layer_x0020_1">
  <metadata id="CorelCorpID_0Corel-Layer"/>
  <g id="_2871324083024">
   <g>
    <polygon class="fil0" points="8.82,50.67 8.82,30.23 8.82,21 8.82,0.71 -0,4.51 -0,54.47 "/>
    <polygon class="fil1" points="17.64,54.47 8.82,50.67 -0,54.47 8.51,59.82 "/>
    <polygon class="fil2" points="8.82,50.67 17.64,54.47 17.64,42.9 17.64,35.61 17.64,25.28 8.82,30.23 "/>
    <polygon class="fil2" points="8.82,21 17.64,15.95 17.64,4.51 8.82,0.71 "/>
    <polygon class="fil0" points="17.64,15.95 8.82,21 8.82,30.23 17.64,25.28 37.6,14.1 38.13,20.6 38.42,24.2 45.54,20.26 45.54,0 "/>
    <polygon class="fil3" points="45.54,0 45.54,20.26 52.5,24.06 53.25,3.89 "/>
    <polygon class="fil4 str0" points="52.5,24.06 45.54,20.26 38.42,24.2 45.27,28.72 "/>
    <polygon class="fil0" points="21.37,30.1 38.13,20.6 37.6,14.1 17.64,25.28 17.64,35.61 53,54.34 53,33.26 46.74,29.65 45.13,42.62 38.51,39.32 "/>
    <polygon class="fil1" points="38.51,32.81 38.51,39.32 45.13,42.62 46.74,29.65 "/>
    <polygon class="fil4" points="53,54.34 17.64,35.61 17.64,42.9 45.86,59.83 "/>
    <polygon class="fil1" points="17.64,25.28 17.64,32.26 21.37,30.1 38.13,20.6 37.6,14.1 "/>
   </g>
   <path class="fil5" d="M85.73 38.18c0.45,0.34 0.74,0.82 0.85,1.41 0.12,0.6 0.05,1.24 -0.22,1.93 -0.16,0.4 -0.36,0.76 -0.6,1.07 -0.58,0.77 -1.3,1.27 -2.15,1.49 -0.85,0.23 -1.56,0.11 -2.15,-0.34l-0.04 -0.04 -10.5 -7.99 0 5.76c0,0.05 0,0.13 0,0.24 -0.05,0.45 -0.24,0.87 -0.56,1.25 -0.32,0.38 -0.74,0.68 -1.25,0.89 -0.52,0.21 -1.08,0.32 -1.69,0.32 -0.95,0 -1.78,-0.25 -2.46,-0.76 -0.72,-0.5 -1.07,-1.14 -1.07,-1.91l-0.04 -23.06c0,-0.61 0.24,-1.15 0.72,-1.63 0.69,-0.72 1.62,-1.07 2.78,-1.07 0.93,0 1.73,0.25 2.41,0.74 0.68,0.49 1.04,1.08 1.09,1.77 0.03,0.03 0.04,0.09 0.04,0.2l0 9.18 10.22 -11.17c0.08,-0.11 0.16,-0.19 0.24,-0.24 0.53,-0.42 1.19,-0.58 1.99,-0.46 0.8,0.12 1.52,0.47 2.19,1.05 0.61,0.56 1.01,1.19 1.19,1.91 0.32,0.98 0.17,1.8 -0.44,2.46l-9.34 10.26 8.79 6.72zm11.45 -13.76c1.78,0 3.42,0.44 4.93,1.31 1.51,0.87 2.7,2.07 3.58,3.58 0.87,1.51 1.31,3.15 1.31,4.93 0,2.7 -0.96,5.02 -2.88,6.94 -1.92,1.92 -4.23,2.88 -6.94,2.88 -2.7,0 -5.02,-0.96 -6.94,-2.88 -1.92,-1.92 -2.88,-4.23 -2.88,-6.94 0,-2.7 0.96,-5.02 2.88,-6.94 1.92,-1.92 4.23,-2.88 6.94,-2.88zm-3.36 13.12c0.94,0.93 2.07,1.39 3.38,1.39 1.31,0 2.43,-0.46 3.36,-1.39 0.93,-0.93 1.39,-2.05 1.39,-3.36 0,-1.31 -0.46,-2.43 -1.39,-3.36 -0.93,-0.93 -2.05,-1.39 -3.36,-1.39 -1.31,0 -2.44,0.46 -3.38,1.39 -0.94,0.93 -1.41,2.05 -1.41,3.36 0,1.31 0.47,2.43 1.41,3.36zm37.71 -12.72c0.34,0.34 0.52,0.74 0.52,1.19l-0.08 16.06c0,0.45 -0.17,0.85 -0.52,1.19 -0.53,0.53 -1.25,0.8 -2.15,0.8 -0.64,0 -1.19,-0.15 -1.67,-0.44 -0.48,-0.29 -0.78,-0.66 -0.91,-1.11 -0.05,-0.16 -0.08,-0.3 -0.08,-0.44l0.04 -9.58c-0.29,-0.77 -0.76,-1.42 -1.41,-1.97 -0.65,-0.54 -1.38,-0.89 -2.21,-1.05l-0.04 8.79c0,0.5 -0.25,0.93 -0.76,1.27l-0.08 0.04c-0.5,0.34 -1.13,0.52 -1.87,0.52 -0.69,0 -1.3,-0.17 -1.83,-0.52l-0.08 -0.04c-0.5,-0.37 -0.76,-0.81 -0.76,-1.31l0.04 -8.75c-1.43,0.24 -2.53,0.99 -3.3,2.27l-0.04 10.34c0,0.21 -0.04,0.41 -0.12,0.6 -0.19,0.42 -0.51,0.76 -0.97,1.01 -0.46,0.25 -0.99,0.38 -1.57,0.38 -0.74,0 -1.37,-0.2 -1.89,-0.6 -0.52,-0.4 -0.78,-0.86 -0.78,-1.39l0.04 -16.1c0.03,-0.56 0.3,-1.03 0.81,-1.41 0.52,-0.38 1.13,-0.58 1.85,-0.58l0.04 0c0.58,0.03 1.1,0.16 1.55,0.4 0.45,0.24 0.77,0.56 0.95,0.95 1.19,-0.56 2.45,-0.86 3.78,-0.91 0.82,-0.03 1.59,0.03 2.31,0.16 0.74,-0.13 1.54,-0.19 2.39,-0.16 1.43,0.08 2.77,0.45 4.02,1.11 0.08,-0.27 0.24,-0.52 0.48,-0.76 0.53,-0.53 1.23,-0.8 2.11,-0.8l0.04 0c0.9,0.03 1.62,0.3 2.15,0.83zm25.76 0c0.34,0.34 0.52,0.74 0.52,1.19l-0.08 16.06c0,0.45 -0.17,0.85 -0.52,1.19 -0.53,0.53 -1.25,0.8 -2.15,0.8 -0.64,0 -1.19,-0.15 -1.67,-0.44 -0.48,-0.29 -0.78,-0.66 -0.91,-1.11 -0.05,-0.16 -0.08,-0.3 -0.08,-0.44l0.04 -9.58c-0.29,-0.77 -0.76,-1.42 -1.41,-1.97 -0.65,-0.54 -1.38,-0.89 -2.21,-1.05l-0.04 8.79c0,0.5 -0.25,0.93 -0.76,1.27l-0.08 0.04c-0.5,0.34 -1.13,0.52 -1.87,0.52 -0.69,0 -1.3,-0.17 -1.83,-0.52l-0.08 -0.04c-0.5,-0.37 -0.76,-0.81 -0.76,-1.31l0.04 -8.75c-1.43,0.24 -2.53,0.99 -3.3,2.27l-0.04 10.34c0,0.21 -0.04,0.41 -0.12,0.6 -0.19,0.42 -0.51,0.76 -0.97,1.01 -0.46,0.25 -0.99,0.38 -1.57,0.38 -0.74,0 -1.37,-0.2 -1.89,-0.6 -0.52,-0.4 -0.78,-0.86 -0.78,-1.39l0.04 -16.1c0.03,-0.56 0.3,-1.03 0.81,-1.41 0.52,-0.38 1.13,-0.58 1.85,-0.58l0.04 0c0.58,0.03 1.1,0.16 1.55,0.4 0.45,0.24 0.77,0.56 0.95,0.95 1.19,-0.56 2.45,-0.86 3.78,-0.91 0.82,-0.03 1.59,0.03 2.31,0.16 0.74,-0.13 1.54,-0.19 2.39,-0.16 1.43,0.08 2.77,0.45 4.02,1.11 0.08,-0.27 0.24,-0.52 0.48,-0.76 0.53,-0.53 1.23,-0.8 2.11,-0.8l0.04 0c0.9,0.03 1.62,0.3 2.15,0.83zm19.8 -0.79c0.74,0 1.37,0.2 1.89,0.6 0.52,0.4 0.77,0.86 0.77,1.39l-0.04 16.1c-0.03,0.53 -0.3,0.99 -0.82,1.39 -0.52,0.4 -1.13,0.6 -1.85,0.6l-0.04 0c-0.66,-0.03 -1.23,-0.19 -1.71,-0.5 -0.48,-0.3 -0.78,-0.7 -0.91,-1.17 -2.09,1.09 -4.28,1.38 -6.56,0.87 -1.03,-0.21 -2,-0.58 -2.9,-1.11 -1.75,-1.03 -3.06,-2.46 -3.94,-4.29 -0.5,-1.09 -0.79,-2.23 -0.87,-3.42l0 -0.08 0.04 -8.47c0,-0.56 0.26,-1.02 0.78,-1.39 0.52,-0.37 1.15,-0.56 1.89,-0.56 0.72,0 1.32,0.19 1.83,0.56 0.37,0.24 0.62,0.53 0.76,0.87 0.05,0.19 0.08,0.37 0.08,0.56l-0.04 9.46c0.34,0.93 0.93,1.68 1.75,2.25 0.82,0.57 1.72,0.85 2.7,0.85 1.01,0 1.92,-0.29 2.74,-0.87 0.82,-0.58 1.4,-1.35 1.75,-2.31l0.04 -9.34c0,-0.19 0.04,-0.37 0.12,-0.56 0.08,-0.27 0.25,-0.51 0.52,-0.74 0.27,-0.23 0.58,-0.4 0.93,-0.52 0.36,-0.12 0.72,-0.18 1.09,-0.18zm25.09 9.54l0 0.08 -0.04 8.47c0,0.53 -0.26,0.99 -0.78,1.37 -0.52,0.38 -1.13,0.58 -1.85,0.58 -0.72,0.03 -1.34,-0.16 -1.87,-0.56 -0.37,-0.24 -0.62,-0.53 -0.76,-0.87 -0.05,-0.19 -0.08,-0.37 -0.08,-0.56l0.04 -9.46c-0.19,-0.45 -0.42,-0.87 -0.72,-1.25 -0.29,-0.38 -0.63,-0.72 -1.01,-0.99 -0.38,-0.28 -0.82,-0.49 -1.29,-0.64 -0.48,-0.15 -0.95,-0.22 -1.43,-0.22 -0.66,0 -1.3,0.13 -1.91,0.4 -0.61,0.27 -1.14,0.64 -1.59,1.11 -0.45,0.48 -0.78,1.03 -0.99,1.67l-0.04 9.34c0,0.19 -0.03,0.37 -0.08,0.56 -0.16,0.42 -0.48,0.76 -0.95,1.01 -0.48,0.25 -1.02,0.39 -1.63,0.42 -0.74,0 -1.37,-0.2 -1.89,-0.6 -0.52,-0.4 -0.78,-0.86 -0.78,-1.39l0.04 -16.1c0.03,-0.53 0.3,-0.99 0.81,-1.37 0.52,-0.38 1.13,-0.58 1.85,-0.58l0.04 0c0.66,0 1.24,0.15 1.73,0.46 0.49,0.3 0.79,0.7 0.89,1.17 1.4,-0.74 2.9,-1.11 4.49,-1.11 0.72,0 1.4,0.08 2.07,0.24 1.03,0.21 2,0.58 2.9,1.11 1.75,1.03 3.06,2.46 3.94,4.29 0.5,1.09 0.79,2.23 0.87,3.42zm5.17 -9.58c0.74,0 1.37,0.19 1.89,0.58 0.52,0.38 0.78,0.85 0.78,1.41l-0.08 16.06c0,0.56 -0.26,1.03 -0.77,1.41 -0.52,0.38 -1.15,0.58 -1.89,0.58 -0.72,0 -1.33,-0.19 -1.83,-0.56 -0.56,-0.4 -0.83,-0.87 -0.83,-1.43l0.08 -16.1c0,-0.53 0.26,-0.99 0.78,-1.37 0.52,-0.38 1.15,-0.58 1.89,-0.58zm1.79 -2.19c-0.5,0.5 -1.11,0.76 -1.83,0.76 -0.72,0 -1.32,-0.25 -1.83,-0.76 -0.5,-0.5 -0.76,-1.11 -0.76,-1.83 0,-0.72 0.25,-1.32 0.76,-1.83 0.5,-0.5 1.11,-0.76 1.83,-0.76 0.72,0 1.33,0.25 1.83,0.76 0.5,0.5 0.76,1.11 0.76,1.83 0,0.72 -0.25,1.33 -0.76,1.83zm15.31 16.94c0.37,0 0.66,0.27 0.85,0.82 0.2,0.54 0.3,1.16 0.3,1.85 0,0.69 -0.09,1.29 -0.28,1.79 -0.21,0.58 -0.5,0.87 -0.87,0.87l-8.03 0c-0.37,0 -0.66,-0.27 -0.85,-0.8 -0.2,-0.53 -0.3,-1.15 -0.3,-1.87 0,-0.13 0.01,-0.28 0.04,-0.44 -0.03,-0.05 -0.04,-0.09 -0.04,-0.12l0.04 -11.29 -2.46 0.04c-0.4,0 -0.73,-0.29 -0.99,-0.87 -0.24,-0.48 -0.36,-1.07 -0.36,-1.79 0,-0.72 0.11,-1.34 0.34,-1.87 0.23,-0.53 0.54,-0.8 0.93,-0.8l2.58 -0.04 0 -6.04c0.03,-0.74 0.3,-1.37 0.82,-1.89 0.52,-0.52 1.15,-0.78 1.89,-0.78 0.74,0 1.37,0.27 1.89,0.8 0.52,0.53 0.77,1.15 0.77,1.87l-0.04 5.96 1.79 -0.04c0.42,0 0.76,0.27 0.99,0.8 0.24,0.53 0.36,1.15 0.38,1.85 0.01,0.7 -0.09,1.33 -0.32,1.87 -0.23,0.54 -0.55,0.82 -0.97,0.82l-1.87 0.04 -0.04 9.26 3.82 0zm18.96 -14.75c0.74,0 1.37,0.19 1.89,0.58 0.52,0.38 0.78,0.85 0.78,1.41l-0.08 16.02c0,0.56 -0.26,1.03 -0.77,1.41 -0.52,0.38 -1.15,0.58 -1.89,0.58 -0.58,0 -1.1,-0.12 -1.55,-0.36 -0.45,-0.24 -0.77,-0.56 -0.95,-0.95 -1.51,0.9 -3.15,1.35 -4.93,1.35 -2.7,0 -5.02,-0.96 -6.94,-2.88 -1.92,-1.92 -2.88,-4.23 -2.88,-6.94 0,-2.7 0.96,-5.02 2.88,-6.94 1.92,-1.92 4.23,-2.88 6.94,-2.88 1.72,0 3.34,0.42 4.85,1.27 0.05,-0.24 0.16,-0.46 0.32,-0.68 0.16,-0.21 0.35,-0.39 0.58,-0.54 0.23,-0.15 0.49,-0.26 0.79,-0.34 0.3,-0.08 0.62,-0.12 0.93,-0.12l0.04 0zm-10.87 13.52c0.94,0.93 2.07,1.39 3.38,1.39 1.31,0 2.43,-0.46 3.36,-1.39 0.93,-0.93 1.39,-2.05 1.39,-3.36 0,-1.31 -0.46,-2.44 -1.39,-3.38 -0.93,-0.94 -2.05,-1.41 -3.36,-1.41 -1.31,0 -2.44,0.47 -3.38,1.41 -0.94,0.94 -1.41,2.07 -1.41,3.38 0,1.31 0.47,2.43 1.41,3.36zm29.76 -4.81c-0.72,-0.11 -1.31,-0.34 -1.77,-0.7 -0.46,-0.36 -0.7,-0.76 -0.7,-1.21l0 -0.83c-0.95,-0.5 -1.96,-0.66 -3.02,-0.48l8.94 9.26c0.05,0.08 0.12,0.17 0.2,0.28l0.12 0.2 -0.08 0.16c-0.87,1.4 -2.01,2.52 -3.42,3.34l-0.08 0.04c-1.51,0.87 -3.14,1.31 -4.89,1.31 -1.09,0 -2.13,-0.17 -3.14,-0.52 -1.8,-0.61 -3.31,-1.66 -4.51,-3.16 -1.21,-1.5 -1.9,-3.19 -2.09,-5.07l-0.04 -0.2 0.16 -0.12c0.77,-0.5 1.78,-0.76 3.02,-0.76 0.61,0.03 1.15,0.09 1.63,0.2 0.72,0.16 1.28,0.4 1.69,0.72 0.41,0.32 0.62,0.69 0.62,1.11l0 1.83c1.06,0.74 2.23,0.99 3.5,0.76l-9.3 -9.62 0.16 -0.24c0.87,-1.4 2.04,-2.52 3.5,-3.34 1.11,-0.64 2.33,-1.03 3.64,-1.17 1.31,-0.15 2.59,-0.05 3.84,0.3 0.9,0.24 1.75,0.61 2.54,1.11 0.8,0.5 1.5,1.1 2.11,1.79 0.61,0.69 1.13,1.44 1.55,2.27l0 0.16 0 0.68c0,0.37 -0.15,0.72 -0.44,1.03 -0.64,0.64 -1.59,0.95 -2.86,0.95 -0.34,0 -0.64,-0.03 -0.87,-0.08z"/>
  </g>
 </g>
</svg>
