<?xml version="1.0" encoding="UTF-8"?>
<!DOCTYPE svg PUBLIC "-//W3C//DTD SVG 1.1//EN" "http://www.w3.org/Graphics/SVG/1.1/DTD/svg11.dtd">
<!-- Creator: CorelDRAW 2021.5 -->
<svg xmlns="http://www.w3.org/2000/svg" xml:space="preserve" width="6.62912in" height="1.15597in" version="1.1" style="shape-rendering:geometricPrecision; text-rendering:geometricPrecision; image-rendering:optimizeQuality; fill-rule:evenodd; clip-rule:evenodd"
viewBox="0 0 1562.82 272.52"
 xmlns:xlink="http://www.w3.org/1999/xlink"
 xmlns:xodm="http://www.corel.com/coreldraw/odm/2003">
 <defs>
  <style type="text/css">
   <![CDATA[
    .fil0 {fill:white}
    .fil1 {fill:white;fill-rule:nonzero}
   ]]>
  </style>
 </defs>
 <g id="Layer_x0020_1">
  <metadata id="CorelCorpID_0Corel-Layer"/>
  <g id="_2870791539200">
   <path class="fil0" d="M135.82 195.14c-87.27,13.54 -103.77,-101.22 -31.98,-120.62l0 25.31 72.83 -50.18 -73.41 -49.65 -1.35 18.22c-94.24,22.43 -125.48,104.05 -83.8,178.13 39.24,61.14 113.67,80.52 182.17,25.2l50.13 -98.48 -114.59 72.06z"/>
   <path class="fil0" d="M269.62 77.38c87.27,-13.54 103.77,101.22 31.98,120.62l0 -25.31 -72.83 50.18 73.41 49.65 1.35 -18.22c94.24,-22.43 125.48,-104.05 83.8,-178.13 -39.24,-61.14 -113.67,-80.52 -182.17,-25.2l-50.13 98.48 114.59 -72.06z"/>
  </g>
  <path class="fil1" d="M438.85 95.27c7.57,-14.92 25.64,-25.64 45.4,-27.96l0 93.75c0,14.29 -2.52,31.74 -5.68,38.26l57.6 0c-3.15,-6.52 -5.68,-23.96 -5.68,-38.26l0 -93.75c19.76,2.31 37.63,13.03 45.19,27.96l0 -36.79 -136.84 0 0 36.79zm225.13 -6.73c-15.14,2.1 -28.59,19.55 -35.1,44.77l0 -44.98 -53.39 22.7c6.31,5.68 9.25,15.13 9.25,29.01l0 59.28 44.14 0 0 -55.7c7.15,-6.73 17.87,-9.67 35.1,-9.67l0 -45.4zm10.09 76.3c0,25.85 9.25,36.79 30.69,36.79 14.92,0 27.33,-6.73 36.79,-16.19l0 13.87 44.14 0 0 -110.99 -53.39 22.7c6.31,5.68 9.25,15.13 9.25,29.01l0 14.5c-1.26,21.65 -5.05,32.37 -11.98,32.37 -8.41,0 -11.56,-8.62 -11.56,-31.11l0 -67.48 -53.18 22.7c6.31,5.68 9.25,15.13 9.25,29.01l0 24.8zm121.08 -40.15c0,10.93 5.26,17.66 22.28,21.65l44.77 10.51c2.73,18.08 -1.47,39.1 -8.83,38.89 -7.57,-0.21 -17.87,-22.28 -19.97,-43.93l-38.68 23.54c7.15,15.34 29.85,26.07 56.12,26.07 33.42,0 58.02,-17.45 58.44,-40.99 0.21,-10.09 -5.47,-15.56 -17.66,-15.98l-45.61 -1.26c-2.94,-23.33 1.26,-49.4 9.04,-49.19 6.31,0.21 15.77,18.29 22.49,43.93l33 -28.17c-9.67,-12.4 -33.63,-21.65 -59.07,-21.65 -21.86,0 -56.34,8.83 -56.34,36.58zm172.16 -27.12l17.24 0 0 -6.94 -17.24 0 0 -40.78 -44.14 18.29 0 22.49 -11.56 0 0 6.94 11.56 0 0 65.79c0,26.28 10.51,37.84 34.26,37.84 17.87,0 27.54,-6.52 32.58,-21.86 -2.52,0.63 -4.83,0.84 -6.94,0.84 -9.46,0 -15.77,-5.26 -15.77,-14.08l0 -68.53zm25.65 6.1c0,14.71 6.31,23.33 25.22,27.96l59.49 14.71c2.73,20.81 -6.52,47.93 -17.66,47.72 -8.41,-0.21 -16.61,-15.55 -27.54,-53.18l-39.94 27.75c8.62,19.76 35.1,32.79 66.64,32.79 39.73,0 64.74,-20.81 65.37,-54.23 0.21,-12.82 -5.89,-20.18 -19.13,-20.18l-61.8 -0.21c-2.94,-27.33 6.52,-64.32 17.66,-64.32 8.83,0 21.86,23.54 29.64,55.07l34.89 -31.53c-11.35,-18.29 -37.21,-30.06 -66.42,-30.06 -28.38,0 -66.43,13.66 -66.43,47.72zm166.69 95.22l45.4 0 11.98 -38.47 12.19 38.47 45.4 0 37.21 -110.99 -50.45 15.14c12.19,6.31 13.66,21.65 12.4,40.36l-3.15 45.82 -28.8 -100.9 -52.13 14.92c6.31,4.41 11.98,12.19 16.19,22.7 1.05,4.2 -1.05,9.67 -1.89,18.71l-3.57 42.67 -28.17 -99.01 -52.13 14.92c7.36,5.26 13.66,14.92 18.08,28.38l21.44 67.27zm260.87 -69.58c0,-29.22 -28.8,-40.99 -54.02,-40.99 -21.44,0 -38.68,7.78 -57.18,26.28l28.17 24.8c-18.29,4.62 -28.8,15.98 -28.8,30.9 0,18.92 16.61,31.53 41.62,31.53 15.98,0 31.32,-5.05 43.3,-13.45l26.91 13.24 0 -72.31zm-78.41 9.04c7.36,-24.38 19.13,-44.56 25.86,-44.56 9.04,0 11.35,23.12 9.67,45.82 -7.57,-1.26 -16.61,-2.1 -24.38,-2.1 -4.2,0 -7.99,0.42 -11.14,0.84zm11.56 57.81c-6.31,-1.05 -5.46,-13.24 1.26,-29.64 5.89,-14.29 14.5,-23.33 22.28,-23.33 -0.21,2.73 -0.42,5.46 -0.84,7.99 -3.15,23.96 -13.87,44.98 -22.07,44.98 -0.21,0 -0.42,0 -0.63,0zm127.81 -42.15c-2.73,-10.93 -8.62,-48.87 10.51,-48.87 12.61,0 22.91,16.78 27.33,38.15 1.47,8.41 9.04,52.87 -9.25,52.87 -11.56,0 -22.28,-17.41 -28.59,-42.15zm-47.09 68.63l44.14 0 0 -27.75c9.25,4.62 19.13,6.94 30.69,6.94 34.68,0 53.6,-20.99 53.6,-60.19 0,-27.71 -14.5,-54.16 -45.19,-54.16 -17.66,0 -34.26,9.04 -39.1,19.93l0 -18.88 -53.39 22.67c6.31,5.68 9.25,15.1 9.25,28.97l0 82.47z"/>
 </g>
</svg>
