<?xml version="1.0" encoding="UTF-8"?>
<!DOCTYPE svg PUBLIC "-//W3C//DTD SVG 1.1//EN" "http://www.w3.org/Graphics/SVG/1.1/DTD/svg11.dtd">
<!-- Creator: CorelDRAW 2021.5 -->
<svg xmlns="http://www.w3.org/2000/svg" xml:space="preserve" width="4.49307in" height="0.75926in" version="1.1" style="shape-rendering:geometricPrecision; text-rendering:geometricPrecision; image-rendering:optimizeQuality; fill-rule:evenodd; clip-rule:evenodd"
viewBox="0 0 1036.26 175.11"
 xmlns:xlink="http://www.w3.org/1999/xlink"
 xmlns:xodm="http://www.corel.com/coreldraw/odm/2003">
 <defs>
  <style type="text/css">
   <![CDATA[
    .fil0 {fill:white;fill-rule:nonzero}
   ]]>
  </style>
 </defs>
 <g id="Layer_x0020_1">
  <metadata id="CorelCorpID_0Corel-Layer"/>
  <g id="_2870315750096">
   <g id="_1555296915696">
    <g id="Layer_x0020_1_0">
     <path class="fil0" d="M248 1.29c-6.48,-2.62 -13.78,-1.21 -18.71,3.75l-64.2 63.81 0 34.65 68.79 -68.29 0 113.87 -114.32 0 -13.18 -21.21 -46 45.72 181.09 0c9.41,0 17.1,-7.61 17.1,-17.02l0 -139.45c0,-6.93 -4.14,-13.1 -10.54,-15.8l0 0 -0.03 -0.03z"/>
     <path class="fil0" d="M59.64 149.08l75.75 -75.36 0 70.34 24.65 0 0 -88.51c0,-6.93 -4.14,-13.1 -10.54,-15.72 -6.48,-2.62 -13.78,-1.21 -18.71,3.75l-130.8 130.01 53.16 0 24.65 -24.51 -18.17 0 0 0.03 0 -0.03z"/>
     <polygon class="fil0" points="854.53,173.23 933.94,173.23 933.94,155.56 874.39,155.56 874.39,121.25 933.94,121.25 933.94,103.95 874.39,103.95 874.39,68.68 933.94,68.68 933.94,51.95 854.53,51.95 "/>
     <path class="fil0" d="M997.86 109.42l35.72 -57.47 -20.34 0 -18.62 29.83c-1.38,2.28 -2.62,4.48 -3.75,6.34 -1.13,1.94 -2.03,3.69 -2.99,5.47l-1.3 -2.37c-2.54,-4.9 -4.37,-8 -5.27,-9.63l-17.58 -29.66 -20.82 0 35.07 57.81 -39.64 63.5 20.99 0 21.38 -34.65c1.3,-2.11 2.45,-4.14 3.58,-6.17 1.13,-2.03 2.11,-3.97 3.07,-5.86 1.86,3.66 3.89,7.52 6.17,11.66l0.34 0.59 20.42 34.4 21.95 0 -38.37 -63.78 0 0 -0.03 -0z"/>
     <path class="fil0" d="M349.83 53.89l-17.97 0 -46.93 119.33 20.17 0 13.27 -34.23 44.48 0 12.99 34.23 20.82 0 -46.6 -118.74 -0.25 -0.59 0 0 0.03 0zm-24.59 66.68l15.55 -40.9 15.24 40.9 -30.79 0z"/>
     <path class="fil0" d="M544.39 139.25c-2.45,5.16 -5.97,9.21 -10.28,12.11 -4.37,2.79 -9.32,4.23 -14.68,4.23 -8.08,0 -14.9,-2.87 -20.34,-8.54 -5.44,-5.69 -8.17,-12.96 -8.17,-21.58 0,-8.45 2.73,-15.72 8.08,-21.44 5.35,-5.77 11.92,-8.62 19.58,-8.62 5.94,0 11.13,1.3 15.38,3.89 4.28,2.62 7.83,6.59 10.54,11.83l0.25 0.51 19.58 0 -0.42 -1.3c-3.49,-10.28 -9.1,-18.42 -16.76,-24.2 -7.63,-5.77 -16.85,-8.62 -27.21,-8.62 -6.65,0 -12.99,1.3 -18.79,3.89 -5.89,2.54 -11.16,6.42 -15.8,11.32 -4.28,4.56 -7.47,9.63 -9.63,15.16 -2.2,5.52 -3.24,11.49 -3.24,17.75 0,6.11 1.21,12.2 3.58,18.09 2.37,5.86 5.8,11.07 9.94,15.47 4.45,4.65 9.55,8.23 15.07,10.51 5.52,2.37 11.75,3.44 18.45,3.44 10.71,0 20,-2.87 27.47,-8.45 7.47,-5.61 13.18,-13.95 17.02,-24.76l0.42 -1.3 -19.55 0 -0.51 0.62 0 0 0.03 -0z"/>
     <path class="fil0" d="M653.61 98.68c-4.45,-6.59 -10.2,-11.83 -17.02,-15.55 -6.87,-3.75 -14.37,-5.61 -22.37,-5.61 -6.73,0 -12.99,1.3 -18.62,3.75 -5.69,2.45 -10.79,6.25 -15.3,11.15 -4.23,4.56 -7.47,9.63 -9.63,15.16 -2.2,5.52 -3.24,11.49 -3.24,17.83 0,6.09 1.21,12.2 3.58,18.09 2.37,5.86 5.8,11.07 9.94,15.47 4.54,4.73 9.63,8.31 15.16,10.68 5.52,2.37 11.75,3.52 18.45,3.52 9.94,0 18.79,-2.7 26.4,-8 7.47,-5.32 13.44,-13.02 17.58,-22.99l0.62 -1.38 -20.17 0 -0.25 0.51c-2.45,4.48 -5.89,7.97 -10.03,10.42 -4.14,2.45 -8.93,3.61 -14.03,3.61 -7.13,0 -13.35,-2.28 -18.54,-6.68 -4.93,-4.23 -8.08,-9.72 -9.55,-16.31l74.94 0 0 -3.49c0,-6.25 -0.68,-11.83 -1.86,-16.73 -1.46,-4.82 -3.41,-9.38 -6.06,-13.44l0 0 0 0zm-66.6 17.52c1.94,-6.34 5.27,-11.41 9.94,-15.16 4.93,-3.97 10.87,-5.94 17.66,-5.94 6.65,0 12.31,1.94 17.1,5.86 4.45,3.61 7.72,8.79 9.72,15.3l-54.43 0 0 -0.08 0 0 -0 0.03z"/>
     <path class="fil0" d="M825.93 91.84c-3.97,-3.66 -8.25,-6.42 -12.9,-8.39 -5.27,-2.2 -11.07,-3.32 -17.19,-3.32 -6.87,0 -13.18,1.21 -18.62,3.49 -5.44,2.28 -10.45,5.8 -15.07,10.59 -4.14,4.31 -7.52,9.38 -9.72,15.07 -2.2,5.69 -3.41,11.75 -3.41,18.09 0,13.61 4.62,25.1 13.61,34.14 9.01,9.04 20.51,13.61 34.11,13.61 5.86,0 11.41,-1.13 16.59,-3.41 4.54,-1.94 8.68,-4.65 12.4,-8.17l0 9.72 18.23 0 0 -121.28 -18.06 0 0 39.86 0 0 0 0 0.03 0zm-8.09 57.27c-5.8,5.89 -12.62,8.87 -20.26,8.87 -8.34,0 -15.47,-2.96 -21.24,-8.79 -5.8,-5.86 -8.68,-13.27 -8.68,-21.92 0,-8.31 2.9,-15.3 8.68,-21.04 5.77,-5.72 12.82,-8.62 20.9,-8.62 7.89,0 14.9,3.04 20.59,9.04 5.77,6.03 8.68,13.27 8.68,21.75 0.08,7.83 -2.9,14.76 -8.68,20.71l0 0 -0 0z"/>
     <path class="fil0" d="M432.49 95.08c0.59,-0.08 1.13,-0.08 1.78,-0.08 1.94,0 3.75,0.34 5.44,0.82 3.8,1.38 6.87,4.23 8.42,7.97l19.58 0c-0.96,-5.94 -4.14,-11.24 -8.93,-15.38 -1.78,-1.86 -3.89,-3.35 -6.4,-4.65 -2.99,-1.55 -6.4,-2.62 -10.2,-3.18 -2.45,-0.51 -5.01,-0.76 -7.63,-0.76 -5.61,0 -10.96,0.99 -15.64,2.96 -0.42,0.17 -0.82,0.34 -1.3,0.51 -0.25,0.08 -0.42,0.17 -0.7,0.34 -2.2,0.99 -4.23,2.2 -6.03,3.66 -6.14,4.82 -9.1,11.07 -9.1,18.76 0,5.69 1.86,10.51 5.52,14.48 3.75,3.97 10.2,7.83 19.5,11.66 1.61,0.76 3.97,1.61 7.04,2.7 9.1,3.35 13.61,7.35 13.61,12.09 0,3.58 -1.3,6.34 -3.8,8.4 -2.54,2.03 -6.06,3.04 -10.54,3.04 -5.18,0 -9.41,-1.13 -12.73,-3.41 -0.08,-0.08 -0.17,-0.08 -0.34,-0.17 -3.16,-2.28 -5.52,-5.55 -6.48,-9.63l-18.87 0c0.17,3.89 1.46,7.52 3.49,10.99 3.07,5.52 7.13,9.63 12.17,12.45 5.35,2.96 12,4.56 19.92,4.73 0.17,0 0.34,0 0.42,0 0.25,0 0.53,0 0.87,0 11.07,0 19.8,-2.45 26.09,-7.35 6.31,-4.9 9.41,-11.66 9.41,-20.28 0,-6.03 -1.69,-10.9 -5.18,-14.99 -3.49,-3.97 -9.16,-7.52 -17.19,-10.73 -1.78,-0.76 -4.23,-1.69 -7.55,-2.79 -10.28,-3.75 -15.38,-7.8 -15.38,-12.31 0,-0.68 0.08,-1.3 0.17,-1.94 1.94,-4.11 5.86,-7.04 10.54,-7.8l0.03 -0.08z"/>
     <path class="fil0" d="M705.75 79.92c-21.69,0 -39.3,17.52 -39.3,39.04l0 54.29 18.14 0 0 -52.65c0,-11.58 9.55,-21.04 21.16,-21.04 11.66,0 21.16,9.47 21.16,21.04l0 52.65 18.14 0 0 -54.29c0,-21.52 -17.64,-39.04 -39.3,-39.04l0 0 0 0z"/>
    </g>
   </g>
  </g>
 </g>
</svg>
