<?xml version="1.0" encoding="UTF-8"?>
<!DOCTYPE svg PUBLIC "-//W3C//DTD SVG 1.1//EN" "http://www.w3.org/Graphics/SVG/1.1/DTD/svg11.dtd">
<!-- Creator: CorelDRAW 2021.5 -->
<svg xmlns="http://www.w3.org/2000/svg" xml:space="preserve" width="4.08709in" height="0.880543in" version="1.1" style="shape-rendering:geometricPrecision; text-rendering:geometricPrecision; image-rendering:optimizeQuality; fill-rule:evenodd; clip-rule:evenodd"
viewBox="0 0 432.71 93.22"
 xmlns:xlink="http://www.w3.org/1999/xlink"
 xmlns:xodm="http://www.corel.com/coreldraw/odm/2003">
 <defs>
  <style type="text/css">
   <![CDATA[
    .fil0 {fill:white;fill-rule:nonzero}
   ]]>
  </style>
 </defs>
 <g id="Layer_x0020_1">
  <metadata id="CorelCorpID_0Corel-Layer"/>
  <g id="_2871332456944">
   <g id="_1555312119984">
    <path class="fil0" d="M149.86 20.75c-3.53,0 -6.46,2.93 -6.46,6.66 0,3.73 2.93,6.46 6.46,6.46 3.53,0 6.46,-2.93 6.46,-6.46 0,-3.53 -2.93,-6.66 -6.46,-6.66l0 0z"/>
    <polygon class="fil0" points="155.15,37.99 144.56,37.99 144.56,76.95 155.15,76.95 "/>
    <path class="fil0" d="M267.19 36.81c-4.3,0 -8.81,1.77 -11.35,5.89l0 -4.89 -10.19 0 0 39.18 10.58 0 0 -22.55c0,-4.51 2.74,-8.04 7.26,-8.04 5.08,0 7.26,3.33 7.26,7.84l0 22.92 10.58 0 0 -24.65c0,-8.61 -4.51,-15.47 -14.09,-15.47l0 0 0 -0.2 -0.02 0 -0.03 -0.02z"/>
    <path class="fil0" d="M305.97 36.61c-11.75,0 -20.56,8.61 -20.56,20.77 0,12.16 8.81,20.77 20.56,20.77 11.75,0 20.56,-8.81 20.56,-20.77 0,-11.94 -8.81,-20.77 -20.56,-20.77zm0 31.92c-5.08,0 -9.99,-3.92 -9.99,-11.17 0,-7.23 4.71,-11.17 9.99,-11.17 5.08,0 9.99,3.72 9.99,11.17 0,7.45 -4.69,11.17 -9.99,11.17z"/>
    <path class="fil0" d="M375.31 36.81c-5.08,0 -9.2,1.77 -12.34,6.46 -1.97,-4.3 -6.27,-6.46 -11.57,-6.46 -4.3,0 -9.2,2.15 -11.35,5.89l0 -4.71 -10.19 0 0 39.18 10.58 0 0 -22.94c0,-4.3 2.74,-7.63 7.26,-7.63 4.71,0 6.86,3.14 6.86,7.45l0 23.31 10.58 0 0 -22.94c0,-4.3 2.74,-7.63 7.26,-7.63 4.89,0 6.86,3.14 6.86,7.45l0 23.31 10.19 0 0 -25.46c0,-10.58 -6.86,-14.9 -14.09,-14.9l0 0 0 -0.39 -0.02 0 -0.03 0.02z"/>
    <polygon class="fil0" points="421.35,37.99 411.75,60.89 401.38,37.99 389.62,37.99 406.05,72.05 396.85,92.42 408.22,92.42 432.71,37.99 "/>
    <path class="fil0" d="M179.64 68.54c-5.08,0 -9.99,-3.92 -9.99,-11.17 0,-7.23 4.71,-11.17 9.99,-11.17 3.14,0 6.07,1.38 7.63,4.3l9.99 -3.33c-3.14,-6.46 -9.6,-10.58 -17.64,-10.58 -11.75,0 -20.56,8.61 -20.56,20.77 0,12.16 8.81,20.77 20.56,20.77 9.79,0 17.05,-6.07 19.2,-15.08l-10.96 0c-1.56,3.53 -4.71,5.3 -8.22,5.3l0 0 0 0.19 0.02 0 -0.02 -0z"/>
    <path class="fil0" d="M221.15 36.61c-11.75,0 -20.56,8.61 -20.56,20.77 0,12.16 8.81,20.77 20.56,20.77 11.75,0 20.56,-8.81 20.56,-20.77 0,-11.94 -8.81,-20.77 -20.56,-20.77zm0 31.92c-5.08,0 -9.99,-3.92 -9.99,-11.17 0,-7.23 4.71,-11.17 9.99,-11.17 5.08,0 9.99,3.72 9.99,11.17 0,7.45 -4.69,11.17 -9.99,11.17z"/>
    <path class="fil0" d="M130.65 42.66c2.15,-2.93 2.56,-5.68 2.56,-9.01 0,-3.33 -2.93,-13.12 -13.91,-13.12l-25.07 0 0 56.42 27.22 0c13.52,0 19.2,-9.42 19.2,-19.2 0,-4.49 -1.97,-10.37 -10.01,-15.08l0 0zm-25.84 -13.5l12.73 0c2.93,0 5.3,2.34 5.3,5.3 0,2.96 -2.34,5.28 -5.3,5.28l-12.73 0 0 -10.58 0 0zm15.27 39.18l-15.27 0 0 -19.79 15.27 0c5.48,0 9.79,4.51 9.79,9.79 0,6.07 -3.92,9.79 -9.79,9.79l0 0 0 0.2 0 0.02z"/>
    <path class="fil0" d="M63.86 38.96c1.77,-3.33 2.93,-7.63 2.93,-13.12 0,-7.26 -2.93,-13.91 -8.22,-18.61 -5.3,-4.71 -12.34,-7.05 -20.56,-7.05l-28.22 -0.19c-5.48,-0.02 -9.79,4.49 -9.79,9.79l0 83.44 49.17 0c18.41,0 29.17,-15.27 29.17,-29.17 0,-10.58 -5.89,-20.18 -14.49,-25.27l0 0 0 0.19 0.02 0 -0 0zm-25.86 -31.55c13.12,0 21.54,7.84 21.54,18.61 0,14.31 -10.78,20.77 -21.54,20.77 -10.19,0 -18.61,-8.42 -18.61,-21.54l0 -7.23c0,-4.71 -2.74,-9.01 -7.26,-10.37l0 -0.4 25.85 0 0 0 0 0.19 0.02 0 0.02 -0.02z"/>
   </g>
  </g>
 </g>
</svg>
