<?xml version="1.0" encoding="UTF-8"?>
<!DOCTYPE svg PUBLIC "-//W3C//DTD SVG 1.1//EN" "http://www.w3.org/Graphics/SVG/1.1/DTD/svg11.dtd">
<!-- Creator: CorelDRAW 2021.5 -->
<svg xmlns="http://www.w3.org/2000/svg" xml:space="preserve" width="3.5008in" height="0.77222in" version="1.1" style="shape-rendering:geometricPrecision; text-rendering:geometricPrecision; image-rendering:optimizeQuality; fill-rule:evenodd; clip-rule:evenodd"
viewBox="0 0 468.74 103.4"
 xmlns:xlink="http://www.w3.org/1999/xlink"
 xmlns:xodm="http://www.corel.com/coreldraw/odm/2003">
 <defs>
  <style type="text/css">
   <![CDATA[
    .fil0 {fill:white;fill-rule:nonzero}
   ]]>
  </style>
 </defs>
 <g id="Layer_x0020_1">
  <metadata id="CorelCorpID_0Corel-Layer"/>
  <g id="_2871098576048">
   <path class="fil0" d="M51.7 0l31.71 31.61 -11.72 11.71 -19.99 -19.99 -19.99 20.1 -11.72 -11.71 31.71 -31.71zm-39.99 39.98l11.61 11.71 -11.6 11.61 -11.72 -11.61 11.71 -11.71 -0.01 0zm39.99 0.01l11.71 11.6 -11.71 11.72 -11.71 -11.61 11.71 -11.71 0.01 0 -0.01 0zm39.98 -0.01l11.81 11.71 -11.71 11.71 -11.71 -11.71 11.61 -11.71 -0 0zm-20 20l11.72 11.71 -31.71 31.71 -31.71 -31.7 11.72 -11.71 19.99 20.1 19.99 -20.1z"/>
   <path class="fil0" d="M123.32 82.67l0 -58 28.34 0c7.29,0 12.77,1.38 16.45,4.14 3.67,2.76 5.51,6.41 5.51,10.94 0,3.04 -0.75,5.68 -2.24,7.91 -1.49,2.24 -3.54,3.96 -6.13,5.18 -2.6,1.22 -5.58,1.82 -8.95,1.82l1.57 -3.4c3.65,0 6.88,0.59 9.69,1.78 2.82,1.19 5.01,2.94 6.59,5.26 1.57,2.32 2.36,5.16 2.36,8.53 0,4.97 -1.96,8.85 -5.88,11.64 -3.92,2.79 -9.69,4.18 -17.32,4.18l-29.99 0zm13.34 -10.11l15.66 0c3.48,0 6.12,-0.57 7.91,-1.7 1.8,-1.13 2.69,-2.94 2.69,-5.43 0,-2.43 -0.9,-4.24 -2.69,-5.43 -1.79,-1.19 -4.43,-1.78 -7.91,-1.78l-16.65 0 0 -9.78 14.33 0c3.26,0 5.76,-0.57 7.5,-1.7 1.74,-1.13 2.61,-2.86 2.61,-5.18 0,-2.26 -0.87,-3.96 -2.61,-5.1 -1.74,-1.13 -4.24,-1.7 -7.5,-1.7l-13.34 0 0 37.78zm49.13 10.11l0 -44.57 12.93 0 0 44.57 -12.93 0zm6.46 -50.79c-2.38,0 -4.31,-0.69 -5.8,-2.07 -1.49,-1.38 -2.24,-3.09 -2.24,-5.14 0,-2.04 0.75,-3.76 2.24,-5.14 1.49,-1.38 3.42,-2.07 5.8,-2.07 2.38,0 4.31,0.65 5.8,1.95 1.49,1.3 2.24,2.97 2.24,5.01 0,2.15 -0.73,3.94 -2.2,5.34 -1.46,1.41 -3.41,2.11 -5.84,2.11zm18.48 50.79l0 -44.57 12.34 0 0 12.35 -2.32 -3.73c1.6,-2.98 3.89,-5.27 6.88,-6.88 2.98,-1.6 6.38,-2.4 10.19,-2.4 3.54,0 6.7,0.7 9.49,2.11 2.79,1.41 4.98,3.56 6.59,6.46 1.6,2.9 2.4,6.61 2.4,11.14l0 25.52 -12.93 0 0 -23.53c0,-3.59 -0.79,-6.24 -2.36,-7.95 -1.57,-1.71 -3.8,-2.57 -6.67,-2.57 -2.04,0 -3.88,0.43 -5.51,1.28 -1.63,0.86 -2.9,2.17 -3.81,3.93 -0.91,1.77 -1.37,4.03 -1.37,6.79l0 22.04 -12.93 0zm84.59 0l0 -8.7 -0.83 -1.91 0 -15.58c0,-2.76 -0.84,-4.92 -2.53,-6.46 -1.68,-1.55 -4.27,-2.32 -7.75,-2.32 -2.38,0 -4.71,0.37 -7,1.12 -2.29,0.75 -4.24,1.75 -5.84,3.02l-4.64 -9.03c2.43,-1.71 5.36,-3.04 8.78,-3.98 3.42,-0.94 6.9,-1.41 10.44,-1.41 6.79,0 12.07,1.6 15.83,4.81 3.76,3.2 5.63,8.2 5.63,15l0 25.44 -12.1 0zm-13.59 0.66c-3.48,0 -6.46,-0.59 -8.95,-1.78 -2.49,-1.19 -4.39,-2.8 -5.72,-4.85 -1.33,-2.04 -1.99,-4.34 -1.99,-6.88 0,-2.65 0.65,-4.97 1.95,-6.96 1.3,-1.99 3.36,-3.55 6.17,-4.68 2.82,-1.13 6.49,-1.7 11.02,-1.7l11.85 0 0 7.54 -10.44 0c-3.04,0 -5.12,0.5 -6.26,1.49 -1.13,0.99 -1.7,2.24 -1.7,3.73 0,1.66 0.65,2.97 1.95,3.94 1.3,0.97 3.08,1.45 5.34,1.45 2.15,0 4.09,-0.51 5.8,-1.53 1.71,-1.02 2.96,-2.53 3.73,-4.52l1.99 5.97c-0.94,2.87 -2.65,5.05 -5.14,6.55 -2.49,1.49 -5.69,2.24 -9.61,2.24zm37.37 -0.66l0 -44.57 12.34 0 0 12.35 -2.32 -3.73c1.6,-2.98 3.89,-5.27 6.88,-6.88 2.98,-1.6 6.38,-2.4 10.19,-2.4 3.54,0 6.7,0.7 9.49,2.11 2.79,1.41 4.98,3.56 6.59,6.46 1.6,2.9 2.4,6.61 2.4,11.14l0 25.52 -12.92 0 0 -23.53c0,-3.59 -0.79,-6.24 -2.36,-7.95 -1.57,-1.71 -3.8,-2.57 -6.67,-2.57 -2.04,0 -3.88,0.43 -5.51,1.28 -1.63,0.86 -2.9,2.17 -3.81,3.93 -0.91,1.77 -1.37,4.03 -1.37,6.79l0 22.04 -12.93 0zm79.12 0.66c-4.81,0 -9.09,-0.98 -12.84,-2.94 -3.76,-1.96 -6.7,-4.68 -8.82,-8.16 -2.13,-3.48 -3.19,-7.43 -3.19,-11.85 0,-4.47 1.06,-8.44 3.19,-11.89 2.13,-3.45 5.07,-6.16 8.82,-8.12 3.76,-1.96 8.04,-2.94 12.84,-2.94 4.69,0 8.78,0.98 12.26,2.94 3.48,1.96 6.05,4.76 7.71,8.41l-10.03 5.38c-1.16,-2.1 -2.61,-3.65 -4.35,-4.64 -1.74,-0.99 -3.63,-1.49 -5.68,-1.49 -2.21,0 -4.2,0.5 -5.97,1.49 -1.77,0.99 -3.16,2.4 -4.18,4.23 -1.02,1.82 -1.53,4.03 -1.53,6.63 0,2.6 0.51,4.81 1.53,6.63 1.02,1.82 2.42,3.23 4.18,4.23 1.77,0.99 3.76,1.49 5.97,1.49 2.04,0 3.94,-0.48 5.68,-1.45 1.74,-0.97 3.19,-2.53 4.35,-4.68l10.03 5.47c-1.66,3.59 -4.23,6.37 -7.71,8.33 -3.48,1.96 -7.57,2.94 -12.26,2.94zm48.97 0c-5.08,0 -9.54,-0.99 -13.38,-2.98 -3.84,-1.99 -6.81,-4.71 -8.91,-8.16 -2.1,-3.45 -3.15,-7.39 -3.15,-11.81 0,-4.47 1.04,-8.44 3.11,-11.89 2.07,-3.45 4.9,-6.16 8.49,-8.12 3.59,-1.96 7.65,-2.94 12.18,-2.94 4.36,0 8.3,0.93 11.81,2.78 3.51,1.85 6.28,4.5 8.33,7.95 2.04,3.45 3.07,7.58 3.07,12.39 0,0.5 -0.03,1.06 -0.08,1.7 -0.06,0.64 -0.11,1.23 -0.17,1.78l-36.21 0 0 -7.54 29.41 0 -4.97 2.24c0,-2.32 -0.47,-4.34 -1.41,-6.05 -0.94,-1.71 -2.24,-3.05 -3.89,-4.02 -1.66,-0.97 -3.59,-1.45 -5.8,-1.45 -2.21,0 -4.16,0.48 -5.84,1.45 -1.68,0.97 -3,2.32 -3.94,4.06 -0.94,1.74 -1.41,3.8 -1.41,6.17l0 1.99c0,2.43 0.54,4.57 1.62,6.42 1.08,1.85 2.6,3.26 4.56,4.23 1.96,0.97 4.27,1.45 6.92,1.45 2.37,0 4.46,-0.36 6.26,-1.08 1.8,-0.72 3.44,-1.79 4.93,-3.23l6.88 7.46c-2.04,2.32 -4.61,4.1 -7.71,5.34 -3.09,1.24 -6.66,1.86 -10.69,1.86z"/>
  </g>
 </g>
</svg>
