<?xml version="1.0" encoding="UTF-8"?>
<!DOCTYPE svg PUBLIC "-//W3C//DTD SVG 1.1//EN" "http://www.w3.org/Graphics/SVG/1.1/DTD/svg11.dtd">
<!-- Creator: CorelDRAW 2021.5 -->
<svg xmlns="http://www.w3.org/2000/svg" xml:space="preserve" width="2.88812in" height="0.772898in" version="1.1" style="shape-rendering:geometricPrecision; text-rendering:geometricPrecision; image-rendering:optimizeQuality; fill-rule:evenodd; clip-rule:evenodd"
viewBox="0 0 245.07 65.58"
 xmlns:xlink="http://www.w3.org/1999/xlink"
 xmlns:xodm="http://www.corel.com/coreldraw/odm/2003">
 <defs>
  <style type="text/css">
   <![CDATA[
    .fil0 {fill:white}
   ]]>
  </style>
 </defs>
 <g id="Layer_x0020_1">
  <metadata id="CorelCorpID_0Corel-Layer"/>
  <g id="_2871319100592">
   <g id="_1594057507504">
    <g id="Layer_x0020_1_0">
     <g id="_2806188266256">
      <path class="fil0" d="M244.1 19.09c0.33,0 0.54,0.11 0.76,0.22 0.22,0.22 0.22,0.43 0.22,0.76l0 6.04c0,0.32 -0.11,0.54 -0.22,0.76 -0.22,0.22 -0.43,0.22 -0.76,0.22l-5.28 0 0 24.16c0,0.33 -0.11,0.54 -0.22,0.76 -0.22,0.22 -0.43,0.22 -0.76,0.22l-7.87 0c-0.33,0 -0.54,-0.11 -0.76,-0.22 -0.22,-0.22 -0.22,-0.43 -0.22,-0.76l0 -24.16 -5.28 0c-0.32,0 -0.54,-0.11 -0.76,-0.22 -0.22,-0.22 -0.22,-0.43 -0.22,-0.76l0 -6.04c0,-0.33 0.11,-0.54 0.22,-0.76 0.22,-0.22 0.43,-0.22 0.76,-0.22l5.28 0 0 -8.52c0,-0.33 0.11,-0.54 0.22,-0.76 0.22,-0.22 0.43,-0.22 0.76,-0.22l7.87 0c0.32,0 0.54,0.11 0.76,0.22 0.22,0.22 0.22,0.43 0.22,0.76l0 8.52 5.28 0z"/>
      <path class="fil0" d="M221.34 35.17c0,1.51 -0.11,2.59 -0.43,3.23 -0.33,0.65 -0.97,0.97 -1.94,0.97l-19.63 0c0.43,1.83 1.4,3.13 2.81,4.1 1.4,0.86 3.23,1.29 5.5,1.29 1.08,0 2.16,-0.11 3.13,-0.43 0.97,-0.33 2.05,-0.86 3.13,-1.51 0.22,-0.22 0.43,-0.22 0.76,-0.22 0.22,0 0.43,0.11 0.76,0.43l3.45 3.34c0.22,0.22 0.22,0.43 0.22,0.65 0,0.22 -0.11,0.54 -0.43,0.76 -1.62,1.62 -3.45,2.81 -5.5,3.77 -2.05,0.86 -4.21,1.29 -6.58,1.29 -3.34,0 -6.26,-0.76 -8.95,-2.27 -2.59,-1.51 -4.64,-3.56 -6.04,-6.15 -1.4,-2.59 -2.16,-5.39 -2.16,-8.52 0,-3.13 0.76,-5.93 2.16,-8.52 1.4,-2.59 3.45,-4.64 5.93,-6.04 2.48,-1.51 5.28,-2.27 8.41,-2.27 3.02,0 5.72,0.76 8.09,2.16 2.37,1.51 4.1,3.45 5.39,5.93 1.29,2.48 1.94,5.18 1.94,8.2l0 -0.22 -0 0.01zm-15.31 -7.87c-1.72,0 -3.23,0.54 -4.42,1.51 -1.18,0.97 -2.05,2.37 -2.37,4.1l13.37 0c-0.33,-1.83 -1.08,-3.23 -2.27,-4.1 -1.18,-0.97 -2.59,-1.51 -4.32,-1.51z"/>
      <path class="fil0" d="M185.1 19.63c0.33,0 0.54,0.11 0.76,0.22 0.22,0.22 0.22,0.43 0.22,0.76l0 31.49c0,3.23 -0.86,5.93 -2.59,7.87 -1.72,2.05 -3.88,3.45 -6.58,4.32 -2.59,0.86 -5.28,1.29 -8.09,1.29 -2.81,0 -5.39,-0.43 -7.98,-1.18 -2.48,-0.76 -4.64,-1.83 -6.37,-3.13 -0.22,-0.22 -0.43,-0.43 -0.43,-0.76 0,-0.22 0,-0.43 0.11,-0.65l2.59 -4.64c0.22,-0.32 0.54,-0.54 0.76,-0.54 0.22,0 0.43,0 0.54,0.11 1.51,0.86 3.02,1.51 4.64,1.94 1.62,0.43 3.45,0.65 5.39,0.65 2.27,0 4.32,-0.54 6.15,-1.51 1.83,-0.97 2.81,-2.48 2.81,-4.75l0 -3.13c-2.59,2.91 -5.72,4.42 -9.49,4.42 -2.91,0 -5.61,-0.76 -7.98,-2.27 -2.37,-1.51 -4.21,-3.56 -5.61,-6.15 -1.29,-2.59 -1.94,-5.39 -1.94,-8.41 0,-3.02 0.65,-5.82 1.94,-8.42 1.4,-2.59 3.23,-4.64 5.61,-6.15 2.37,-1.51 5.07,-2.27 7.98,-2.27 3.56,0 6.69,1.4 9.27,4.32l0.22 -2.59c0.11,-0.65 0.43,-0.97 0.97,-0.97l7.22 0 -0.11 0.11 -0.01 0zm-16.4 23.84c2.05,0 3.77,-0.76 5.18,-2.37 1.4,-1.51 2.16,-3.34 2.16,-5.39 0,-2.05 -0.76,-3.88 -2.16,-5.39 -1.4,-1.51 -3.13,-2.37 -5.18,-2.37 -2.05,0 -3.77,0.76 -5.18,2.27 -1.4,1.51 -2.16,3.23 -2.16,5.39 0,2.16 0.65,3.99 2.05,5.5 1.4,1.51 3.13,2.16 5.28,2.16l0 0.22 0 -0.01z"/>
      <path class="fil0" d="M148.64 19.09c0.32,0 0.54,0.11 0.76,0.22 0.22,0.22 0.22,0.43 0.22,0.76l0 6.04c0,0.32 -0.11,0.54 -0.22,0.76 -0.22,0.22 -0.43,0.22 -0.76,0.22l-5.28 0 0 24.16c0,0.33 -0.11,0.54 -0.22,0.76 -0.22,0.22 -0.43,0.22 -0.76,0.22l-7.87 0c-0.32,0 -0.54,-0.11 -0.76,-0.22 -0.22,-0.22 -0.22,-0.43 -0.22,-0.76l0 -24.16 -5.28 0c-0.33,0 -0.54,-0.11 -0.76,-0.22 -0.22,-0.22 -0.22,-0.43 -0.22,-0.76l0 -6.04c0,-0.33 0.11,-0.54 0.22,-0.76 0.22,-0.22 0.43,-0.22 0.76,-0.22l5.28 0 0 -8.52c0,-0.33 0.11,-0.54 0.22,-0.76 0.22,-0.22 0.43,-0.22 0.76,-0.22l7.87 0c0.33,0 0.54,0.11 0.76,0.22 0.22,0.22 0.22,0.43 0.22,0.76l0 8.52 5.28 0z"/>
      <path class="fil0" d="M118.56 16.4c-1.51,0 -2.81,-0.54 -3.77,-1.51 -0.97,-1.08 -1.51,-2.37 -1.51,-3.77 0,-1.51 0.54,-2.81 1.51,-3.77 0.97,-1.08 2.27,-1.62 3.77,-1.62 1.51,0 2.81,0.54 3.77,1.62 0.97,1.08 1.51,2.27 1.51,3.77 0,1.51 -0.54,2.7 -1.51,3.77 -0.97,1.08 -2.27,1.51 -3.77,1.51zm-4.96 3.67c0,-0.33 0.11,-0.54 0.22,-0.76 0.22,-0.22 0.43,-0.22 0.76,-0.22l7.87 0c0.33,0 0.54,0.11 0.76,0.22 0.22,0.22 0.22,0.43 0.22,0.76l0 31.28c0,0.33 -0.11,0.54 -0.22,0.76 -0.22,0.22 -0.43,0.22 -0.76,0.22l-7.87 0c-0.33,0 -0.54,-0.11 -0.76,-0.22 -0.22,-0.22 -0.22,-0.43 -0.22,-0.76l0 -31.28z"/>
      <path class="fil0" d="M100.87 27.4c2.48,0.65 4.53,2.05 6.37,4.1 1.83,2.05 2.7,4.53 2.7,7.44 0,4.53 -1.4,7.87 -4.32,10.14 -2.81,2.27 -7.12,3.34 -12.95,3.34l-16.29 0c-0.32,0 -0.54,-0.11 -0.76,-0.22 -0.22,-0.22 -0.22,-0.43 -0.22,-0.76l0 -44.87c0,-0.33 0.11,-0.54 0.22,-0.76 0.22,-0.22 0.43,-0.33 0.76,-0.33l16.18 0c2.91,0 5.39,0.54 7.44,1.62 2.16,1.08 3.67,2.48 4.75,4.32 1.08,1.83 1.62,3.88 1.62,6.15 0,2.37 -0.54,4.32 -1.62,6.04 -1.08,1.72 -2.37,2.91 -3.99,3.67l0.11 0.11 0 -0.01zm-3.99 -8.41c0,-2.81 -1.72,-4.32 -5.18,-4.32l-6.04 0 0 8.95 6.04 0c1.62,0 2.91,-0.43 3.88,-1.18 0.97,-0.76 1.4,-1.94 1.4,-3.56l-0.11 0.11zm-3.88 24.27c2.05,0 3.67,-0.43 4.86,-1.4 1.18,-0.97 1.83,-2.37 1.83,-4.21 0,-1.83 -0.65,-3.13 -1.83,-3.99 -1.18,-0.86 -2.81,-1.29 -4.86,-1.29l-7.44 0 0 11 7.44 0 0 -0.11z"/>
      <path class="fil0" d="M18.91 1.4c0.86,-0.86 2.05,-1.4 3.23,-1.4l7.98 0c0.97,0 1.51,1.18 0.86,1.94l-15.75 16.83 8.74 0 8.85 9.38 -17.58 0 17.58 18.77 -10.57 0c-1.18,0 -2.37,-0.54 -3.23,-1.4l-17.8 -18.99c-1.62,-1.72 -1.62,-4.32 0,-6.04l17.8 -18.99 -0.11 -0.11 0 0.01z"/>
      <path class="fil0" d="M43.38 64.18c-0.86,0.86 -2.05,1.4 -3.23,1.4l-7.98 0c-0.97,0 -1.51,-1.18 -0.86,-1.94l15.75 -16.83 -8.74 0 -8.85 -9.38 17.58 0 -17.57 -18.77 10.57 0c1.18,0 2.37,0.54 3.23,1.4l17.8 18.99c1.62,1.72 1.62,4.32 0,6.04l-17.81 18.99 0.11 0.11 -0.01 -0.01z"/>
     </g>
    </g>
   </g>
  </g>
 </g>
</svg>
