<?xml version="1.0" encoding="UTF-8"?>
<!DOCTYPE svg PUBLIC "-//W3C//DTD SVG 1.1//EN" "http://www.w3.org/Graphics/SVG/1.1/DTD/svg11.dtd">
<!-- Creator: CorelDRAW 2021.5 -->
<svg xmlns="http://www.w3.org/2000/svg" xml:space="preserve" width="4.36667in" height="1.01867in" version="1.1" style="shape-rendering:geometricPrecision; text-rendering:geometricPrecision; image-rendering:optimizeQuality; fill-rule:evenodd; clip-rule:evenodd"
viewBox="0 0 396.09 92.4"
 xmlns:xlink="http://www.w3.org/1999/xlink"
 xmlns:xodm="http://www.corel.com/coreldraw/odm/2003">
 <defs>
  <style type="text/css">
   <![CDATA[
    .fil0 {fill:white}
   ]]>
  </style>
 </defs>
 <g id="Layer_x0020_1">
  <metadata id="CorelCorpID_0Corel-Layer"/>
  <g id="_2871332434960">
   <path class="fil0" d="M0.68 88.82l5.52 0 0 3.51 -5.52 0 0 -3.51zm366.58 -47.52c-1.43,-0.89 -3.53,-1.36 -6.27,-1.36 -1.68,-0.03 -3.35,0.33 -4.89,1.03 -1.54,0.7 -2.88,1.73 -3.98,3.04 -2.36,2.69 -3.56,6.38 -3.56,11.04l0 21.35 -8.28 0 0 -41.89 8.28 0 0 8.63 0.21 0c1.07,-2.8 2.95,-5.21 5.42,-6.88 2.39,-1.62 5.22,-2.5 8.12,-2.48 1.66,-0.07 3.34,0.12 4.94,0.58l0 0.16 7.53 0 0 -10.22 8.28 -2.17 0 12.39 13.02 0 0 5.73 -13.02 0 0 23.6c0,2.81 0.59,4.82 1.76,6.01 1.17,1.21 3.13,1.8 5.85,1.8 1.89,0.05 3.77,-0.42 5.42,-1.38l-0.02 5.73c-1.96,0.87 -4.52,1.31 -7.72,1.31 -9.05,0 -13.59,-4.09 -13.57,-12.26l0 -24.79 -7.53 0 0 1.08 0.02 -0.03zm-59.17 15.29l12.47 -1.38 0.03 4.16c0.03,1.68 -0.31,3.35 -1,4.87 -0.7,1.54 -1.73,2.88 -3.02,3.97 -2.67,2.34 -6.06,3.49 -10.17,3.49 -2.99,0 -5.38,-0.65 -7.2,-1.94 -0.84,-0.54 -1.52,-1.29 -1.99,-2.15 -0.47,-0.87 -0.72,-1.85 -0.72,-2.85 0.02,-2.81 1,-4.77 2.94,-5.87 1.9,-1.08 4.8,-1.85 8.65,-2.29l-0 -0.02zm12.46 19.79l8.3 0 0 -27.24c0,-10.41 -6.08,-15.62 -18.22,-15.62 -6.64,0 -12.51,1.31 -17.58,3.91l0 6.87c4.96,-3.42 10.85,-5.22 16.88,-5.15 7.09,0 10.66,3.56 10.66,10.67l-15.5 1.76c-11.37,1.28 -17.07,5.82 -17.07,13.66 -0.05,1.71 0.33,3.41 1.1,4.94 0.77,1.54 1.89,2.85 3.28,3.84 2.92,2.2 6.95,3.32 12.09,3.32 6.99,0 12.28,-2.5 15.92,-7.53l0.19 0 0 6.55 -0.02 0 -0.03 0zm-42.07 0l-7.76 0 0 -36.2c0.03,-3.51 0.26,-7.02 0.65,-10.5l-0.17 0c-0.49,1.8 -1.15,3.56 -1.99,5.22l-22.75 41.47 -3.79 0 -22.75 -41.16c-0.87,-1.76 -1.54,-3.62 -2.01,-5.54l-0.17 0c0.31,3.51 0.42,7.06 0.37,10.57l0 36.11 -7.56 0 0 -53.95 10.29 0 20.44 37.61c1.21,2.08 2.22,4.23 3.07,6.48l0.28 0c1.33,-2.95 2.39,-5.17 3.2,-6.62l20.86 -37.47 9.77 0 0.03 53.95 -0 0.02zm-82.93 0.89c3.2,0 5.78,-0.42 7.72,-1.31l0.02 -5.73c-1.64,0.96 -3.53,1.43 -5.42,1.38 -2.73,0 -4.68,-0.61 -5.85,-1.8 -1.17,-1.21 -1.76,-3.2 -1.76,-6.01l0 -23.62 13.02 0 0 -5.73 -13.02 0 0 -12.39 -8.28 2.17 0 10.22 -8.89 0 0 5.73 8.89 0 0 24.79c0,8.18 4.52,12.26 13.57,12.26l0 0.03zm-82.72 -28.21l0 21.1 11.51 0c4.98,0 8.84,-0.94 11.58,-2.85 1.31,-0.86 2.36,-2.01 3.09,-3.39 0.72,-1.36 1.08,-2.92 1.03,-4.47 0,-6.92 -5.82,-10.38 -17.47,-10.38l-9.73 0 -0.02 -0.02zm0 -25.12l0 18.94 8.67 0c4.65,0 8.3,-0.89 10.95,-2.71 1.28,-0.82 2.32,-1.96 3,-3.32 0.7,-1.35 1.05,-2.85 0.98,-4.35 0,-5.7 -4.63,-8.56 -13.89,-8.56l-9.71 0zm-8.47 52.43l0 -58.65 20.6 0c6.27,0 11.23,1.24 14.9,3.72 3.67,2.48 5.5,5.71 5.5,9.7 0.05,3.21 -1.14,6.32 -3.34,8.68 -2.22,2.46 -5.29,4.21 -9.21,5.24l0 0.16c4.87,0.45 8.79,1.96 11.72,4.47 1.42,1.21 2.57,2.71 3.34,4.4 0.77,1.69 1.12,3.56 1.08,5.42 0,5.03 -2.22,9.08 -6.66,12.19 -4.44,3.09 -10.03,4.65 -16.79,4.66l-21.14 0 -0.02 0zm62.32 0l-8.3 0 0 -41.88 8.3 0 0 41.88zm-4.04 -52.52c-1.36,0.03 -2.71,-0.38 -3.79,-1.22 -0.49,-0.37 -0.87,-0.82 -1.15,-1.36 -0.28,-0.54 -0.4,-1.14 -0.4,-1.75 0,-0.61 0.12,-1.21 0.4,-1.75 0.28,-0.54 0.66,-1.01 1.15,-1.36 1.08,-0.86 2.41,-1.29 3.79,-1.24 1.38,-0.05 2.76,0.38 3.86,1.24 0.49,0.35 0.89,0.82 1.17,1.36 0.28,0.54 0.42,1.14 0.42,1.75 0,0.61 -0.14,1.21 -0.42,1.75 -0.28,0.54 -0.68,1 -1.17,1.36 -1.12,0.86 -2.48,1.31 -3.86,1.26l0 -0.03zm-93.01 40.81c0,4.65 -2.25,8.14 -5.57,9.91 -3.32,1.75 -7.98,2.76 -15.9,2.76l-48.15 0 0 -2.31 47.92 0c7.3,0 12.21,-1.17 14.62,-2.5 2.66,-1.45 4.45,-4.96 4.45,-7.9 0,-4.59 -3.09,-7.01 -5.42,-8.37 -1.19,-0.7 -5.14,-2.48 -15.51,-2.48l-18.27 0 0 -2.31 18.71 0c11.72,0 14.22,1.15 17.05,2.87 3.02,1.85 6.06,5.1 6.06,10.31l0 0.02zm-21.19 -36.18l-16.65 0 0 1.92 16.65 0 0 -1.92zm-33.94 -5.9l34.59 0 0 1.92 -34.59 0 0 -1.92zm12.02 5.9l-20.89 0 0 1.92 20.89 0 0 -1.92zm-14.54 -13.24l9.12 0 0 1.66 -9.12 0 0 -1.66zm16.26 66.79l-22.03 0 0 2.41 22.03 0 0 -2.41zm-22.03 -15.39l23.41 0 0 2.01 -23.41 0 0 -2.01zm12.51 -7.2l-7.7 0 0 2.03 7.7 0 0 -2.03zm15.18 7.34l15.15 0 0 1.73 -15.15 0 0 -1.73zm15.29 -7.34l-26.03 0 0 2.03 26.03 0 0 -2.03zm18.61 -30.66c-0.02,4.47 -1.36,8.84 -3.86,12.54 -0.33,-0.17 -0.65,-0.37 -0.96,-0.54 3.09,-3.25 4.82,-7.56 4.82,-12.02l0 0.02zm0 -0.47c0,0.14 0,0.31 0,0.45 0,-0.14 0,-0.3 0,-0.45zm-0.54 15.27l0 0 -0.12 -0.1c2.88,-4.16 4.33,-9.22 4.33,-15.18 0,-8.84 -3.04,-15.76 -9.1,-20.77 -6.08,-5.01 -14.41,-7.53 -25.05,-7.51l-26.47 0 0 3.7 26 0c9.05,0 17.1,2.01 22.2,6.18 4.75,3.88 6.5,7.22 7.9,12.23 -1.42,-4.56 -4.75,-7.49 -6.81,-9.22 -3.62,-3.06 -8.12,-5.17 -20.41,-5.17l-20.42 0 0 3.6 19.97 0c10.46,0 14.31,1.29 17.84,3.9 4.51,3.34 7.3,7.32 7.3,13.09 0,5.19 -1.83,7.97 -4.87,10.83 -0.37,-0.14 -0.72,-0.28 -1.08,-0.4l0.35 -0.17c3.32,-1.83 5.59,-5.33 5.59,-10.27 0,-5.38 -3.09,-8.75 -6.11,-10.66 -2.85,-1.78 -5.54,-2.97 -17.03,-2.97l-14.69 0 0 2.38 14.26 0c10.39,0 14.33,1.85 15.51,2.59 2.34,1.43 5.42,3.91 5.42,8.68 0,3.04 -1.8,6.69 -4.44,8.18 -0.87,0.47 -1.76,0.87 -2.71,1.14 -3.95,-0.89 -7.98,-1.33 -12.02,-1.29l-17.7 0 0 3.72 17.23 0c9.05,0 17.23,1.85 22.2,6.18 3.77,3.21 6.52,7.46 7.88,12.21 -1.4,-4.56 -4.31,-7.32 -6.81,-9.22 -3.79,-2.87 -8.12,-5.19 -20.41,-5.17l-27.74 0 0 3.6 27.31 0c10.46,0 14.29,1.29 17.82,3.9 4.51,3.34 7.27,7.32 7.27,13.09 0,5.56 -2.8,9.59 -7.32,12.95 -4.63,3.41 -11.72,3.53 -14.59,3.53l-15.18 0 0 3.6 11.34 0c9.5,0 15.83,-0.82 21.31,-4.87 5.14,-3.84 7.88,-8.79 7.88,-15.18 0.05,3.42 -0.68,6.81 -2.15,9.92 -1.47,3.09 -3.62,5.82 -6.32,7.97 -5.19,4.3 -14.47,6.18 -23.74,6.18l-29.84 0 0 3.69 30.07 0c11.2,0 19.95,-2.43 26.21,-7.3 6.29,-4.86 9.43,-11.71 9.43,-20.49 -0.02,-8.84 -3.07,-15.78 -9.14,-20.79 -0.1,-0.12 -0.21,-0.21 -0.35,-0.3l0.03 0.05z"/>
  </g>
 </g>
</svg>
