<?xml version="1.0" encoding="UTF-8"?>
<!DOCTYPE svg PUBLIC "-//W3C//DTD SVG 1.1//EN" "http://www.w3.org/Graphics/SVG/1.1/DTD/svg11.dtd">
<!-- Creator: CorelDRAW 2021.5 -->
<svg xmlns="http://www.w3.org/2000/svg" xml:space="preserve" width="3.88077in" height="1.0665in" version="1.1" style="shape-rendering:geometricPrecision; text-rendering:geometricPrecision; image-rendering:optimizeQuality; fill-rule:evenodd; clip-rule:evenodd"
viewBox="0 0 524.94 144.26"
 xmlns:xlink="http://www.w3.org/1999/xlink"
 xmlns:xodm="http://www.corel.com/coreldraw/odm/2003">
 <defs>
  <style type="text/css">
   <![CDATA[
    .fil0 {fill:white;fill-rule:nonzero}
   ]]>
  </style>
 </defs>
 <g id="Layer_x0020_1">
  <metadata id="CorelCorpID_0Corel-Layer"/>
  <g id="_2869840920736">
   <g id="_1555312107024">
    <g id="Layer_x0020_1_0">
     <g id="_1942034063664">
      <g id="页面-2">
       <g id="WEB_demo0120">
        <g id="_1">
         <path id="形状" class="fil0" d="M94.66 99.17l0 45.09 -45.07 0 0 -45.09 45.07 0zm230.59 -51.69c14.91,0 22.16,11.34 22.16,25.16 0,12.74 -6.39,24.72 -20.4,24.72 -5.85,0 -12.14,-2.07 -15.51,-6.96l-0.31 -0.47 -0.18 0 0 23.61 -10.43 0 0 -64.79 9.89 0 0 6.39 0.18 0c2.93,-5.38 8.59,-7.69 14.63,-7.69l0 0 -0.03 0.03zm-106.16 0c14.73,0 23.84,13.12 22.39,27.1l-0.05 0.52 -34.76 0c0,7.4 4.04,14 12.74,14 5.85,0 9.47,-2.51 11.36,-7.4l0.16 -0.47 9.89 0c-2.28,10.33 -11.05,16.1 -21.41,16.1 -14.83,0 -23.14,-10.33 -23.14,-24.88 0,-13.46 8.78,-24.98 22.86,-24.98l0 0 -0.03 0zm50.89 0c14.73,0 23.84,13.12 22.39,27.1l-0.05 0.52 -34.76 0c0,7.4 4.04,14 12.74,14 5.85,0 9.47,-2.51 11.36,-7.4l0.18 -0.47 9.89 0c-2.28,10.33 -11.05,16.1 -21.41,16.1 -14.83,0 -23.14,-10.33 -23.14,-24.88 -0.03,-13.46 8.78,-24.98 22.86,-24.98l0 0 -0.05 0zm107.24 0c10.79,0 19.98,5.31 21.28,16.52l0.05 0.57 -10.43 0c-0.83,-5.77 -5.05,-8.88 -10.79,-8.88l-0.49 0c-0.08,0 -0.16,0 -0.26,0l-0.52 0.05c-0.08,0 -0.16,0.03 -0.28,0.03l-0.52 0.05c-0.18,0.03 -0.36,0.05 -0.54,0.08l-0.54 0.1c-4.79,1.09 -9.84,5.15 -9.84,16.85 0,7.87 3.49,16.18 12.53,16.18 5.9,0 10.04,-3.83 11.18,-10.3l0.08 -0.49 10.43 0c-1.92,12.27 -9.5,19.03 -21.69,19.03 -14.83,0 -22.96,-10.51 -22.96,-24.41 0.03,-14.24 7.79,-25.39 23.35,-25.39l0 0 -0.03 0.03zm51.51 0c15.17,0 23.87,10.43 23.87,24.88 0,14.55 -8.7,24.98 -23.87,24.98 -15.17,0 -23.87,-10.43 -23.87,-24.98 0,-14.47 8.7,-24.88 23.87,-24.88l0 0zm-267.74 -16.75c19.91,0 28.63,14.31 28.84,32.07l0 0.62c0,17.84 -8.52,32.33 -28.16,32.64l-0.67 0 -27.08 0 0 -65.34 27.08 0 0 0zm311.02 18.04l0 47.32 -10.43 0 0 -47.32 10.43 0zm36.16 -1.27c10.07,0 16.52,5.28 16.75,15.56l0 0.54 0 32.49 -10.43 0 0 -29.74c-0.18,-7.4 -3.11,-10.61 -9.24,-10.61 -6.81,0 -11.26,5.25 -11.42,12.01l0 0.44 0 27.9 -10.43 0 0 -47.32 9.89 0 0 6.96 0.18 0.18c3.08,-5.23 8.49,-8.41 14.73,-8.41l0 0 -0.03 0zm-463.1 2.12l0 45.09 -45.09 0 0 -45.09 45.09 0 0 0zm49.57 0c0,24.64 -19.78,44.68 -44.32,45.09l-0.75 0 0 -45.09 45.09 0 0 0 -0.03 0zm229.22 6.11c-8.78,0 -13.28,6.68 -13.28,16.75 0,9.5 4.84,16.64 13.28,16.64 9.5,0 13.07,-8.41 13.07,-16.64 0.03,-8.59 -4.48,-16.75 -13.07,-16.75l0 0zm104.86 0c-9.32,0 -13.46,8.52 -13.46,16.64 0,8.23 4.12,16.75 13.46,16.75 9.32,0 13.46,-8.52 13.46,-16.75 0,-8.15 -4.12,-16.64 -13.46,-16.64l0 0zm-272.11 -15.63l-11.26 0 0 46.65 11.26 0c13.85,0 19.29,-6.08 21.05,-14.88l0.16 -0.83c0.03,-0.16 0.05,-0.28 0.05,-0.41l0.13 -0.85c0.03,-0.16 0.05,-0.28 0.05,-0.44l0.1 -0.88c0.03,-0.16 0.03,-0.28 0.05,-0.44l0.05 -0.91c0,-0.16 0.03,-0.28 0.03,-0.47l0.05 -0.91 0 0 0.03 -0.93 0 0 0.03 -0.93 0 0 0 -0.93 0 0 -0.03 -0.96 0 0 -0.03 -0.93 0 0 -0.05 -0.91c0,-0.16 -0.03,-0.28 -0.03,-0.47l-0.05 -0.91 0 0 -0.08 -0.88c-0.03,-0.16 -0.05,-0.28 -0.05,-0.44l-0.1 -0.85c-0.05,-0.28 -0.08,-0.57 -0.13,-0.83l-0.16 -0.83c-1.73,-8.65 -7.07,-14.7 -20.4,-14.88l-0.67 0.08 0 0 0 -0.03zm62.49 15.63c-7.07,0 -11.96,5.28 -12.43,12.09l-0.03 0.44 24.33 0c-0.36,-6.6 -4.84,-12.53 -11.88,-12.53l0 0 0 0zm50.89 0c-7.07,0 -11.96,5.28 -12.43,12.09l-0.03 0.44 24.33 0c-0.36,-6.6 -4.84,-12.53 -11.88,-12.53l0 0zm-224.92 -55.71l0 45.09 -45.09 0 0 -45.09 45.09 0zm4.5 0c24.64,0 44.65,19.78 45.07,44.32l0 0.72 -45.07 0 0 -45.07 0 0.03zm422.43 30.73l0 9.89 -10.43 0 0 -9.89 10.43 0z"/>
        </g>
       </g>
      </g>
     </g>
    </g>
   </g>
  </g>
 </g>
</svg>
