<?xml version="1.0" encoding="UTF-8"?>
<!DOCTYPE svg PUBLIC "-//W3C//DTD SVG 1.1//EN" "http://www.w3.org/Graphics/SVG/1.1/DTD/svg11.dtd">
<!-- Creator: CorelDRAW 2021.5 -->
<svg xmlns="http://www.w3.org/2000/svg" xml:space="preserve" width="4.27254in" height="0.850063in" version="1.1" style="shape-rendering:geometricPrecision; text-rendering:geometricPrecision; image-rendering:optimizeQuality; fill-rule:evenodd; clip-rule:evenodd"
viewBox="0 0 277.07 55.13"
 xmlns:xlink="http://www.w3.org/1999/xlink"
 xmlns:xodm="http://www.corel.com/coreldraw/odm/2003">
 <defs>
  <style type="text/css">
   <![CDATA[
    .fil1 {fill:white}
    .fil0 {fill:white;fill-rule:nonzero}
   ]]>
  </style>
 </defs>
 <g id="Layer_x0020_1">
  <metadata id="CorelCorpID_0Corel-Layer"/>
  <g id="_2870489969184">
   <g id="_1555298493840">
    <g>
     <polygon id="XMLID_278_" class="fil0" points="64.32,47.96 64.32,6.61 74.86,6.61 74.86,39.68 93.4,39.68 93.4,47.96 "/>
     <polygon id="XMLID_277_" class="fil0" points="277.07,47.96 256.52,27.41 277.07,6.87 262.03,6.87 249.01,19.9 249.01,6.61 238.47,6.61 238.47,47.96 249.01,47.96 249.01,34.92 262.03,47.96 "/>
     <polygon id="XMLID_272_" class="fil0" points="157.04,39.94 154.53,47.96 143.51,47.96 157.8,6.61 171.82,6.61 186.11,47.96 175.09,47.96 172.58,39.94 170.07,32.17 164.81,14.88 159.29,32.17 "/>
     <polygon id="XMLID_270_" class="fil0" points="203.15,20.9 203.15,47.96 193.13,47.96 193.13,6.61 206.16,6.61 221.69,34.92 221.69,6.61 231.72,6.61 231.72,47.96 218.69,47.96 "/>
     <path id="XMLID_247_" class="fil0" d="M135.75 31.93c-0.5,-1.25 -1.25,-2.25 -2.01,-3.25 -0.75,-0.75 -1.75,-1.51 -3.01,-2.01 -1,-0.5 -2.25,-0.75 -3.25,-1 1,-0.25 2.01,-0.5 3.01,-1 1,-0.5 1.75,-1 2.51,-1.75 0.75,-0.75 1.25,-1.51 1.51,-2.75 0.5,-1 0.5,-2.25 0.5,-3.51 0,-1.25 -0.25,-2.51 -0.5,-3.76 -0.5,-1.25 -1,-2.25 -2.25,-3.25 -1,-1 -2.25,-1.75 -4.01,-2.25 -1.75,-0.5 -3.76,-0.75 -6.27,-0.75l-11.28 0 -5.76 0 -4.76 0 0 41.35 4.76 0 5.76 0 12.78 0c4.26,0 7.27,-1 9.52,-3.01 2.25,-2.01 3.25,-4.76 3.25,-8.27 0.26,-1.77 0.01,-3.28 -0.49,-4.77l0 0zm-24.82 -18.55l11.03 0c1,0 1.75,0.25 2.51,0.5 0.75,0.25 1.25,0.5 1.75,1 0.5,0.5 0.75,1 1,1.51 0.25,0.5 0.25,1 0.25,1.75 0,1.25 -0.5,2.51 -1.25,3.25 -0.75,1 -2.25,1.25 -4.26,1.25l-11.03 0 0 -9.26 0 0zm16.54 25.81c-0.75,1 -2.25,1.25 -4.26,1.25l-12.28 0 0 -9.28 12.27 0c1,0 1.75,0.25 2.51,0.5 0.75,0.25 1.25,0.5 1.75,1 0.5,0.5 0.75,1 1,1.51 0.25,0.5 0.25,1 0.25,1.75 0.01,1.27 -0.23,2.52 -1.24,3.27l0 0 -0 0z"/>
    </g>
    <path class="fil1" d="M27.56 0c15.22,0 27.56,12.34 27.56,27.56 0,15.22 -12.34,27.56 -27.56,27.56 -15.22,0 -27.56,-12.34 -27.56,-27.56 0,-15.22 12.34,-27.56 27.56,-27.56zm3.27 32.66c-0.42,-0.67 -0.55,-0.8 -0.75,-1.11 -2.81,-4.33 -1.2,-7.11 0.06,-8.53 0.15,-0.17 0.3,-0.37 0.43,-0.54 0.19,-0.22 0.36,-0.47 0.49,-0.72l0.02 -0.03c0.25,-0.5 0.37,-1.06 0.37,-1.62 0,-0.01 0,-0.01 0,-0.02 0,-0.02 0,-0.05 0,-0.07 0,-2.08 -1.68,-3.76 -3.76,-3.76 -2.08,0 -3.77,1.68 -3.77,3.77 0,0.65 0.16,1.29 0.49,1.86 0.05,0.09 0.26,0.37 0.28,0.42 0.05,0.07 0.09,0.14 0.16,0.2 0.13,0.16 0.27,0.32 0.42,0.45 0.37,0.41 0.7,0.87 0.98,1.35 0.45,0.91 0.69,1.93 0.69,2.95 0,1.44 -0.47,2.83 -1.32,3.99 -0.62,0.86 -1.25,1.44 -2.18,1.95 -3.92,1.87 -7.09,-0.71 -7.09,-0.71l-0.32 -0.26c-0.23,-0.19 -0.44,-0.41 -0.6,-0.67 -2.81,-4.33 -1.2,-7.11 0.06,-8.53 0.15,-0.17 0.3,-0.37 0.43,-0.54 0.19,-0.22 0.36,-0.47 0.49,-0.74l0.02 -0.03c0.26,-0.51 0.4,-1.07 0.4,-1.64 -0.17,-1.94 -1.8,-3.43 -3.75,-3.43 -1.95,0 -3.57,1.48 -3.75,3.43 0,0.62 0.16,1.24 0.45,1.79 0.05,0.09 0.26,0.37 0.28,0.43 0.05,0.07 0.09,0.14 0.16,0.2 0.13,0.16 0.27,0.32 0.42,0.45 0.37,0.41 0.7,0.87 0.97,1.35 0.44,0.91 0.68,1.91 0.68,2.93 0,1.45 -0.47,2.85 -1.33,4.01l-0.48 0.68c-0.75,0.71 -1.17,1.69 -1.17,2.72l0 0.08c0.03,2.05 1.71,3.7 3.76,3.7 0.99,0 1.95,-0.4 2.66,-1.1 0.19,-0.13 0.3,-0.22 0.48,-0.33 4.33,-2.81 7.11,-1.2 8.53,0.06 0.12,0.1 0.23,0.2 0.35,0.29 0.7,0.69 1.64,1.07 2.64,1.07 2.05,0 3.73,-1.66 3.76,-3.71 -0.03,-0.78 -0.25,-1.4 -0.69,-2.05l0 -0zm14.7 0.22l-0.12 -0.17 -0.03 -0.05c-0.42,-0.67 -0.55,-0.8 -0.75,-1.11 -2.81,-4.33 -1.2,-7.11 0.06,-8.53 0.15,-0.17 0.3,-0.37 0.43,-0.54 0.19,-0.22 0.36,-0.47 0.49,-0.72l0.02 -0.03c0.25,-0.49 0.37,-1.04 0.37,-1.6 0,-0.01 0,-0.03 0,-0.05 -0.17,-1.94 -1.8,-3.43 -3.75,-3.43 -1.95,0 -3.57,1.48 -3.75,3.43 0,0.62 0.16,1.24 0.45,1.79 0.05,0.09 0.26,0.37 0.28,0.42 0.05,0.07 0.09,0.14 0.16,0.2 0.13,0.16 0.27,0.32 0.42,0.45 0.37,0.42 0.7,0.87 0.97,1.35 0.44,0.91 0.68,1.91 0.68,2.93 0,1.45 -0.47,2.85 -1.33,4.01l-0.93 1.34c-0.03,0.03 -0.06,0.08 -0.08,0.12l-0.02 0.03c-0.36,0.58 -0.56,1.25 -0.56,1.94 0,0.02 0,0.05 0,0.07 0.17,1.94 1.8,3.43 3.75,3.43 1.95,0 3.57,-1.48 3.75,-3.43 0,-0.65 -0.17,-1.29 -0.51,-1.86l0 -0zm-6.66 -5.74c0,-2.15 -1.72,-3.89 -3.84,-3.89 -2.12,0 -3.84,1.74 -3.84,3.89 0,2.15 1.72,3.89 3.84,3.89 2.12,0 3.84,-1.74 3.84,-3.89z"/>
   </g>
  </g>
 </g>
</svg>
