<?xml version="1.0" encoding="UTF-8"?>
<!DOCTYPE svg PUBLIC "-//W3C//DTD SVG 1.1//EN" "http://www.w3.org/Graphics/SVG/1.1/DTD/svg11.dtd">
<!-- Creator: CorelDRAW 2021.5 -->
<svg xmlns="http://www.w3.org/2000/svg" xml:space="preserve" width="3.48807in" height="1.49489in" version="1.1" style="shape-rendering:geometricPrecision; text-rendering:geometricPrecision; image-rendering:optimizeQuality; fill-rule:evenodd; clip-rule:evenodd"
viewBox="0 0 268.79 115.2"
 xmlns:xlink="http://www.w3.org/1999/xlink"
 xmlns:xodm="http://www.corel.com/coreldraw/odm/2003">
 <defs>
  <style type="text/css">
   <![CDATA[
    .fil0 {fill:none}
    .fil2 {fill:#999999;fill-rule:nonzero}
    .fil1 {fill:white;fill-rule:nonzero}
   ]]>
  </style>
 </defs>
 <g id="Layer_x0020_1">
  <metadata id="CorelCorpID_0Corel-Layer"/>
  <g id="_1597124635040">
   <polygon class="fil0" points="-0,115.2 115.2,115.2 115.2,0 -0,0 "/>
   <path class="fil1" d="M113.35 72.19l-24.91 -43.21c-5.46,-9.01 -18.78,-9.1 -24.05,0.38l-26.15 44.94c-4.88,8.24 1.15,18.58 10.93,18.58l52.41 0c9.87,0 17.24,-10.64 11.79,-20.69l-0.01 -0z"/>
   <path class="fil1" d="M77.42 75.54l-1.53 -2.68c-1.44,-2.49 -4.6,-7.86 -4.6,-7.86l-21.08 -36.6c-5.46,-8.14 -18.4,-8.82 -23.86,1.44l-24.53 42.45c-5.08,8.91 0.96,20.5 11.98,20.6l52.12 0 22.23 0 13.22 0c-13.51,0.1 -17.82,-6.9 -23.95,-17.34l0 0 -0.01 0.01z"/>
   <path class="fil2" d="M77.42 75.54l-1.53 -2.68c-1.44,-2.49 -4.6,-7.86 -4.6,-7.86l-13.61 -23.95 -19.55 33.34c-4.88,8.24 1.15,18.59 10.92,18.59l16.77 0 22.23 0 13.32 0c-13.6,-0.1 -17.82,-7 -23.95,-17.44l0 0 -0.01 0.01z"/>
  </g>
  <path class="fil1" d="M127.13 74.51l0 -33.81 6.47 0 14.39 23.86 -3.43 0 14.15 -23.86 6.42 0 0.1 33.81 -7.34 0 -0.05 -22.56 1.35 0 -11.3 18.98 -3.53 0 -11.54 -18.98 1.64 0 0 22.56 -7.34 0zm46.13 0l0 -33.81 25.55 0 0 6.28 -17.77 0 0 21.25 18.4 0 0 6.28 -26.18 0zm7.2 -14.1l0 -6.09 16.28 0 0 6.09 -16.28 0zm21.06 14.1l14.54 -20.04 0 5.7 -13.91 -19.47 8.89 0 9.61 13.57 -3.72 0.05 9.47 -13.62 8.5 0 -13.81 19.13 0 -5.6 14.64 20.29 -9.03 0 -9.95 -14.35 3.57 0 -9.81 14.35 -8.98 0zm53.32 0.58c-2.61,0 -5.03,-0.43 -7.27,-1.28 -2.24,-0.85 -4.18,-2.07 -5.82,-3.65 -1.64,-1.58 -2.92,-3.43 -3.84,-5.55 -0.92,-2.13 -1.38,-4.46 -1.38,-7 0,-2.54 0.46,-4.88 1.38,-7 0.92,-2.13 2.21,-3.98 3.86,-5.55 1.66,-1.58 3.6,-2.79 5.82,-3.65 2.22,-0.85 4.65,-1.28 7.29,-1.28 2.93,0 5.58,0.51 7.95,1.52 2.37,1.01 4.36,2.5 5.97,4.47l-5.02 4.64c-1.16,-1.32 -2.45,-2.31 -3.86,-2.97 -1.42,-0.66 -2.96,-0.99 -4.64,-0.99 -1.58,0 -3.03,0.26 -4.35,0.77 -1.32,0.52 -2.46,1.26 -3.43,2.22 -0.97,0.97 -1.71,2.11 -2.25,3.43 -0.53,1.32 -0.8,2.79 -0.8,4.4 0,1.61 0.27,3.08 0.8,4.4 0.53,1.32 1.28,2.46 2.25,3.43 0.97,0.97 2.11,1.71 3.43,2.22 1.32,0.52 2.77,0.77 4.35,0.77 1.67,0 3.22,-0.33 4.64,-0.99 1.42,-0.66 2.7,-1.67 3.86,-3.02l5.02 4.64c-1.61,1.96 -3.6,3.46 -5.97,4.49 -2.37,1.03 -5.03,1.55 -7.99,1.55z"/>
 </g>
</svg>
