<?xml version="1.0" encoding="UTF-8"?>
<!DOCTYPE svg PUBLIC "-//W3C//DTD SVG 1.1//EN" "http://www.w3.org/Graphics/SVG/1.1/DTD/svg11.dtd">
<!-- Creator: CorelDRAW 2021.5 -->
<svg xmlns="http://www.w3.org/2000/svg" xml:space="preserve" width="2.69894in" height="0.809685in" version="1.1" style="shape-rendering:geometricPrecision; text-rendering:geometricPrecision; image-rendering:optimizeQuality; fill-rule:evenodd; clip-rule:evenodd"
viewBox="0 0 130.64 39.19"
 xmlns:xlink="http://www.w3.org/1999/xlink"
 xmlns:xodm="http://www.corel.com/coreldraw/odm/2003">
 <defs>
  <style type="text/css">
   <![CDATA[
    .fil0 {fill:white;fill-rule:nonzero}
   ]]>
  </style>
 </defs>
 <g id="Layer_x0020_1">
  <metadata id="CorelCorpID_0Corel-Layer"/>
  <g id="_2871324035120">
   <g id="_1594467323232">
    <g id="Layer_x0020_1_0">
     <g id="_1941182027472">
      <path class="fil0" d="M38.31 0l-37.44 0c-0.24,0 -0.45,0.1 -0.62,0.25 -0.17,0.17 -0.25,0.38 -0.25,0.62l0 37.45c0,0.23 0.1,0.45 0.25,0.62 0.17,0.17 0.38,0.25 0.62,0.25l37.45 0c0.23,0 0.45,-0.1 0.62,-0.25 0.17,-0.17 0.25,-0.38 0.25,-0.62l0 -37.45c0,-0.23 -0.1,-0.45 -0.25,-0.62 -0.17,-0.17 -0.38,-0.25 -0.62,-0.25l-0.01 0zm-12.19 25.26c0,0.23 -0.1,0.45 -0.25,0.62 -0.17,0.17 -0.38,0.25 -0.62,0.25l-11.32 0c-0.23,0 -0.45,-0.1 -0.62,-0.25 -0.17,-0.17 -0.25,-0.38 -0.25,-0.62l0 -11.32c0,-0.23 0.1,-0.45 0.25,-0.62 0.17,-0.17 0.38,-0.25 0.62,-0.25l11.32 0c0.23,0 0.45,0.1 0.62,0.25 0.17,0.17 0.25,0.38 0.25,0.62l0 11.32z"/>
      <path class="fil0" d="M116.73 13.06l-11.32 0c-0.48,0 -0.87,0.39 -0.87,0.87l0 11.32c0,0.48 0.39,0.87 0.87,0.87l11.32 0c0.48,0 0.87,-0.39 0.87,-0.87l0 -11.32c-0.01,-0.48 -0.39,-0.87 -0.87,-0.87l0 0z"/>
      <path class="fil0" d="M103.65 0.01l-11.32 0c-0.48,0 -0.87,0.39 -0.87,0.87l0 11.32c0,0.48 0.39,0.87 0.87,0.87l11.32 0c0.48,0 0.87,-0.39 0.87,-0.87l0 -11.32c0,-0.48 -0.39,-0.87 -0.87,-0.87z"/>
      <path class="fil0" d="M129.77 0.01l-11.32 0c-0.48,0 -0.87,0.39 -0.87,0.87l0 11.32c0,0.48 0.39,0.87 0.87,0.87l11.32 0c0.48,0 0.87,-0.39 0.87,-0.87l0 -11.32c0,-0.48 -0.39,-0.87 -0.87,-0.87z"/>
      <path class="fil0" d="M103.65 26.13l-11.32 0c-0.48,0 -0.87,0.39 -0.87,0.87l0 11.32c0,0.48 0.39,0.87 0.87,0.87l11.32 0c0.48,0 0.87,-0.39 0.87,-0.87l0 -11.32c0,-0.49 -0.39,-0.87 -0.87,-0.87z"/>
      <path class="fil0" d="M129.77 26.13l-11.32 0c-0.48,0 -0.87,0.39 -0.87,0.87l0 11.32c0,0.48 0.39,0.87 0.87,0.87l11.32 0c0.48,0 0.87,-0.39 0.87,-0.87l0 -11.32c0,-0.49 -0.39,-0.87 -0.87,-0.87z"/>
      <path class="fil0" d="M84.04 0.01l-11.32 0c-0.48,0 -0.87,0.39 -0.87,0.87l0 11.32c0,0.48 0.39,0.87 0.87,0.87l11.32 0c0.48,0 0.87,-0.39 0.87,-0.87l0 -11.32c0,-0.48 -0.39,-0.87 -0.87,-0.87z"/>
      <path class="fil0" d="M84.04 26.13l-11.32 0c-0.48,0 -0.87,0.39 -0.87,0.87l0 11.32c0,0.48 0.39,0.87 0.87,0.87l11.32 0c0.48,0 0.87,-0.39 0.87,-0.87l0 -11.32c0,-0.49 -0.39,-0.87 -0.87,-0.87z"/>
      <path class="fil0" d="M71.85 13.93c0,-0.23 -0.1,-0.45 -0.25,-0.62 -0.17,-0.17 -0.38,-0.25 -0.62,-0.25l-12.19 0 0 -12.18c0,-0.23 -0.1,-0.45 -0.25,-0.62 -0.17,-0.17 -0.38,-0.25 -0.62,-0.25l-11.31 0c-0.23,0 -0.45,0.1 -0.62,0.25 -0.17,0.17 -0.25,0.38 -0.25,0.62l0 37.42c0,0.23 0.1,0.45 0.25,0.62 0.17,0.17 0.38,0.25 0.62,0.25l11.32 0c0.23,0 0.45,-0.1 0.62,-0.25 0.17,-0.17 0.25,-0.38 0.25,-0.62l0 -12.18 12.19 0c0.23,0 0.45,-0.1 0.62,-0.25 0.17,-0.17 0.25,-0.38 0.25,-0.62l-0.01 -11.32 0 0 0 0.01z"/>
     </g>
    </g>
   </g>
  </g>
 </g>
</svg>
