<?xml version="1.0" encoding="UTF-8"?>
<!DOCTYPE svg PUBLIC "-//W3C//DTD SVG 1.1//EN" "http://www.w3.org/Graphics/SVG/1.1/DTD/svg11.dtd">
<!-- Creator: CorelDRAW 2021.5 -->
<svg xmlns="http://www.w3.org/2000/svg" xml:space="preserve" width="1.4427in" height="1.44271in" version="1.1" style="shape-rendering:geometricPrecision; text-rendering:geometricPrecision; image-rendering:optimizeQuality; fill-rule:evenodd; clip-rule:evenodd"
viewBox="0 0 123.78 123.79"
 xmlns:xlink="http://www.w3.org/1999/xlink"
 xmlns:xodm="http://www.corel.com/coreldraw/odm/2003">
 <defs>
  <style type="text/css">
   <![CDATA[
    .str0 {stroke:#FEFEFE;stroke-width:0.89;stroke-miterlimit:2.61313}
    .fil0 {fill:#FEFEFE;fill-rule:nonzero}
   ]]>
  </style>
 </defs>
 <g id="Layer_x0020_1">
  <metadata id="CorelCorpID_0Corel-Layer"/>
  <g id="_2102896003632">
   <path class="fil0 str0" d="M42.36 60.69c-0.72,0 -1.34,-0.27 -1.88,-0.8l-39.24 -39.24c-0.45,-0.54 -0.8,-1.16 -0.8,-1.88l0 -14.57c0,-1.07 0.63,-2.06 1.61,-2.41 0.98,-0.45 2.15,-0.18 2.86,0.54l46.48 46.56c0.98,0.98 1.07,2.68 0,3.75l-0 -0 -7.24 7.24c-0.54,0.54 -1.16,0.8 -1.88,0.8l0.09 0zm-39.24 -57.29l-0.36 0c0,0 -0.54,0.27 -0.54,0.8l0 14.84 0 0 39.5 39.5c0.36,0.36 0.89,0.36 1.25,0l7.24 -7.24c0.36,-0.36 0.36,-0.89 0,-1.25l-46.48 -46.56c-0.18,-0.18 -0.45,-0.27 -0.63,-0.27l0 -0 0 0.18 0 0z"/>
   <path class="fil0" d="M121.28 1.7l-48.62 48.62c-0.36,0.36 -0.98,0.36 -1.43,0l-48.62 -48.62c-0.63,-0.63 -0.18,-1.7 0.72,-1.7l97.33 -0c0.89,0 1.34,1.07 0.72,1.7l-0.09 0z"/>
   <path class="fil0" d="M123.78 21l0 79.54c0,0.89 -1.07,1.34 -1.7,0.72l-39.77 -39.77c-0.36,-0.36 -0.36,-0.98 0,-1.43l39.77 -39.77c0.63,-0.63 1.7,-0.18 1.7,0.72l0 0z"/>
   <path class="fil0 str0" d="M119.58 123.34l-14.84 0c-0.54,0 -0.98,-0.18 -1.34,-0.54l-40.58 -40.58c-0.36,-0.36 -0.89,-0.36 -1.25,0l-40.58 40.58c-0.36,0.36 -0.8,0.54 -1.34,0.54l-14.03 0c-1.07,0 -2.06,-0.63 -2.41,-1.61 -0.36,-0.98 -0.18,-2.15 0.54,-2.86l56.57 -57.38c0.54,-0.54 1.16,-0.8 1.88,-0.8l0 0c0.72,0 1.34,0.27 1.88,0.8l57.38 57.38c0.8,0.8 0.98,1.88 0.54,2.86 -0.45,0.98 -1.34,1.61 -2.41,1.61l-0 -0zm-57.47 -43.17c0.72,0 1.34,0.27 1.88,0.8l40.4 40.4c0.18,0.18 0.36,0.27 0.63,0.27l14.57 -0c0.54,0 0.72,-0.45 0.8,-0.54 0,0 0.18,-0.54 -0.18,-0.98l-57.38 -57.38c-0.18,-0.18 -0.45,-0.18 -0.63,-0.27 -0.27,0 -0.45,0 -0.63,0.27l-56.57 57.38c-0.36,0.36 -0.27,0.8 -0.18,0.98 0.09,0.18 0.27,0.54 0.8,0.54l13.67 0c0.27,0 0.45,0 0.63,-0.27l40.4 -40.4c0.54,-0.54 1.16,-0.8 1.88,-0.8l-0.09 0z"/>
  </g>
 </g>
</svg>
