<?xml version="1.0" encoding="UTF-8"?>
<!DOCTYPE svg PUBLIC "-//W3C//DTD SVG 1.1//EN" "http://www.w3.org/Graphics/SVG/1.1/DTD/svg11.dtd">
<!-- Creator: CorelDRAW 2021.5 -->
<svg xmlns="http://www.w3.org/2000/svg" xml:space="preserve" width="4.49326in" height="0.759272in" version="1.1" style="shape-rendering:geometricPrecision; text-rendering:geometricPrecision; image-rendering:optimizeQuality; fill-rule:evenodd; clip-rule:evenodd"
viewBox="0 0 367.84 62.16"
 xmlns:xlink="http://www.w3.org/1999/xlink"
 xmlns:xodm="http://www.corel.com/coreldraw/odm/2003">
 <defs>
  <style type="text/css">
   <![CDATA[
    .fil0 {fill:white;fill-rule:nonzero}
   ]]>
  </style>
 </defs>
 <g id="Layer_x0020_1">
  <metadata id="CorelCorpID_0Corel-Layer"/>
  <g id="_1555296915696">
   <g id="Layer_x0020_1_0">
    <path class="fil0" d="M88.03 0.46c-2.3,-0.93 -4.89,-0.43 -6.64,1.33l-22.79 22.65 0 12.3 24.42 -24.24 0 40.42 -40.58 0 -4.68 -7.53 -16.33 16.23 64.28 0c3.34,0 6.07,-2.7 6.07,-6.04l0 -49.5c0,-2.46 -1.47,-4.65 -3.74,-5.61l0 0z"/>
    <path class="fil0" d="M21.17 52.92l26.89 -26.75 0 24.97 8.75 0 0 -31.42c0,-2.46 -1.47,-4.65 -3.74,-5.58 -2.3,-0.93 -4.89,-0.43 -6.64,1.33l-46.43 46.15 18.87 0 8.75 -8.7 -6.45 0 0 0.01z"/>
    <polygon class="fil0" points="303.33,61.49 331.52,61.49 331.52,55.22 310.38,55.22 310.38,43.04 331.52,43.04 331.52,36.9 310.38,36.9 310.38,24.38 331.52,24.38 331.52,18.44 303.33,18.44 "/>
    <path class="fil0" d="M354.21 38.84l12.68 -20.4 -7.22 0 -6.61 10.59c-0.49,0.81 -0.93,1.59 -1.33,2.25 -0.4,0.69 -0.72,1.31 -1.06,1.94l-0.46 -0.84c-0.9,-1.74 -1.55,-2.84 -1.87,-3.42l-6.24 -10.53 -7.39 0 12.45 20.52 -14.07 22.54 7.45 0 7.59 -12.3c0.46,-0.75 0.87,-1.47 1.27,-2.19 0.4,-0.72 0.75,-1.41 1.09,-2.08 0.66,1.3 1.38,2.67 2.19,4.14l0.12 0.21 7.25 12.21 7.79 0 -13.62 -22.64 0 0z"/>
    <path class="fil0" d="M124.18 19.13l-6.38 0 -16.66 42.36 7.16 0 4.71 -12.15 15.79 0 4.61 12.15 7.39 0 -16.54 -42.15 -0.09 -0.21 0 0zm-8.73 23.67l5.52 -14.52 5.41 14.52 -10.93 0z"/>
    <path class="fil0" d="M193.24 49.43c-0.87,1.83 -2.12,3.27 -3.65,4.3 -1.55,0.99 -3.31,1.5 -5.21,1.5 -2.87,0 -5.29,-1.02 -7.22,-3.03 -1.93,-2.02 -2.9,-4.6 -2.9,-7.66 0,-3 0.97,-5.58 2.87,-7.61 1.9,-2.05 4.23,-3.06 6.95,-3.06 2.11,0 3.95,0.46 5.46,1.38 1.52,0.93 2.78,2.34 3.74,4.2l0.09 0.18 6.95 0 -0.15 -0.46c-1.24,-3.65 -3.23,-6.54 -5.95,-8.59 -2.71,-2.05 -5.98,-3.06 -9.66,-3.06 -2.36,0 -4.61,0.46 -6.67,1.38 -2.09,0.9 -3.96,2.28 -5.61,4.02 -1.52,1.62 -2.65,3.42 -3.42,5.38 -0.78,1.96 -1.15,4.08 -1.15,6.3 0,2.17 0.43,4.33 1.27,6.42 0.84,2.08 2.06,3.93 3.53,5.49 1.58,1.65 3.39,2.92 5.35,3.73 1.96,0.84 4.17,1.22 6.55,1.22 3.8,0 7.1,-1.02 9.75,-3 2.65,-1.99 4.68,-4.95 6.04,-8.79l0.15 -0.46 -6.94 0 -0.18 0.22 0 0z"/>
    <path class="fil0" d="M232.01 35.03c-1.58,-2.34 -3.62,-4.2 -6.04,-5.52 -2.44,-1.33 -5.1,-1.99 -7.94,-1.99 -2.39,0 -4.61,0.46 -6.61,1.33 -2.02,0.87 -3.83,2.22 -5.43,3.96 -1.5,1.62 -2.65,3.42 -3.42,5.38 -0.78,1.96 -1.15,4.08 -1.15,6.33 0,2.16 0.43,4.33 1.27,6.42 0.84,2.08 2.06,3.93 3.53,5.49 1.61,1.68 3.42,2.95 5.38,3.79 1.96,0.84 4.17,1.25 6.55,1.25 3.53,0 6.67,-0.96 9.37,-2.84 2.65,-1.89 4.77,-4.62 6.24,-8.16l0.22 -0.49 -7.16 0 -0.09 0.18c-0.87,1.59 -2.09,2.83 -3.56,3.7 -1.47,0.87 -3.17,1.28 -4.98,1.28 -2.53,0 -4.74,-0.81 -6.58,-2.37 -1.75,-1.5 -2.87,-3.45 -3.39,-5.79l26.6 0 0 -1.24c0,-2.22 -0.24,-4.2 -0.66,-5.94 -0.52,-1.71 -1.21,-3.33 -2.15,-4.77l0 0zm-23.64 6.22c0.69,-2.25 1.87,-4.05 3.53,-5.38 1.75,-1.41 3.86,-2.11 6.27,-2.11 2.36,0 4.37,0.69 6.07,2.08 1.58,1.28 2.74,3.12 3.45,5.43l-19.32 0 0 -0.03 0 0z"/>
    <path class="fil0" d="M293.18 32.6c-1.41,-1.3 -2.93,-2.28 -4.58,-2.98 -1.87,-0.78 -3.93,-1.18 -6.1,-1.18 -2.44,0 -4.68,0.43 -6.61,1.24 -1.93,0.81 -3.71,2.06 -5.35,3.76 -1.47,1.53 -2.67,3.33 -3.45,5.35 -0.78,2.02 -1.21,4.17 -1.21,6.42 0,4.83 1.64,8.91 4.83,12.12 3.2,3.21 7.28,4.83 12.11,4.83 2.08,0 4.05,-0.4 5.89,-1.21 1.61,-0.69 3.08,-1.65 4.4,-2.9l0 3.45 6.47 0 0 -43.05 -6.41 0 0 14.15 0 0 0 0zm-2.87 20.33c-2.06,2.09 -4.48,3.15 -7.19,3.15 -2.96,0 -5.49,-1.05 -7.54,-3.12 -2.06,-2.08 -3.08,-4.71 -3.08,-7.78 0,-2.95 1.03,-5.43 3.08,-7.47 2.05,-2.03 4.55,-3.06 7.42,-3.06 2.8,0 5.29,1.08 7.31,3.21 2.05,2.14 3.08,4.71 3.08,7.72 0.03,2.78 -1.03,5.24 -3.08,7.35l0 0z"/>
    <path class="fil0" d="M153.52 33.75c0.21,-0.03 0.4,-0.03 0.63,-0.03 0.69,0 1.33,0.12 1.93,0.29 1.35,0.49 2.44,1.5 2.99,2.83l6.95 -0c-0.34,-2.11 -1.47,-3.99 -3.17,-5.46 -0.63,-0.66 -1.38,-1.19 -2.27,-1.65 -1.06,-0.55 -2.27,-0.93 -3.62,-1.13 -0.87,-0.18 -1.78,-0.27 -2.71,-0.27 -1.99,0 -3.89,0.35 -5.55,1.05 -0.15,0.06 -0.29,0.12 -0.46,0.18 -0.09,0.03 -0.15,0.06 -0.25,0.12 -0.78,0.35 -1.5,0.78 -2.14,1.3 -2.18,1.71 -3.23,3.93 -3.23,6.66 0,2.02 0.66,3.73 1.96,5.14 1.33,1.41 3.62,2.78 6.92,4.14 0.57,0.27 1.41,0.57 2.5,0.96 3.23,1.19 4.83,2.61 4.83,4.29 0,1.27 -0.46,2.25 -1.35,2.98 -0.9,0.72 -2.15,1.08 -3.74,1.08 -1.84,0 -3.34,-0.4 -4.52,-1.21 -0.03,-0.03 -0.06,-0.03 -0.12,-0.06 -1.12,-0.81 -1.96,-1.97 -2.3,-3.42l-6.7 0c0.06,1.38 0.52,2.67 1.24,3.9 1.09,1.96 2.53,3.42 4.32,4.42 1.9,1.05 4.26,1.62 7.07,1.68 0.06,0 0.12,0 0.15,0 0.09,0 0.19,0 0.31,0 3.93,0 7.03,-0.87 9.26,-2.61 2.24,-1.74 3.34,-4.14 3.34,-7.2 0,-2.14 -0.6,-3.87 -1.84,-5.32 -1.24,-1.41 -3.25,-2.67 -6.1,-3.81 -0.63,-0.27 -1.5,-0.6 -2.68,-0.99 -3.65,-1.33 -5.46,-2.77 -5.46,-4.37 0,-0.24 0.03,-0.46 0.06,-0.69 0.69,-1.46 2.08,-2.5 3.74,-2.77z"/>
    <path class="fil0" d="M250.52 28.37c-7.7,0 -13.95,6.22 -13.95,13.86l0 19.27 6.44 0 0 -18.69c0,-4.11 3.39,-7.47 7.51,-7.47 4.14,0 7.51,3.36 7.51,7.47l0 18.69 6.44 0 0 -19.27c0,-7.64 -6.26,-13.86 -13.95,-13.86l0 0z"/>
   </g>
  </g>
 </g>
</svg>
