<?xml version="1.0" encoding="UTF-8"?>
<!DOCTYPE svg PUBLIC "-//W3C//DTD SVG 1.1//EN" "http://www.w3.org/Graphics/SVG/1.1/DTD/svg11.dtd">
<!-- Creator: CorelDRAW 2021.5 -->
<svg xmlns="http://www.w3.org/2000/svg" xml:space="preserve" width="4.08737in" height="0.880697in" version="1.1" style="shape-rendering:geometricPrecision; text-rendering:geometricPrecision; image-rendering:optimizeQuality; fill-rule:evenodd; clip-rule:evenodd"
viewBox="0 0 257.33 55.45"
 xmlns:xlink="http://www.w3.org/1999/xlink"
 xmlns:xodm="http://www.corel.com/coreldraw/odm/2003">
 <defs>
  <style type="text/css">
   <![CDATA[
    .fil0 {fill:white;fill-rule:nonzero}
   ]]>
  </style>
 </defs>
 <g id="Layer_x0020_1">
  <metadata id="CorelCorpID_0Corel-Layer"/>
  <g id="_1555312119984">
   <path class="fil0" d="M89.12 12.35c-2.1,0 -3.84,1.74 -3.84,3.96 0,2.22 1.74,3.84 3.84,3.84 2.1,0 3.84,-1.74 3.84,-3.84 0,-2.1 -1.74,-3.96 -3.84,-3.96l0 0z"/>
   <polygon class="fil0" points="92.27,22.6 85.97,22.6 85.97,45.77 92.27,45.77 "/>
   <path class="fil0" d="M158.9 21.9c-2.56,0 -5.24,1.05 -6.75,3.5l0 -2.91 -6.06 0 0 23.3 6.29 0 0 -13.41c0,-2.68 1.63,-4.78 4.32,-4.78 3.02,0 4.32,1.98 4.32,4.66l0 13.63 6.29 0 0 -14.66c0,-5.12 -2.68,-9.2 -8.38,-9.2l0 0 0 -0.12 -0.01 0z"/>
   <path class="fil0" d="M181.96 21.78c-6.99,0 -12.23,5.12 -12.23,12.35 0,7.23 5.24,12.35 12.23,12.35 6.99,0 12.23,-5.24 12.23,-12.35 0,-7.1 -5.24,-12.35 -12.23,-12.35zm0 18.98c-3.02,0 -5.94,-2.33 -5.94,-6.64 0,-4.3 2.8,-6.64 5.94,-6.64 3.02,0 5.94,2.21 5.94,6.64 0,4.43 -2.79,6.64 -5.94,6.64z"/>
   <path class="fil0" d="M223.2 21.9c-3.02,0 -5.47,1.05 -7.34,3.84 -1.17,-2.56 -3.73,-3.84 -6.88,-3.84 -2.56,0 -5.47,1.28 -6.75,3.5l0 -2.8 -6.06 0 0 23.3 6.29 0 0 -13.64c0,-2.56 1.63,-4.54 4.32,-4.54 2.8,0 4.08,1.87 4.08,4.43l0 13.86 6.29 0 0 -13.64c0,-2.56 1.63,-4.54 4.32,-4.54 2.91,0 4.08,1.87 4.08,4.43l0 13.86 6.06 0 0 -15.14c0,-6.29 -4.08,-8.86 -8.38,-8.86l0 0 0 -0.23 -0.01 0z"/>
   <polygon class="fil0" points="250.58,22.6 244.87,36.22 238.7,22.6 231.71,22.6 241.48,42.86 236.01,54.97 242.77,54.97 257.33,22.6 "/>
   <path class="fil0" d="M106.83 40.77c-3.02,0 -5.94,-2.33 -5.94,-6.64 0,-4.3 2.8,-6.64 5.94,-6.64 1.87,0 3.61,0.82 4.54,2.56l5.94 -1.98c-1.87,-3.84 -5.71,-6.29 -10.49,-6.29 -6.99,0 -12.23,5.12 -12.23,12.35 0,7.23 5.24,12.35 12.23,12.35 5.82,0 10.14,-3.61 11.42,-8.97l-6.52 0c-0.93,2.1 -2.8,3.15 -4.89,3.15l0 0 0 0.11 0.01 0z"/>
   <path class="fil0" d="M131.52 21.78c-6.99,0 -12.23,5.12 -12.23,12.35 0,7.23 5.24,12.35 12.23,12.35 6.99,0 12.23,-5.24 12.23,-12.35 0,-7.1 -5.24,-12.35 -12.23,-12.35zm0 18.98c-3.02,0 -5.94,-2.33 -5.94,-6.64 0,-4.3 2.8,-6.64 5.94,-6.64 3.02,0 5.94,2.21 5.94,6.64 0,4.43 -2.79,6.64 -5.94,6.64z"/>
   <path class="fil0" d="M77.7 25.38c1.28,-1.74 1.52,-3.38 1.52,-5.36 0,-1.98 -1.74,-7.8 -8.27,-7.8l-14.91 0 0 33.55 16.19 0c8.04,0 11.42,-5.6 11.42,-11.42 0,-2.67 -1.17,-6.17 -5.95,-8.97l0 0zm-15.37 -8.03l7.57 0c1.74,0 3.15,1.39 3.15,3.15 0,1.76 -1.39,3.14 -3.15,3.14l-7.57 0 0 -6.29 0 0zm9.08 23.3l-9.08 0 0 -11.77 9.08 0c3.26,0 5.82,2.68 5.82,5.82 0,3.61 -2.33,5.82 -5.82,5.82l0 0 0 0.12z"/>
   <path class="fil0" d="M37.98 23.18c1.05,-1.98 1.74,-4.54 1.74,-7.8 0,-4.32 -1.74,-8.27 -4.89,-11.07 -3.15,-2.8 -7.34,-4.19 -12.23,-4.19l-16.78 -0.11c-3.26,-0.01 -5.82,2.67 -5.82,5.82l0 49.62 29.24 0c10.95,0 17.35,-9.08 17.35,-17.35 0,-6.29 -3.5,-12 -8.62,-15.03l0 0 0 0.11 0.01 0zm-15.38 -18.76c7.8,0 12.81,4.66 12.81,11.07 0,8.51 -6.41,12.35 -12.81,12.35 -6.06,0 -11.07,-5.01 -11.07,-12.81l0 -4.3c0,-2.8 -1.63,-5.36 -4.32,-6.17l0 -0.24 15.37 0 0 0 0 0.11 0.01 0z"/>
  </g>
 </g>
</svg>
