<?xml version="1.0" encoding="UTF-8"?>
<!DOCTYPE svg PUBLIC "-//W3C//DTD SVG 1.1//EN" "http://www.w3.org/Graphics/SVG/1.1/DTD/svg11.dtd">
<!-- Creator: CorelDRAW 2021.5 -->
<svg xmlns="http://www.w3.org/2000/svg" xml:space="preserve" width="2.88816in" height="0.772898in" version="1.1" style="shape-rendering:geometricPrecision; text-rendering:geometricPrecision; image-rendering:optimizeQuality; fill-rule:evenodd; clip-rule:evenodd"
viewBox="0 0 359.87 96.31"
 xmlns:xlink="http://www.w3.org/1999/xlink"
 xmlns:xodm="http://www.corel.com/coreldraw/odm/2003">
 <defs>
  <style type="text/css">
   <![CDATA[
    .fil0 {fill:white}
   ]]>
  </style>
 </defs>
 <g id="Layer_x0020_1">
  <metadata id="CorelCorpID_0Corel-Layer"/>
  <g id="_1594057507504">
   <g id="Layer_x0020_1_0">
    <g id="_2806188266256">
     <path class="fil0" d="M358.45 28.04c0.48,0 0.79,0.16 1.11,0.32 0.32,0.32 0.32,0.63 0.32,1.11l0 8.87c0,0.47 -0.16,0.79 -0.32,1.11 -0.32,0.32 -0.63,0.32 -1.11,0.32l-7.76 0 0 35.48c0,0.48 -0.16,0.79 -0.32,1.11 -0.32,0.32 -0.63,0.32 -1.11,0.32l-11.56 0c-0.48,0 -0.79,-0.16 -1.11,-0.32 -0.32,-0.32 -0.32,-0.63 -0.32,-1.11l0 -35.48 -7.76 0c-0.47,0 -0.79,-0.16 -1.11,-0.32 -0.32,-0.32 -0.32,-0.63 -0.32,-1.11l0 -8.87c0,-0.48 0.16,-0.79 0.32,-1.11 0.32,-0.32 0.63,-0.32 1.11,-0.32l7.76 0 0 -12.51c0,-0.48 0.16,-0.79 0.32,-1.11 0.32,-0.32 0.63,-0.32 1.11,-0.32l11.56 0c0.47,0 0.79,0.16 1.11,0.32 0.32,0.32 0.32,0.63 0.32,1.11l0 12.51 7.76 0z"/>
     <path class="fil0" d="M325.03 51.64c0,2.22 -0.16,3.8 -0.63,4.75 -0.48,0.95 -1.43,1.43 -2.85,1.43l-28.83 0c0.63,2.69 2.06,4.59 4.12,6.02 2.06,1.27 4.75,1.9 8.08,1.9 1.58,0 3.17,-0.16 4.59,-0.63 1.43,-0.48 3.01,-1.27 4.59,-2.22 0.32,-0.32 0.63,-0.32 1.11,-0.32 0.32,0 0.63,0.16 1.11,0.63l5.07 4.91c0.32,0.32 0.32,0.63 0.32,0.95 0,0.32 -0.16,0.79 -0.63,1.11 -2.38,2.38 -5.07,4.12 -8.08,5.54 -3.01,1.27 -6.18,1.9 -9.66,1.9 -4.91,0 -9.19,-1.11 -13.15,-3.33 -3.8,-2.22 -6.81,-5.23 -8.87,-9.03 -2.06,-3.8 -3.17,-7.92 -3.17,-12.51 0,-4.59 1.11,-8.71 3.17,-12.51 2.06,-3.8 5.07,-6.81 8.71,-8.87 3.64,-2.22 7.76,-3.33 12.35,-3.33 4.44,0 8.4,1.11 11.88,3.17 3.48,2.22 6.02,5.07 7.92,8.71 1.9,3.64 2.85,7.6 2.85,12.04l0 -0.32zm-22.49 -11.56c-2.53,0 -4.75,0.79 -6.49,2.22 -1.74,1.43 -3.01,3.48 -3.48,6.02l19.64 -0c-0.48,-2.69 -1.58,-4.75 -3.33,-6.02 -1.74,-1.43 -3.8,-2.22 -6.34,-2.22z"/>
     <path class="fil0" d="M271.82 28.83c0.48,0 0.79,0.16 1.11,0.32 0.32,0.32 0.32,0.63 0.32,1.11l0 46.25c0,4.75 -1.27,8.71 -3.8,11.56 -2.53,3.01 -5.7,5.07 -9.66,6.34 -3.8,1.27 -7.76,1.9 -11.88,1.9 -4.12,0 -7.92,-0.63 -11.72,-1.74 -3.64,-1.11 -6.81,-2.69 -9.35,-4.59 -0.32,-0.32 -0.63,-0.63 -0.63,-1.11 0,-0.32 0,-0.63 0.16,-0.95l3.8 -6.81c0.32,-0.47 0.79,-0.79 1.11,-0.79 0.32,0 0.63,0 0.79,0.16 2.22,1.27 4.44,2.22 6.81,2.85 2.38,0.63 5.07,0.95 7.92,0.95 3.33,0 6.34,-0.79 9.03,-2.22 2.69,-1.43 4.12,-3.64 4.12,-6.97l0 -4.59c-3.8,4.28 -8.4,6.49 -13.94,6.49 -4.28,0 -8.24,-1.11 -11.72,-3.33 -3.48,-2.22 -6.18,-5.23 -8.24,-9.03 -1.9,-3.8 -2.85,-7.92 -2.85,-12.35 0,-4.44 0.95,-8.55 2.85,-12.36 2.06,-3.8 4.75,-6.81 8.24,-9.03 3.48,-2.22 7.44,-3.33 11.72,-3.33 5.23,0 9.82,2.06 13.62,6.34l0.32 -3.8c0.16,-0.95 0.63,-1.43 1.43,-1.43l10.61 0 -0.16 0.16zm-24.08 35.01c3.01,0 5.54,-1.11 7.6,-3.48 2.06,-2.22 3.17,-4.91 3.17,-7.92 0,-3.01 -1.11,-5.7 -3.17,-7.92 -2.06,-2.22 -4.59,-3.48 -7.6,-3.48 -3.01,0 -5.54,1.11 -7.6,3.33 -2.06,2.22 -3.17,4.75 -3.17,7.92 0,3.17 0.95,5.86 3.01,8.08 2.06,2.22 4.59,3.17 7.76,3.17l0 0.32z"/>
     <path class="fil0" d="M218.28 28.04c0.47,0 0.79,0.16 1.11,0.32 0.32,0.32 0.32,0.63 0.32,1.11l0 8.87c0,0.47 -0.16,0.79 -0.32,1.11 -0.32,0.32 -0.63,0.32 -1.11,0.32l-7.76 0 0 35.48c0,0.48 -0.16,0.79 -0.32,1.11 -0.32,0.32 -0.63,0.32 -1.11,0.32l-11.56 0c-0.47,0 -0.79,-0.16 -1.11,-0.32 -0.32,-0.32 -0.32,-0.63 -0.32,-1.11l0 -35.48 -7.76 0c-0.48,0 -0.79,-0.16 -1.11,-0.32 -0.32,-0.32 -0.32,-0.63 -0.32,-1.11l0 -8.87c0,-0.48 0.16,-0.79 0.32,-1.11 0.32,-0.32 0.63,-0.32 1.11,-0.32l7.76 0 0 -12.51c0,-0.48 0.16,-0.79 0.32,-1.11 0.32,-0.32 0.63,-0.32 1.11,-0.32l11.56 0c0.48,0 0.79,0.16 1.11,0.32 0.32,0.32 0.32,0.63 0.32,1.11l0 12.51 7.76 0z"/>
     <path class="fil0" d="M174.1 24.08c-2.22,0 -4.12,-0.79 -5.54,-2.22 -1.43,-1.58 -2.22,-3.48 -2.22,-5.54 0,-2.22 0.79,-4.12 2.22,-5.54 1.43,-1.58 3.33,-2.38 5.54,-2.38 2.22,0 4.12,0.79 5.54,2.38 1.43,1.58 2.22,3.33 2.22,5.54 0,2.22 -0.79,3.96 -2.22,5.54 -1.43,1.58 -3.33,2.22 -5.54,2.22zm-7.29 5.39c0,-0.48 0.16,-0.79 0.32,-1.11 0.32,-0.32 0.63,-0.32 1.11,-0.32l11.56 0c0.48,0 0.79,0.16 1.11,0.32 0.32,0.32 0.32,0.63 0.32,1.11l0 45.93c0,0.48 -0.16,0.79 -0.32,1.11 -0.32,0.32 -0.63,0.32 -1.11,0.32l-11.56 0c-0.48,0 -0.79,-0.16 -1.11,-0.32 -0.32,-0.32 -0.32,-0.63 -0.32,-1.11l0 -45.93z"/>
     <path class="fil0" d="M148.13 40.23c3.64,0.95 6.65,3.01 9.35,6.02 2.69,3.01 3.96,6.65 3.96,10.93 0,6.65 -2.06,11.56 -6.34,14.89 -4.12,3.33 -10.45,4.91 -19.01,4.91l-23.92 0c-0.47,0 -0.79,-0.16 -1.11,-0.32 -0.32,-0.32 -0.32,-0.63 -0.32,-1.11l0 -65.89c0,-0.48 0.16,-0.79 0.32,-1.11 0.32,-0.32 0.63,-0.48 1.11,-0.48l23.76 0c4.28,0 7.92,0.79 10.93,2.38 3.17,1.58 5.39,3.64 6.97,6.34 1.58,2.69 2.38,5.7 2.38,9.03 0,3.48 -0.79,6.34 -2.38,8.87 -1.58,2.53 -3.48,4.28 -5.86,5.39l0.16 0.16zm-5.86 -12.35c0,-4.12 -2.53,-6.34 -7.6,-6.34l-8.87 0 0 13.15 8.87 0c2.38,0 4.28,-0.63 5.7,-1.74 1.43,-1.11 2.06,-2.85 2.06,-5.23l-0.16 0.16zm-5.7 35.64c3.01,0 5.39,-0.63 7.13,-2.06 1.74,-1.43 2.69,-3.48 2.69,-6.18 0,-2.69 -0.95,-4.59 -2.69,-5.86 -1.74,-1.27 -4.12,-1.9 -7.13,-1.9l-10.93 0 0 16.16 10.93 0 0 -0.16z"/>
     <path class="fil0" d="M27.76 2.06c1.27,-1.27 3.01,-2.06 4.75,-2.06l11.72 0c1.43,0 2.22,1.74 1.27,2.85l-23.13 24.71 12.83 0 12.99 13.78 -25.82 0 25.82 27.56 -15.52 0c-1.74,0 -3.48,-0.79 -4.75,-2.06l-26.14 -27.88c-2.38,-2.53 -2.38,-6.34 0,-8.87l26.14 -27.88 -0.16 -0.16z"/>
     <path class="fil0" d="M63.7 94.25c-1.27,1.27 -3.01,2.06 -4.75,2.06l-11.72 0c-1.43,0 -2.22,-1.74 -1.27,-2.85l23.13 -24.71 -12.83 0 -12.99 -13.78 25.82 0 -25.8 -27.56 15.52 0c1.74,0 3.48,0.79 4.75,2.06l26.14 27.88c2.38,2.53 2.38,6.34 0,8.87l-26.15 27.88 0.16 0.16z"/>
    </g>
   </g>
  </g>
 </g>
</svg>
