<?xml version="1.0" encoding="UTF-8"?>
<!DOCTYPE svg PUBLIC "-//W3C//DTD SVG 1.1//EN" "http://www.w3.org/Graphics/SVG/1.1/DTD/svg11.dtd">
<!-- Creator: CorelDRAW 2021.5 -->
<svg xmlns="http://www.w3.org/2000/svg" xml:space="preserve" width="4.36678in" height="1.01906in" version="1.1" style="shape-rendering:geometricPrecision; text-rendering:geometricPrecision; image-rendering:optimizeQuality; fill-rule:evenodd; clip-rule:evenodd"
viewBox="0 0 226.72 52.91"
 xmlns:xlink="http://www.w3.org/1999/xlink"
 xmlns:xodm="http://www.corel.com/coreldraw/odm/2003">
 <defs>
  <style type="text/css">
   <![CDATA[
    .fil0 {fill:white}
   ]]>
  </style>
 </defs>
 <g id="Layer_x0020_1">
  <metadata id="CorelCorpID_0Corel-Layer"/>
  <path class="fil0" d="M0.39 50.81l3.16 0 0 2.01 -3.16 0 0 -2.01zm209.83 -27.2c-0.82,-0.51 -2.02,-0.78 -3.59,-0.78 -0.96,-0.02 -1.92,0.19 -2.8,0.59 -0.88,0.4 -1.65,0.99 -2.28,1.74 -1.35,1.54 -2.04,3.65 -2.04,6.32l0 12.22 -4.74 0 0 -23.98 4.74 0 0 4.94 0.12 0c0.61,-1.6 1.69,-2.98 3.1,-3.94 1.37,-0.93 2.99,-1.43 4.65,-1.42 0.95,-0.04 1.91,0.07 2.83,0.33l0 0.09 4.31 0 0 -5.85 4.74 -1.24 0 7.09 7.45 0 0 3.28 -7.45 0 0 13.51c0,1.61 0.34,2.76 1.01,3.44 0.67,0.69 1.79,1.03 3.35,1.03 1.08,0.03 2.16,-0.24 3.1,-0.79l-0.01 3.28c-1.12,0.5 -2.59,0.75 -4.42,0.75 -5.18,0 -7.78,-2.34 -7.77,-7.02l0 -14.19 -4.31 0 0 0.62zm-33.87 8.75l7.14 -0.79 0.02 2.38c0.02,0.96 -0.18,1.92 -0.57,2.79 -0.4,0.88 -0.99,1.65 -1.73,2.27 -1.53,1.34 -3.47,2 -5.82,2 -1.71,0 -3.08,-0.37 -4.12,-1.11 -0.48,-0.31 -0.87,-0.74 -1.14,-1.23 -0.27,-0.5 -0.41,-1.06 -0.41,-1.63 0.01,-1.61 0.57,-2.73 1.68,-3.36 1.09,-0.62 2.75,-1.06 4.95,-1.31zm7.13 11.33l4.75 0 0 -15.59c0,-5.96 -3.48,-8.94 -10.43,-8.94 -3.8,0 -7.16,0.75 -10.06,2.24l0 3.93c2.84,-1.96 6.21,-2.99 9.66,-2.95 4.06,0 6.1,2.04 6.1,6.11l-8.87 1.01c-6.51,0.73 -9.77,3.33 -9.77,7.82 -0.03,0.98 0.19,1.95 0.63,2.83 0.44,0.88 1.08,1.63 1.88,2.2 1.67,1.26 3.98,1.9 6.92,1.9 4,0 7.03,-1.43 9.11,-4.31l0.11 0 0 3.75 -0.01 0zm-24.08 0l-4.44 0 0 -20.72c0.02,-2.01 0.15,-4.02 0.37,-6.01l-0.1 0c-0.28,1.03 -0.66,2.04 -1.14,2.99l-13.02 23.74 -2.17 0 -13.02 -23.56c-0.5,-1.01 -0.88,-2.07 -1.15,-3.17l-0.1 0c0.18,2.01 0.24,4.04 0.21,6.05l0 20.67 -4.33 0 0 -30.88 5.89 0 11.7 21.53c0.69,1.19 1.27,2.42 1.76,3.71l0.16 0c0.76,-1.69 1.37,-2.96 1.83,-3.79l11.94 -21.45 5.59 0 0.02 30.88zm-47.47 0.51c1.83,0 3.31,-0.24 4.42,-0.75l0.01 -3.28c-0.94,0.55 -2.02,0.82 -3.1,0.79 -1.56,0 -2.68,-0.35 -3.35,-1.03 -0.67,-0.69 -1.01,-1.83 -1.01,-3.44l0 -13.52 7.45 0 0 -3.28 -7.45 0 0 -7.09 -4.74 1.24 0 5.85 -5.09 0 0 3.28 5.09 0 0 14.19c0,4.68 2.59,7.02 7.77,7.02zm-47.35 -16.15l0 12.08 6.59 0c2.85,0 5.06,-0.54 6.63,-1.63 0.75,-0.49 1.35,-1.15 1.77,-1.94 0.41,-0.78 0.62,-1.67 0.59,-2.56 0,-3.96 -3.33,-5.94 -10,-5.94l-5.57 0zm0 -14.38l0 10.84 4.96 0c2.66,0 4.75,-0.51 6.27,-1.55 0.73,-0.47 1.33,-1.12 1.72,-1.9 0.4,-0.77 0.6,-1.63 0.56,-2.49 0,-3.26 -2.65,-4.9 -7.95,-4.9l-5.56 0zm-4.85 30.01l0 -33.57 11.79 0c3.59,0 6.43,0.71 8.53,2.13 2.1,1.42 3.15,3.27 3.15,5.55 0.03,1.84 -0.65,3.62 -1.91,4.97 -1.27,1.41 -3.03,2.41 -5.27,3l0 0.09c2.79,0.26 5.03,1.12 6.71,2.56 0.81,0.69 1.47,1.55 1.91,2.52 0.44,0.97 0.64,2.04 0.62,3.1 0,2.88 -1.27,5.2 -3.81,6.98 -2.54,1.77 -5.74,2.66 -9.61,2.67l-12.1 -0zm35.67 0l-4.75 0 0 -23.97 4.75 0 0 23.97zm-2.31 -30.06c-0.78,0.02 -1.55,-0.22 -2.17,-0.7 -0.28,-0.21 -0.5,-0.47 -0.66,-0.78 -0.16,-0.31 -0.23,-0.65 -0.23,-1 0,-0.35 0.07,-0.69 0.23,-1 0.16,-0.31 0.38,-0.58 0.66,-0.78 0.62,-0.49 1.38,-0.74 2.17,-0.71 0.79,-0.03 1.58,0.22 2.21,0.71 0.28,0.2 0.51,0.47 0.67,0.78 0.16,0.31 0.24,0.65 0.24,1 0,0.35 -0.08,0.69 -0.24,1 -0.16,0.31 -0.39,0.57 -0.67,0.78 -0.64,0.49 -1.42,0.75 -2.21,0.72zm-53.24 23.36c0,2.66 -1.29,4.66 -3.19,5.67 -1.9,1 -4.57,1.58 -9.1,1.58l-27.56 0 0 -1.32 27.43 0c4.18,0 6.99,-0.67 8.37,-1.43 1.52,-0.83 2.55,-2.84 2.55,-4.52 0,-2.63 -1.77,-4.01 -3.1,-4.79 -0.68,-0.4 -2.94,-1.42 -8.88,-1.42l-10.46 0 0 -1.32 10.71 0c6.71,0 8.14,0.66 9.76,1.64 1.73,1.06 3.47,2.92 3.47,5.9zm-12.13 -20.71l-9.53 0 0 1.1 9.53 0 0 -1.1zm-19.43 -3.38l19.8 0 0 1.1 -19.8 0 0 -1.1zm6.88 3.38l-11.96 0 0 1.1 11.96 0 0 -1.1zm-8.32 -7.58l5.22 0 0 0.95 -5.22 0 0 -0.95zm9.31 38.23l-12.61 0 0 1.38 12.61 0 0 -1.38zm-12.61 -8.81l13.4 0 0 1.15 -13.4 0 0 -1.15zm7.16 -4.12l-4.41 0 0 1.16 4.41 0 0 -1.16zm8.69 4.2l8.67 0 0 0.99 -8.67 0 0 -0.99zm8.75 -4.2l-14.9 0 0 1.16 14.9 0 0 -1.16zm10.65 -17.55c-0.01,2.56 -0.78,5.06 -2.21,7.18 -0.19,-0.1 -0.37,-0.21 -0.55,-0.31 1.77,-1.86 2.76,-4.33 2.76,-6.88zm0 -0.27c0,0.08 0,0.18 0,0.26 0,-0.08 0,-0.17 0,-0.26zm-0.31 8.74l0 0 -0.07 -0.06c1.65,-2.38 2.48,-5.28 2.48,-8.69 0,-5.06 -1.74,-9.02 -5.21,-11.89 -3.48,-2.87 -8.25,-4.31 -14.34,-4.3l-15.15 0 0 2.12 14.88 0c5.18,0 9.79,1.15 12.71,3.54 2.72,2.22 3.72,4.13 4.52,7 -0.81,-2.61 -2.72,-4.29 -3.9,-5.28 -2.07,-1.75 -4.65,-2.96 -11.68,-2.96l-11.69 0 0 2.06 11.43 0c5.99,0 8.19,0.74 10.21,2.23 2.58,1.91 4.18,4.19 4.18,7.49 0,2.97 -1.05,4.56 -2.79,6.2 -0.21,-0.08 -0.41,-0.16 -0.62,-0.23l0.2 -0.1c1.9,-1.05 3.2,-3.05 3.2,-5.88 0,-3.08 -1.77,-5.01 -3.5,-6.1 -1.63,-1.02 -3.17,-1.7 -9.75,-1.7l-8.41 0 0 1.36 8.16 0c5.95,0 8.2,1.06 8.88,1.48 1.34,0.82 3.1,2.24 3.1,4.97 0,1.74 -1.03,3.83 -2.54,4.68 -0.5,0.27 -1.01,0.5 -1.55,0.65 -2.26,-0.51 -4.57,-0.76 -6.88,-0.74l-10.13 0 0 2.13 9.86 0c5.18,0 9.86,1.06 12.71,3.54 2.16,1.84 3.73,4.27 4.51,6.99 -0.8,-2.61 -2.47,-4.19 -3.9,-5.28 -2.17,-1.64 -4.65,-2.97 -11.68,-2.96l-15.88 0 0 2.06 15.63 0c5.99,0 8.18,0.74 10.2,2.23 2.58,1.91 4.16,4.19 4.16,7.49 0,3.18 -1.6,5.49 -4.19,7.41 -2.65,1.95 -6.71,2.02 -8.35,2.02l-8.69 0 0 2.06 6.49 0c5.44,0 9.06,-0.47 12.2,-2.79 2.94,-2.2 4.51,-5.03 4.51,-8.69 0.03,1.96 -0.39,3.9 -1.23,5.68 -0.84,1.77 -2.07,3.33 -3.62,4.56 -2.97,2.46 -8.28,3.54 -13.59,3.54l-17.08 0 0 2.11 17.21 0c6.41,0 11.42,-1.39 15,-4.18 3.6,-2.78 5.4,-6.7 5.4,-11.73 -0.01,-5.06 -1.76,-9.03 -5.23,-11.9 -0.06,-0.07 -0.12,-0.12 -0.2,-0.17z"/>
 </g>
</svg>
