<?xml version="1.0" encoding="UTF-8"?>
<!DOCTYPE svg PUBLIC "-//W3C//DTD SVG 1.1//EN" "http://www.w3.org/Graphics/SVG/1.1/DTD/svg11.dtd">
<!-- Creator: CorelDRAW 2021.5 -->
<svg xmlns="http://www.w3.org/2000/svg" xml:space="preserve" width="3.8807in" height="1.0665in" version="1.1" style="shape-rendering:geometricPrecision; text-rendering:geometricPrecision; image-rendering:optimizeQuality; fill-rule:evenodd; clip-rule:evenodd"
viewBox="0 0 202.78 55.73"
 xmlns:xlink="http://www.w3.org/1999/xlink"
 xmlns:xodm="http://www.corel.com/coreldraw/odm/2003">
 <defs>
  <style type="text/css">
   <![CDATA[
    .fil0 {fill:white;fill-rule:nonzero}
   ]]>
  </style>
 </defs>
 <g id="Layer_x0020_1">
  <metadata id="CorelCorpID_0Corel-Layer"/>
  <g id="_1555312107024">
   <g id="Layer_x0020_1_0">
    <g id="_1942034063664">
     <g id="页面-2">
      <g id="WEB_demo0120">
       <g id="_1">
        <path id="形状" class="fil0" d="M36.57 38.31l0 17.42 -17.41 0 0 -17.42 17.41 0zm89.08 -19.97c5.76,0 8.56,4.38 8.56,9.72 0,4.92 -2.47,9.55 -7.88,9.55 -2.26,0 -4.69,-0.8 -5.99,-2.69l-0.12 -0.18 -0.07 0 0 9.12 -4.03 0 0 -25.03 3.82 0 0 2.47 0.07 0c1.13,-2.08 3.32,-2.97 5.65,-2.97l0 0zm-41.01 0c5.69,0 9.21,5.07 8.65,10.47l-0.02 0.2 -13.43 0c0,2.86 1.56,5.41 4.92,5.41 2.26,0 3.66,-0.97 4.39,-2.86l0.06 -0.18 3.82 0c-0.88,3.99 -4.27,6.22 -8.27,6.22 -5.73,0 -8.94,-3.99 -8.94,-9.61 0,-5.2 3.39,-9.65 8.83,-9.65l0 0zm19.66 0c5.69,0 9.21,5.07 8.65,10.47l-0.02 0.2 -13.43 0c0,2.86 1.56,5.41 4.92,5.41 2.26,0 3.66,-0.97 4.39,-2.86l0.07 -0.18 3.82 0c-0.88,3.99 -4.27,6.22 -8.27,6.22 -5.73,0 -8.94,-3.99 -8.94,-9.61 -0.01,-5.2 3.39,-9.65 8.83,-9.65l0 0zm41.43 0c4.17,0 7.72,2.05 8.22,6.38l0.02 0.22 -4.03 0c-0.32,-2.23 -1.95,-3.43 -4.17,-3.43l-0.19 0c-0.03,0 -0.06,0 -0.1,0l-0.2 0.02c-0.03,0 -0.06,0.01 -0.11,0.01l-0.2 0.02c-0.07,0.01 -0.14,0.02 -0.21,0.03l-0.21 0.04c-1.85,0.42 -3.8,1.99 -3.8,6.51 0,3.04 1.35,6.25 4.84,6.25 2.28,0 3.88,-1.48 4.32,-3.98l0.03 -0.19 4.03 0c-0.74,4.74 -3.67,7.35 -8.38,7.35 -5.73,0 -8.87,-4.06 -8.87,-9.43 0.01,-5.5 3.01,-9.81 9.02,-9.81l0 0zm19.9 0c5.86,0 9.22,4.03 9.22,9.61 0,5.62 -3.36,9.65 -9.22,9.65 -5.86,0 -9.22,-4.03 -9.22,-9.65 0,-5.59 3.36,-9.61 9.22,-9.61l0 0zm-103.43 -6.47c7.69,0 11.06,5.53 11.14,12.39l0 0.24c0,6.89 -3.29,12.49 -10.88,12.61l-0.26 0 -10.46 0 0 -25.24 10.46 0 0 0zm120.15 6.97l0 18.28 -4.03 0 0 -18.28 4.03 0zm13.97 -0.49c3.89,0 6.38,2.04 6.47,6.01l0 0.21 0 12.55 -4.03 0 0 -11.49c-0.07,-2.86 -1.2,-4.1 -3.57,-4.1 -2.63,0 -4.35,2.03 -4.41,4.64l0 0.17 0 10.78 -4.03 0 0 -18.28 3.82 0 0 2.69 0.07 0.07c1.19,-2.02 3.28,-3.25 5.69,-3.25l0 0zm-178.9 0.82l0 17.42 -17.42 0 0 -17.42 17.42 0 0 0zm19.15 0c0,9.52 -7.64,17.26 -17.12,17.42l-0.29 0 0 -17.42 17.42 0 0 0zm88.55 2.36c-3.39,0 -5.13,2.58 -5.13,6.47 0,3.67 1.87,6.43 5.13,6.43 3.67,0 5.05,-3.25 5.05,-6.43 0.01,-3.32 -1.73,-6.47 -5.05,-6.47l0 0zm40.51 0c-3.6,0 -5.2,3.29 -5.2,6.43 0,3.18 1.59,6.47 5.2,6.47 3.6,0 5.2,-3.29 5.2,-6.47 0,-3.15 -1.59,-6.43 -5.2,-6.43l0 0zm-105.12 -6.04l-4.35 0 0 18.02 4.35 0c5.35,0 7.45,-2.35 8.13,-5.75l0.06 -0.32c0.01,-0.06 0.02,-0.11 0.02,-0.16l0.05 -0.33c0.01,-0.06 0.02,-0.11 0.02,-0.17l0.04 -0.34c0.01,-0.06 0.01,-0.11 0.02,-0.17l0.02 -0.35c0,-0.06 0.01,-0.11 0.01,-0.18l0.02 -0.35 0 0 0.01 -0.36 0 0 0.01 -0.36 0 0 0 -0.36 0 0 -0.01 -0.37 0 0 -0.01 -0.36 0 0 -0.02 -0.35c0,-0.06 -0.01,-0.11 -0.01,-0.18l-0.02 -0.35 0 0 -0.03 -0.34c-0.01,-0.06 -0.02,-0.11 -0.02,-0.17l-0.04 -0.33c-0.02,-0.11 -0.03,-0.22 -0.05,-0.32l-0.06 -0.32c-0.67,-3.34 -2.73,-5.68 -7.88,-5.75l-0.26 0.03 0 0zm24.14 6.04c-2.73,0 -4.62,2.04 -4.8,4.67l-0.01 0.17 9.4 0c-0.14,-2.55 -1.87,-4.84 -4.59,-4.84l0 0zm19.66 0c-2.73,0 -4.62,2.04 -4.8,4.67l-0.01 0.17 9.4 0c-0.14,-2.55 -1.87,-4.84 -4.59,-4.84zm-86.89 -21.52l0 17.42 -17.42 0 0 -17.42 17.42 0zm1.74 0c9.52,0 17.25,7.64 17.41,17.12l0 0.28 -17.41 0 0 -17.41zm163.19 11.87l0 3.82 -4.03 0 0 -3.82 4.03 0z"/>
       </g>
      </g>
     </g>
    </g>
   </g>
  </g>
 </g>
</svg>
