<?xml version="1.0" encoding="UTF-8"?>
<!DOCTYPE svg PUBLIC "-//W3C//DTD SVG 1.1//EN" "http://www.w3.org/Graphics/SVG/1.1/DTD/svg11.dtd">
<!-- Creator: CorelDRAW 2021.5 -->
<svg xmlns="http://www.w3.org/2000/svg" xml:space="preserve" width="4.27274in" height="0.850063in" version="1.1" style="shape-rendering:geometricPrecision; text-rendering:geometricPrecision; image-rendering:optimizeQuality; fill-rule:evenodd; clip-rule:evenodd"
viewBox="0 0 474.97 94.5"
 xmlns:xlink="http://www.w3.org/1999/xlink"
 xmlns:xodm="http://www.corel.com/coreldraw/odm/2003">
 <defs>
  <style type="text/css">
   <![CDATA[
    .fil1 {fill:white}
    .fil0 {fill:white;fill-rule:nonzero}
   ]]>
  </style>
 </defs>
 <g id="Layer_x0020_1">
  <metadata id="CorelCorpID_0Corel-Layer"/>
  <g id="_1555298493840">
   <g>
    <polygon id="XMLID_278_" class="fil0" points="110.27,82.21 110.27,11.33 128.33,11.33 128.33,68.03 160.11,68.03 160.11,82.21 "/>
    <polygon id="XMLID_277_" class="fil0" points="474.97,82.21 439.75,46.99 474.97,11.77 449.19,11.77 426.87,34.11 426.87,11.33 408.81,11.33 408.81,82.21 426.87,82.21 426.87,59.87 449.19,82.21 "/>
    <polygon id="XMLID_272_" class="fil0" points="269.21,68.47 264.91,82.21 246.01,82.21 270.51,11.33 294.55,11.33 319.05,82.21 300.15,82.21 295.85,68.47 291.55,55.15 282.53,25.51 273.07,55.15 "/>
    <polygon id="XMLID_270_" class="fil0" points="348.25,35.83 348.25,82.21 331.07,82.21 331.07,11.33 353.41,11.33 380.03,59.87 380.03,11.33 397.23,11.33 397.23,82.21 374.89,82.21 "/>
    <path id="XMLID_247_" class="fil0" d="M232.71 54.73c-0.86,-2.14 -2.14,-3.86 -3.44,-5.58 -1.28,-1.28 -3,-2.58 -5.16,-3.44 -1.72,-0.86 -3.86,-1.28 -5.58,-1.72 1.72,-0.42 3.44,-0.86 5.16,-1.72 1.72,-0.86 3,-1.72 4.3,-3 1.28,-1.28 2.14,-2.58 2.58,-4.72 0.86,-1.72 0.86,-3.86 0.86,-6.02 0,-2.14 -0.42,-4.3 -0.86,-6.44 -0.86,-2.14 -1.72,-3.86 -3.86,-5.58 -1.72,-1.72 -3.86,-3 -6.88,-3.86 -3,-0.86 -6.44,-1.28 -10.74,-1.28l-19.34 0 -9.88 0 -8.16 0 0 70.88 8.16 0 9.88 0 21.9 0c7.3,0 12.46,-1.72 16.32,-5.16 3.86,-3.44 5.58,-8.16 5.58,-14.18 0.44,-3.04 0.02,-5.62 -0.84,-8.18l0 0zm-42.54 -31.8l18.9 0c1.72,0 3,0.42 4.3,0.86 1.28,0.42 2.14,0.86 3,1.72 0.86,0.86 1.28,1.72 1.72,2.58 0.42,0.86 0.42,1.72 0.42,3 0,2.14 -0.86,4.3 -2.14,5.58 -1.28,1.72 -3.86,2.14 -7.3,2.14l-18.9 0 0 -15.88 0 0zm28.36 44.24c-1.28,1.72 -3.86,2.14 -7.3,2.14l-21.06 0 0 -15.9 21.04 0c1.72,0 3,0.42 4.3,0.86 1.28,0.42 2.14,0.86 3,1.72 0.86,0.86 1.28,1.72 1.72,2.58 0.42,0.86 0.42,1.72 0.42,3 0.02,2.18 -0.4,4.32 -2.12,5.6l0 0z"/>
   </g>
   <path class="fil1" d="M47.25 0c26.09,0 47.25,21.15 47.25,47.25 0,26.09 -21.15,47.25 -47.25,47.25 -26.09,0 -47.25,-21.15 -47.25,-47.25 0,-26.09 21.15,-47.25 47.25,-47.25zm5.6 55.99c-0.72,-1.14 -0.94,-1.38 -1.28,-1.9 -4.82,-7.42 -2.06,-12.18 0.1,-14.62 0.26,-0.3 0.52,-0.64 0.74,-0.92 0.32,-0.38 0.62,-0.8 0.84,-1.24l0.04 -0.06c0.42,-0.86 0.64,-1.82 0.64,-2.78 0,-0.02 0,-0.02 0,-0.04 0,-0.04 0,-0.08 0,-0.12 0,-3.56 -2.88,-6.44 -6.44,-6.44 -3.56,0 -6.46,2.88 -6.46,6.46 0,1.12 0.28,2.22 0.84,3.18 0.08,0.16 0.44,0.64 0.48,0.72 0.08,0.12 0.16,0.24 0.28,0.34 0.22,0.28 0.46,0.54 0.72,0.78 0.64,0.7 1.2,1.5 1.68,2.32 0.78,1.56 1.18,3.3 1.18,5.06 0,2.46 -0.8,4.86 -2.26,6.84 -1.06,1.48 -2.14,2.46 -3.74,3.34 -6.72,3.2 -12.16,-1.22 -12.16,-1.22l-0.54 -0.44c-0.4,-0.32 -0.76,-0.7 -1.02,-1.14 -4.82,-7.42 -2.06,-12.18 0.1,-14.62 0.26,-0.3 0.52,-0.64 0.74,-0.92 0.32,-0.38 0.62,-0.8 0.84,-1.26l0.04 -0.06c0.44,-0.88 0.68,-1.84 0.68,-2.82 -0.3,-3.32 -3.08,-5.88 -6.42,-5.88 -3.34,0 -6.12,2.54 -6.42,5.88 0,1.06 0.28,2.12 0.78,3.06 0.08,0.16 0.44,0.64 0.48,0.74 0.08,0.12 0.16,0.24 0.28,0.34 0.22,0.28 0.46,0.54 0.72,0.78 0.64,0.7 1.2,1.5 1.66,2.32 0.76,1.56 1.16,3.28 1.16,5.02 0,2.48 -0.8,4.88 -2.28,6.88l-0.82 1.16c-1.28,1.22 -2,2.9 -2,4.66l0 0.14c0.06,3.52 2.94,6.34 6.44,6.34 1.7,0 3.34,-0.68 4.56,-1.88 0.32,-0.22 0.52,-0.38 0.82,-0.56 7.42,-4.82 12.18,-2.06 14.62,0.1 0.2,0.18 0.4,0.34 0.6,0.5 1.2,1.18 2.82,1.84 4.52,1.84 3.52,0 6.4,-2.84 6.44,-6.36 -0.06,-1.34 -0.42,-2.4 -1.18,-3.52zm25.2 0.38l-0.2 -0.3 -0.06 -0.08c-0.72,-1.14 -0.94,-1.38 -1.28,-1.9 -4.82,-7.42 -2.06,-12.18 0.1,-14.62 0.26,-0.3 0.52,-0.64 0.74,-0.92 0.32,-0.38 0.62,-0.8 0.84,-1.24l0.04 -0.06c0.42,-0.84 0.64,-1.78 0.64,-2.74 0,-0.02 0,-0.06 0,-0.08 -0.3,-3.32 -3.08,-5.88 -6.42,-5.88 -3.34,0 -6.12,2.54 -6.42,5.88 0,1.06 0.28,2.12 0.78,3.06 0.08,0.16 0.44,0.64 0.48,0.72 0.08,0.12 0.16,0.24 0.28,0.34 0.22,0.28 0.46,0.54 0.72,0.78 0.64,0.72 1.2,1.5 1.66,2.32 0.76,1.56 1.16,3.28 1.16,5.02 0,2.48 -0.8,4.88 -2.28,6.88l-1.6 2.3c-0.06,0.06 -0.1,0.14 -0.14,0.2l-0.04 0.06c-0.62,1 -0.96,2.14 -0.96,3.32 0,0.04 0,0.08 0,0.12 0.3,3.32 3.08,5.88 6.42,5.88 3.34,0 6.12,-2.54 6.42,-5.88 0,-1.12 -0.3,-2.22 -0.88,-3.18zm-11.42 -9.84c0,-3.68 -2.95,-6.66 -6.58,-6.66 -3.63,0 -6.58,2.98 -6.58,6.66 0,3.68 2.95,6.66 6.58,6.66 3.63,0 6.58,-2.98 6.58,-6.66z"/>
  </g>
 </g>
</svg>
