<?xml version="1.0" encoding="UTF-8"?>
<!DOCTYPE svg PUBLIC "-//W3C//DTD SVG 1.1//EN" "http://www.w3.org/Graphics/SVG/1.1/DTD/svg11.dtd">
<!-- Creator: CorelDRAW 2021.5 -->
<svg xmlns="http://www.w3.org/2000/svg" xml:space="preserve" width="2.69912in" height="0.80974in" version="1.1" style="shape-rendering:geometricPrecision; text-rendering:geometricPrecision; image-rendering:optimizeQuality; fill-rule:evenodd; clip-rule:evenodd"
viewBox="0 0 149.91 44.97"
 xmlns:xlink="http://www.w3.org/1999/xlink"
 xmlns:xodm="http://www.corel.com/coreldraw/odm/2003">
 <defs>
  <style type="text/css">
   <![CDATA[
    .fil0 {fill:white;fill-rule:nonzero}
   ]]>
  </style>
 </defs>
 <g id="Layer_x0020_1">
  <metadata id="CorelCorpID_0Corel-Layer"/>
  <g id="_1594467323232">
   <g id="Layer_x0020_1_0">
    <g id="_1941182027472">
     <path class="fil0" d="M43.96 0l-42.96 0c-0.27,0 -0.52,0.11 -0.71,0.29 -0.19,0.19 -0.29,0.44 -0.29,0.71l0 42.97c0,0.26 0.11,0.52 0.29,0.71 0.19,0.19 0.44,0.29 0.71,0.29l42.97 0c0.26,0 0.52,-0.11 0.71,-0.29 0.19,-0.19 0.29,-0.44 0.29,-0.71l0 -42.97c0,-0.26 -0.11,-0.52 -0.29,-0.71 -0.19,-0.19 -0.44,-0.29 -0.71,-0.29zm-13.99 28.98c0,0.26 -0.11,0.52 -0.29,0.71 -0.19,0.19 -0.44,0.29 -0.71,0.29l-12.99 0c-0.26,0 -0.52,-0.11 -0.71,-0.29 -0.19,-0.19 -0.29,-0.44 -0.29,-0.71l0 -12.99c0,-0.26 0.11,-0.52 0.29,-0.71 0.19,-0.19 0.44,-0.29 0.71,-0.29l12.99 0c0.26,0 0.52,0.11 0.71,0.29 0.19,0.19 0.29,0.44 0.29,0.71l0 12.99z"/>
     <path class="fil0" d="M133.93 14.99l-12.99 0c-0.55,0 -1,0.45 -1,1l0 12.99c0,0.55 0.45,1 1,1l12.99 0c0.55,0 1,-0.45 1,-1l0 -12.99c-0.01,-0.55 -0.45,-1 -1,-1l0 0z"/>
     <path class="fil0" d="M118.93 0.01l-12.99 0c-0.55,0 -1,0.45 -1,1l0 12.99c0,0.55 0.45,1 1,1l12.99 0c0.55,0 1,-0.45 1,-1l0 -12.99c0,-0.55 -0.45,-1 -1,-1z"/>
     <path class="fil0" d="M148.9 0.01l-12.99 0c-0.55,0 -1,0.45 -1,1l0 12.99c0,0.55 0.45,1 1,1l12.99 0c0.55,0 1,-0.45 1,-1l0 -12.99c0,-0.55 -0.45,-1 -1,-1z"/>
     <path class="fil0" d="M118.93 29.98l-12.99 0c-0.55,0 -1,0.45 -1,1l0 12.99c0,0.55 0.45,1 1,1l12.99 0c0.55,0 1,-0.45 1,-1l0 -12.99c0,-0.56 -0.45,-1 -1,-1z"/>
     <path class="fil0" d="M148.9 29.98l-12.99 0c-0.55,0 -1,0.45 -1,1l0 12.99c0,0.55 0.45,1 1,1l12.99 0c0.55,0 1,-0.45 1,-1l0 -12.99c0,-0.56 -0.45,-1 -1,-1z"/>
     <path class="fil0" d="M96.43 0.01l-12.99 0c-0.55,0 -1,0.45 -1,1l0 12.99c0,0.55 0.45,1 1,1l12.99 0c0.55,0 1,-0.45 1,-1l0 -12.99c0,-0.55 -0.45,-1 -1,-1z"/>
     <path class="fil0" d="M96.43 29.98l-12.99 0c-0.55,0 -1,0.45 -1,1l0 12.99c0,0.55 0.45,1 1,1l12.99 0c0.55,0 1,-0.45 1,-1l0 -12.99c0,-0.56 -0.45,-1 -1,-1z"/>
     <path class="fil0" d="M82.44 15.98c0,-0.26 -0.11,-0.52 -0.29,-0.71 -0.19,-0.19 -0.44,-0.29 -0.71,-0.29l-13.99 0 0 -13.98c0,-0.26 -0.11,-0.52 -0.29,-0.71 -0.19,-0.19 -0.44,-0.29 -0.71,-0.29l-12.98 0c-0.26,0 -0.52,0.11 -0.71,0.29 -0.19,0.19 -0.29,0.44 -0.29,0.71l0 42.94c0,0.26 0.11,0.52 0.29,0.71 0.19,0.19 0.44,0.29 0.71,0.29l12.99 0c0.26,0 0.52,-0.11 0.71,-0.29 0.19,-0.19 0.29,-0.44 0.29,-0.71l0 -13.98 13.99 0c0.26,0 0.52,-0.11 0.71,-0.29 0.19,-0.19 0.29,-0.44 0.29,-0.71l-0.01 -12.99 0 0z"/>
    </g>
   </g>
  </g>
 </g>
</svg>
