<?xml version="1.0" encoding="UTF-8"?>
<!DOCTYPE svg PUBLIC "-//W3C//DTD SVG 1.1//EN" "http://www.w3.org/Graphics/SVG/1.1/DTD/svg11.dtd">
<!-- Creator: CorelDRAW 2021.5 -->
<svg xmlns="http://www.w3.org/2000/svg" xml:space="preserve" width="2.50091in" height="0.559976in" version="1.1" style="shape-rendering:geometricPrecision; text-rendering:geometricPrecision; image-rendering:optimizeQuality; fill-rule:evenodd; clip-rule:evenodd"
viewBox="0 0 218.05 48.82"
 xmlns:xlink="http://www.w3.org/1999/xlink"
 xmlns:xodm="http://www.corel.com/coreldraw/odm/2003">
 <defs>
  <style type="text/css">
   <![CDATA[
    .fil0 {fill:white}
   ]]>
  </style>
 </defs>
 <g id="Layer_x0020_1">
  <metadata id="CorelCorpID_0Corel-Layer"/>
  <g id="_2870590689616">
   <path class="fil0" d="M70.51 24.3c0.12,-0.32 3.71,-7.68 4.26,-8.3l4.3 8.34 -8.56 -0.04zm-1.37 2.86l11.51 -0.02 2.27 4.56 4.42 0.01c-0.33,-1.34 -9.91,-18.46 -11.78,-22.27 -0.37,-0.76 -0.35,-0.88 -0.79,-1.2 -1.04,1.87 -1.99,4.01 -3.04,5.85l-6.26 11.68c-0.74,1.45 -2.73,4.71 -3.06,5.94l4.35 -0.03 2.38 -4.52z"/>
   <path class="fil0" d="M120.02 25.66c-1.75,5.38 -12.4,3.57 -10.12,-3.21 1.78,-5.27 12.31,-3.54 10.12,3.21zm0.11 4.24l0.1 5.8 4.25 0.04 -0.02 -19.25 -3.98 0.02 -0.06 1.87c-0.96,-0.51 -1.64,-1.53 -4.2,-1.91 -11.5,-1.71 -14.65,11.49 -5.56,14.77 3.51,1.27 7.3,0.65 9.47,-1.34z"/>
   <path class="fil0" d="M169.75 23.89c0.23,-5.85 8.43,-6.14 10.07,-1.77 -1.04,0.71 -3.49,0.72 -4.88,0.95 -1.72,0.29 -3.44,0.62 -5.19,0.83zm14.23 0.06c0.79,-8.51 -14.83,-10.68 -17.88,-2.4 -1.42,3.88 0.44,7.83 4.73,9.54 1.8,0.72 4.59,0.99 6.75,0.69 2.06,-0.28 4.4,-1.11 5.16,-2.36 -0.48,-0.6 -1.72,-1.46 -1.89,-2.07 -1.35,0.33 -0.87,0.69 -2.56,1.18 -1.03,0.3 -2.15,0.42 -3.29,0.32 -2.26,-0.2 -3.98,-1 -4.61,-2.65l13.58 -2.25z"/>
   <path class="fil0" d="M209.18 23.79l0.01 -2.89 -11.36 -0.09 0.04 -5.95 12.69 0.07 0.04 -3.09 -17.04 0.01 -0.02 19.73 4.12 0.09 0.12 -7.71c2.23,-0.58 8.56,0.05 11.41,-0.18z"/>
   <path class="fil0" d="M140.37 29.89l0.1 1.78 3.95 0.03 0.06 -15.21 -4.19 0.02c-0.42,5.39 1.85,11.9 -4.66,12.25 -2.79,0.15 -4.36,-1.15 -4.5,-3.72 -0.15,-2.71 0.22,-5.91 -0.08,-8.53l-4.04 0c-0.33,1.38 -0.12,5.97 -0.12,7.69 -0.01,10.45 10.72,8.11 13.49,5.69z"/>
   <path class="fil0" d="M104.42 28.37l-2.97 -1.59c-1.22,0.82 -2.65,2.67 -6.17,1.91 -2.17,-0.47 -3.87,-2.05 -3.94,-4.48 -0.07,-2.55 1.64,-4.14 3.75,-4.67 3.61,-0.92 5.06,0.96 6.35,1.81l3 -1.46c-2.61,-5.68 -17.54,-4.78 -17.34,4.31 0.09,4.05 3.13,6.57 6.8,7.38 4.19,0.93 9.2,-0.34 10.53,-3.21z"/>
   <path class="fil0" d="M159.11 31.67c0.56,-8.1 -2.18,-11.54 6.25,-12.07l0.13 -3.22c-3.08,-0.17 -5.03,0.74 -6.52,2.18l-0.07 -2.05 -3.98 0.09 0.02 15.08 4.18 -0.02z"/>
   <path class="fil0" d="M147.58 31.75l4.22 -0.09c0.03,-2.65 -0.33,-13.48 0.14,-15.2l-4.37 0.06 0 15.22z"/>
   <polygon class="fil0" points="213.46,31.75 217.24,31.74 217.34,21.07 213.37,21.09 "/>
   <path class="fil0" d="M185.64 29.83c0.34,3.02 6.1,2.58 5.44,-0.8 -0.51,-2.63 -5.81,-2.53 -5.44,0.8z"/>
   <path class="fil0" d="M149.03 9.79c-3.73,0.96 -1.96,4.94 1.55,4.15 3.21,-0.73 2.02,-5.06 -1.55,-4.15z"/>
   <path class="fil0" d="M214.59 14.3c-3.38,0.78 -1.82,4.98 1.67,4.07 3.12,-0.81 1.91,-4.9 -1.67,-4.07z"/>
   <polygon class="fil0" points="19.99,6.96 26.11,15.6 30.69,15.6 20.18,0 -0,28.99 37.3,28.99 37.3,25.7 6.96,25.82 "/>
   <polygon class="fil0" points="38.09,41.87 31.97,33.22 27.39,33.22 37.9,48.82 58.08,19.83 20.78,19.83 20.78,23.12 51.12,23 "/>
  </g>
 </g>
</svg>
