<?xml version="1.0" encoding="UTF-8"?>
<!DOCTYPE svg PUBLIC "-//W3C//DTD SVG 1.1//EN" "http://www.w3.org/Graphics/SVG/1.1/DTD/svg11.dtd">
<!-- Creator: CorelDRAW 2021.5 -->
<svg xmlns="http://www.w3.org/2000/svg" xml:space="preserve" width="3.27377in" height="1.25191in" version="1.1" style="shape-rendering:geometricPrecision; text-rendering:geometricPrecision; image-rendering:optimizeQuality; fill-rule:evenodd; clip-rule:evenodd"
viewBox="0 0 238.4 91.17"
 xmlns:xlink="http://www.w3.org/1999/xlink"
 xmlns:xodm="http://www.corel.com/coreldraw/odm/2003">
 <defs>
  <style type="text/css">
   <![CDATA[
    .fil0 {fill:white}
    .fil1 {fill:white;fill-rule:nonzero}
   ]]>
  </style>
 </defs>
 <g id="Layer_x0020_1">
  <metadata id="CorelCorpID_0Corel-Layer"/>
  <g id="_2869832916864">
   <g>
    <path class="fil0" d="M-0 90.79l30.92 0.06 24.79 -35.58c6.72,-10.17 11.19,-23.02 6.53,-35.94l-3.84 -7.26c-0.97,-1.41 -0.91,-1.38 -2.13,-2.05 -1.88,1.39 -12.18,17.02 -14.21,19.92 -4.56,6.5 -41.57,58.76 -42.07,60.85z"/>
    <path class="fil0" d="M38.36 0l-18.04 0c-0.54,1.15 0.02,0.64 -1.37,1.14 -0.84,0.31 -4.17,0.42 -6.26,1.39 -0.1,1.62 -0.01,2.29 0.21,3.9 0.07,0.51 0.23,1.17 0.22,1.75l-0.49 1.96 -2.47 -6.29 -9.88 4.1c2.14,7.73 6.59,7.67 5.69,15.33 -1.13,9.62 -3.31,23.69 -3.81,32.39 15.94,-0.74 13.22,0.74 20.84,-10.74 3.6,-5.42 6.16,-7.58 7.35,-15.64 0.3,-2.05 -0.29,-5.7 0.05,-6.73 2.2,1.04 1.34,5.83 2.54,7.89 1.11,-0.68 16.63,-22.81 17.23,-24.88 -1.72,-1.59 -3.44,-2.32 -5.54,-3.07 -1.18,-0.42 -1.93,-0.66 -3.08,-0.95 -0.19,-0.05 -1.62,-0.39 -1.65,-0.4 -1.37,-0.55 -0.94,-0.01 -1.52,-1.17z"/>
    <path class="fil0" d="M40.25 90.73c5.96,0.61 20.01,0.5 26.19,0.12 3.78,-0.23 6.44,-2.5 8.27,-4.9 1.44,-1.89 4.61,-6.15 5.37,-7.76 -3.48,-6.12 -10.82,-7.67 -10.66,-29.01 -1.5,0.69 -3.04,3.54 -4.09,5.04 -1.26,1.8 -2.31,3.22 -3.58,5.08 -2.64,3.87 -20.95,29.71 -21.5,31.42z"/>
   </g>
   <path class="fil1" d="M96.09 36.04l7.84 -29.84 9.81 0 7.84 29.84 -5.8 0 -1.62 -6.57 -10.66 0 -1.62 6.57 -5.8 0zm8.74 -11.77l8.01 0 -3.62 -14.54 -0.77 0 -3.62 14.54zm29.29 12.36c-2.76,0 -5.02,-0.6 -6.78,-1.79 -1.76,-1.19 -2.83,-2.9 -3.2,-5.12l4.95 -1.28c0.2,0.99 0.53,1.78 1,2.34 0.47,0.57 1.05,0.97 1.75,1.22 0.7,0.24 1.46,0.36 2.28,0.36 1.25,0 2.17,-0.22 2.77,-0.66 0.6,-0.44 0.9,-0.99 0.9,-1.64 0,-0.65 -0.28,-1.16 -0.85,-1.51 -0.57,-0.36 -1.48,-0.65 -2.73,-0.87l-1.19 -0.21c-1.48,-0.28 -2.83,-0.67 -4.05,-1.17 -1.22,-0.5 -2.2,-1.19 -2.94,-2.07 -0.74,-0.88 -1.11,-2.02 -1.11,-3.41 0,-2.1 0.77,-3.72 2.3,-4.84 1.53,-1.12 3.55,-1.68 6.05,-1.68 2.36,0 4.32,0.53 5.88,1.58 1.56,1.05 2.59,2.43 3.07,4.14l-4.99 1.53c-0.23,-1.08 -0.69,-1.85 -1.39,-2.3 -0.7,-0.45 -1.56,-0.68 -2.58,-0.68 -1.02,0 -1.8,0.18 -2.34,0.53 -0.54,0.36 -0.81,0.85 -0.81,1.47 0,0.68 0.28,1.19 0.85,1.51 0.57,0.33 1.34,0.58 2.3,0.75l1.19 0.21c1.59,0.28 3.03,0.66 4.33,1.13 1.29,0.47 2.32,1.14 3.07,2 0.75,0.87 1.13,2.04 1.13,3.52 0,2.22 -0.8,3.93 -2.41,5.14 -1.61,1.21 -3.76,1.81 -6.46,1.81zm17.14 -0.6l-6.74 -21.15 5.71 0 4.9 17.22 0.77 0 4.9 -17.22 5.71 0 -6.74 21.15 -8.53 0zm24.98 0.6c-1.51,0 -2.86,-0.26 -4.05,-0.79 -1.19,-0.53 -2.14,-1.29 -2.83,-2.3 -0.7,-1.01 -1.04,-2.24 -1.04,-3.69 0,-1.45 0.35,-2.66 1.04,-3.65 0.7,-0.98 1.66,-1.72 2.9,-2.22 1.24,-0.5 2.65,-0.75 4.24,-0.75l5.8 0 0 -1.19c0,-0.99 -0.31,-1.81 -0.94,-2.45 -0.63,-0.64 -1.62,-0.96 -2.98,-0.96 -1.34,0 -2.33,0.31 -2.98,0.92 -0.65,0.61 -1.08,1.4 -1.28,2.37l-4.95 -1.66c0.34,-1.08 0.89,-2.07 1.64,-2.96 0.75,-0.9 1.76,-1.62 3.03,-2.17 1.26,-0.55 2.81,-0.83 4.63,-0.83 2.79,0 4.99,0.7 6.61,2.09 1.62,1.39 2.43,3.41 2.43,6.05l0 7.89c0,0.85 0.4,1.28 1.19,1.28l1.71 0 0 4.43 -3.58 0c-1.05,0 -1.92,-0.26 -2.6,-0.77 -0.68,-0.51 -1.02,-1.19 -1.02,-2.05l0 -0.04 -0.81 0c-0.11,0.34 -0.37,0.79 -0.77,1.34 -0.4,0.55 -1.02,1.04 -1.88,1.47 -0.85,0.43 -2.02,0.64 -3.5,0.64zm0.94 -4.35c1.51,0 2.74,-0.42 3.69,-1.26 0.95,-0.84 1.43,-1.95 1.43,-3.35l0 -0.43 -5.41 0c-0.99,0 -1.78,0.21 -2.34,0.64 -0.57,0.43 -0.85,1.02 -0.85,1.79 0,0.77 0.3,1.39 0.9,1.88 0.6,0.48 1.46,0.72 2.6,0.72zm-67.7 44.76c-3.69,0 -6.62,-1.03 -8.78,-3.09 -2.16,-2.06 -3.24,-5.01 -3.24,-8.85l0 -7.16c0,-3.84 1.08,-6.79 3.24,-8.85 2.16,-2.06 5.09,-3.09 8.78,-3.09 3.67,0 6.5,1 8.51,3.01 2,2 3.01,4.75 3.01,8.25l0 0.26 -5.54 0 0 -0.43c0,-1.76 -0.49,-3.21 -1.47,-4.35 -0.98,-1.14 -2.48,-1.71 -4.5,-1.71 -1.99,0 -3.55,0.61 -4.69,1.83 -1.14,1.22 -1.71,2.88 -1.71,4.99l0 7.33c0,2.07 0.57,3.73 1.71,4.97 1.14,1.24 2.7,1.85 4.69,1.85 2.02,0 3.52,-0.58 4.5,-1.73 0.98,-1.15 1.47,-2.59 1.47,-4.33l0 -0.77 5.54 0 0 0.6c0,3.5 -1,6.25 -3.01,8.25 -2,2 -4.84,3.01 -8.51,3.01zm22.85 0c-1.51,0 -2.86,-0.26 -4.05,-0.79 -1.19,-0.53 -2.14,-1.29 -2.83,-2.3 -0.7,-1.01 -1.04,-2.24 -1.04,-3.69 0,-1.45 0.35,-2.66 1.04,-3.65 0.7,-0.98 1.66,-1.72 2.9,-2.22 1.24,-0.5 2.65,-0.75 4.24,-0.75l5.8 0 0 -1.19c0,-0.99 -0.31,-1.81 -0.94,-2.45 -0.63,-0.64 -1.62,-0.96 -2.98,-0.96 -1.34,0 -2.33,0.31 -2.98,0.92 -0.65,0.61 -1.08,1.4 -1.28,2.37l-4.95 -1.66c0.34,-1.08 0.89,-2.07 1.64,-2.96 0.75,-0.9 1.76,-1.62 3.03,-2.17 1.26,-0.55 2.81,-0.83 4.63,-0.83 2.79,0 4.99,0.7 6.61,2.09 1.62,1.39 2.43,3.41 2.43,6.05l0 7.89c0,0.85 0.4,1.28 1.19,1.28l1.71 0 0 4.43 -3.58 0c-1.05,0 -1.92,-0.26 -2.6,-0.77 -0.68,-0.51 -1.02,-1.19 -1.02,-2.05l0 -0.04 -0.81 0c-0.11,0.34 -0.37,0.79 -0.77,1.34 -0.4,0.55 -1.02,1.04 -1.88,1.47 -0.85,0.43 -2.02,0.64 -3.5,0.64zm0.94 -4.35c1.51,0 2.74,-0.42 3.69,-1.26 0.95,-0.84 1.43,-1.95 1.43,-3.35l0 -0.43 -5.41 0c-0.99,0 -1.78,0.21 -2.34,0.64 -0.57,0.43 -0.85,1.02 -0.85,1.79 0,0.77 0.3,1.39 0.9,1.88 0.6,0.48 1.46,0.72 2.6,0.72zm17.14 12.28l0 -29.67 5.29 0 0 2.56 0.77 0c0.48,-0.82 1.24,-1.56 2.26,-2.2 1.02,-0.64 2.49,-0.96 4.39,-0.96 1.71,0 3.28,0.42 4.73,1.26 1.45,0.84 2.61,2.07 3.5,3.69 0.88,1.62 1.32,3.58 1.32,5.88l0 0.68c0,2.3 -0.44,4.26 -1.32,5.88 -0.88,1.62 -2.05,2.85 -3.5,3.69 -1.45,0.84 -3.03,1.26 -4.73,1.26 -1.28,0 -2.35,-0.15 -3.22,-0.45 -0.87,-0.3 -1.56,-0.68 -2.09,-1.15 -0.53,-0.47 -0.95,-0.95 -1.26,-1.43l-0.77 0 0 10.96 -5.37 0zm11.08 -12.62c1.68,0 3.06,-0.53 4.16,-1.6 1.09,-1.07 1.64,-2.62 1.64,-4.67l0 -0.43c0,-2.05 -0.55,-3.6 -1.66,-4.67 -1.11,-1.07 -2.49,-1.6 -4.14,-1.6 -1.65,0 -3.03,0.53 -4.14,1.6 -1.11,1.07 -1.66,2.62 -1.66,4.67l0 0.43c0,2.05 0.55,3.6 1.66,4.67 1.11,1.07 2.49,1.6 4.14,1.6zm16.12 4.09l0 -21.15 5.37 0 0 21.15 -5.37 0zm2.69 -23.62c-0.97,0 -1.78,-0.31 -2.45,-0.94 -0.67,-0.63 -1,-1.45 -1,-2.47 0,-1.02 0.33,-1.85 1,-2.47 0.67,-0.63 1.49,-0.94 2.45,-0.94 0.99,0 1.82,0.31 2.47,0.94 0.65,0.63 0.98,1.45 0.98,2.47 0,1.02 -0.33,1.85 -0.98,2.47 -0.65,0.63 -1.48,0.94 -2.47,0.94zm16.75 23.62c-1.39,0 -2.52,-0.43 -3.39,-1.3 -0.87,-0.87 -1.3,-2.03 -1.3,-3.47l0 -11.94 -5.29 0 0 -4.43 5.29 0 0 -6.57 5.37 0 0 6.57 5.8 0 0 4.43 -5.8 0 0 11c0,0.85 0.4,1.28 1.19,1.28l4.09 0 0 4.43 -5.97 0zm17.91 0.6c-1.51,0 -2.86,-0.26 -4.05,-0.79 -1.19,-0.53 -2.14,-1.29 -2.83,-2.3 -0.7,-1.01 -1.04,-2.24 -1.04,-3.69 0,-1.45 0.35,-2.66 1.04,-3.65 0.7,-0.98 1.66,-1.72 2.9,-2.22 1.24,-0.5 2.65,-0.75 4.24,-0.75l5.8 0 0 -1.19c0,-0.99 -0.31,-1.81 -0.94,-2.45 -0.63,-0.64 -1.62,-0.96 -2.98,-0.96 -1.34,0 -2.33,0.31 -2.98,0.92 -0.65,0.61 -1.08,1.4 -1.28,2.37l-4.95 -1.66c0.34,-1.08 0.89,-2.07 1.64,-2.96 0.75,-0.9 1.76,-1.62 3.03,-2.17 1.26,-0.55 2.81,-0.83 4.63,-0.83 2.79,0 4.99,0.7 6.61,2.09 1.62,1.39 2.43,3.41 2.43,6.05l0 7.89c0,0.85 0.4,1.28 1.19,1.28l1.71 0 0 4.43 -3.58 0c-1.05,0 -1.92,-0.26 -2.6,-0.77 -0.68,-0.51 -1.02,-1.19 -1.02,-2.05l0 -0.04 -0.81 0c-0.11,0.34 -0.37,0.79 -0.77,1.34 -0.4,0.55 -1.02,1.04 -1.88,1.47 -0.85,0.43 -2.02,0.64 -3.5,0.64zm0.94 -4.35c1.51,0 2.74,-0.42 3.69,-1.26 0.95,-0.84 1.43,-1.95 1.43,-3.35l0 -0.43 -5.41 0c-0.99,0 -1.78,0.21 -2.34,0.64 -0.57,0.43 -0.85,1.02 -0.85,1.79 0,0.77 0.3,1.39 0.9,1.88 0.6,0.48 1.46,0.72 2.6,0.72zm17.14 3.75l0 -29.84 5.37 0 0 29.84 -5.37 0z"/>
  </g>
 </g>
</svg>
