<?xml version="1.0" encoding="UTF-8"?>
<!DOCTYPE svg PUBLIC "-//W3C//DTD SVG 1.1//EN" "http://www.w3.org/Graphics/SVG/1.1/DTD/svg11.dtd">
<!-- Creator: CorelDRAW 2021.5 -->
<svg xmlns="http://www.w3.org/2000/svg" xml:space="preserve" width="1.58578in" height="0.39711in" version="1.1" style="shape-rendering:geometricPrecision; text-rendering:geometricPrecision; image-rendering:optimizeQuality; fill-rule:evenodd; clip-rule:evenodd"
viewBox="0 0 136.91 34.29"
 xmlns:xlink="http://www.w3.org/1999/xlink"
 xmlns:xodm="http://www.corel.com/coreldraw/odm/2003">
 <defs>
  <style type="text/css">
   <![CDATA[
    .fil0 {fill:white}
   ]]>
  </style>
 </defs>
 <g id="Layer_x0020_1">
  <metadata id="CorelCorpID_0Corel-Layer"/>
  <g id="_2870784268832">
   <g>
    <path class="fil0" d="M17.14 30.01c-7.11,0 -12.87,-5.76 -12.87,-12.87 0,-7.11 5.76,-12.87 12.87,-12.87l0 -4.27c-9.47,0 -17.14,7.68 -17.14,17.14 0,9.47 7.68,17.14 17.14,17.14l0 -4.27z"/>
    <path class="fil0" d="M11.58 17.14c0,3.07 2.49,5.56 5.56,5.56l0 -11.12c-3.07,0 -5.56,2.49 -5.56,5.56z"/>
   </g>
   <g>
    <path class="fil0" d="M64.56 11.08c8.12,-2 9.85,9.9 2.94,11.59 -7.72,1.89 -10.36,-9.76 -2.94,-11.59zm11.83 14.57c0,-1.32 0.15,-1.6 -0.27,-2.5l-4.18 -0.01 1.03 -1.12c3.4,-3.56 2.15,-9.01 -0.38,-11.51 -3.28,-3.23 -9.81,-3.35 -13.22,0.21 -3.47,3.61 -3.01,9.73 0.58,12.81 3.51,3.02 10.85,2.11 16.44,2.11z"/>
    <path class="fil0" d="M106.02 11.12l2.69 0c4.79,0 4.65,4.58 0,4.58l-2.69 0 -0 -4.58zm-3.07 14.53l3.07 -0.01 0 -7.26c2.9,0 2.42,0.19 3.77,2.73 0.7,1.32 1.87,3.22 2.35,4.52l3.69 -0.09 -4.3 -7.19c0.55,-0.44 4.85,-1.31 3.64,-6.4 -1.02,-4.3 -7.71,-3.52 -12.22,-3.52l-0.01 17.22z"/>
    <polygon class="fil0" points="54.8,23.02 46.04,23 46,18.16 54.08,18.04 53.94,15.43 46.09,15.38 46.11,11.28 54.43,11.2 54.43,8.43 43.01,8.45 43.01,25.56 54.87,25.66 "/>
    <path class="fil0" d="M92.42 18.38l0 -9.95 -3.08 0.11c0,4.64 1.76,14.68 -3.96,14.58 -3.3,-0.06 -3.78,-2.29 -3.78,-5.49 -0,-2.9 -0.28,-6.4 0.17,-9.2l-3.23 0.02c0,6.31 -1.15,13.98 2.9,16.54 5.45,3.45 10.98,-0.31 10.98,-6.62z"/>
    <path class="fil0" d="M121.29 18.34l0.1 -0.08 8.67 0 0 -2.99 -8.55 0c-0.03,-0.02 -0.07,-0.04 -0.1,-0.06l-0.03 -3.99 8.32 -0.03 0 -2.71 -11.42 -0.04 -0 17.2 11.86 0.01 0 -2.78 -8.69 -0 -0.15 -4.53z"/>
    <path class="fil0" d="M40.86 23.09c-0.9,-0.83 -1.25,-0.94 -2.14,-1.63 -1.84,0.81 -2.87,2.89 -6.45,1.45 -1.83,-0.74 -3.38,-2.74 -3.57,-5.29 -0.31,-4.23 2.58,-7.15 6.45,-6.72 1.34,0.15 1.81,0.57 2.7,1.1l0.49 0.29c2.05,-1.13 1.66,-1.08 2.05,-2.07 -2.67,-1.49 -5.42,-3.48 -10.25,-1.2 -2.79,1.32 -4.84,4.19 -4.67,8.58 0.33,8.45 10.76,11.32 15.4,5.5z"/>
    <polygon class="fil0" points="96.11,25.65 99.18,25.68 99.18,8.43 96.11,8.52 "/>
    <path class="fil0" d="M54.8 23.02c-1.42,-0.75 -6.82,-0.33 -8.53,-0.33l0 -4.14 6.97 -0.04c0.86,-0.22 0.44,-0.16 0.83,-0.47l-8.08 0.13 0.05 4.83 8.76 0.03z"/>
   </g>
   <path class="fil0" d="M132.99 8.62c0,-2.17 1.76,-3.93 3.93,-3.93 -2.17,0 -3.93,-1.76 -3.93,-3.93 0,2.17 -1.76,3.93 -3.93,3.93 2.17,0 3.93,1.76 3.93,3.93z"/>
  </g>
 </g>
</svg>
