<?xml version="1.0" encoding="UTF-8"?>
<!DOCTYPE svg PUBLIC "-//W3C//DTD SVG 1.1//EN" "http://www.w3.org/Graphics/SVG/1.1/DTD/svg11.dtd">
<!-- Creator: CorelDRAW 2021.5 -->
<svg xmlns="http://www.w3.org/2000/svg" xml:space="preserve" width="0.702346in" height="0.462791in" version="1.1" style="shape-rendering:geometricPrecision; text-rendering:geometricPrecision; image-rendering:optimizeQuality; fill-rule:evenodd; clip-rule:evenodd"
viewBox="0 0 14.88 9.8"
 xmlns:xlink="http://www.w3.org/1999/xlink"
 xmlns:xodm="http://www.corel.com/coreldraw/odm/2003">
 <defs>
  <style type="text/css">
   <![CDATA[
    .fil0 {fill:white;fill-rule:nonzero}
   ]]>
  </style>
 </defs>
 <g id="Layer_x0020_1">
  <metadata id="CorelCorpID_0Corel-Layer"/>
  <g id="_2870764913872">
   <path class="fil0" d="M-0 9.75l0 -3.99 0.74 0 0 3.36 2.09 0 0 0.63 -2.83 0zm2.86 0l1.8 -3.99 0.73 0 1.8 3.99 -0.78 0 -1.54 -3.6 0.3 0 -1.54 3.6 -0.76 0zm0.83 -0.92l0.2 -0.58 2.15 0 0.2 0.58 -2.55 0zm4.01 0.92l0 -3.99 1.87 0c0.48,0 0.84,0.09 1.09,0.28 0.25,0.19 0.38,0.44 0.38,0.76 0,0.21 -0.05,0.39 -0.15,0.54 -0.1,0.15 -0.23,0.27 -0.4,0.35 -0.17,0.08 -0.34,0.12 -0.54,0.12l0.1 -0.21c0.22,0 0.43,0.04 0.6,0.12 0.18,0.08 0.32,0.2 0.42,0.36 0.1,0.16 0.16,0.35 0.16,0.58 0,0.34 -0.13,0.61 -0.39,0.8 -0.26,0.19 -0.65,0.29 -1.17,0.29l-1.98 0zm0.74 -0.58l1.2 0c0.28,0 0.49,-0.05 0.64,-0.14 0.15,-0.09 0.22,-0.24 0.22,-0.44 0,-0.2 -0.07,-0.34 -0.22,-0.44 -0.15,-0.09 -0.36,-0.14 -0.64,-0.14l-1.25 0 0 -0.58 1.11 0c0.26,0 0.46,-0.05 0.6,-0.14 0.14,-0.09 0.21,-0.23 0.21,-0.41 0,-0.19 -0.07,-0.32 -0.21,-0.42 -0.14,-0.09 -0.34,-0.14 -0.6,-0.14l-1.05 0 0 2.83zm4.83 0.64c-0.31,0 -0.61,-0.04 -0.9,-0.13 -0.29,-0.09 -0.51,-0.2 -0.68,-0.34l0.26 -0.58c0.16,0.13 0.36,0.23 0.59,0.31 0.24,0.08 0.48,0.13 0.72,0.13 0.21,0 0.38,-0.02 0.51,-0.07 0.13,-0.05 0.22,-0.11 0.29,-0.19 0.06,-0.08 0.09,-0.17 0.09,-0.27 0,-0.12 -0.04,-0.22 -0.13,-0.29 -0.09,-0.07 -0.2,-0.13 -0.34,-0.18 -0.14,-0.04 -0.29,-0.08 -0.46,-0.12 -0.17,-0.04 -0.34,-0.08 -0.51,-0.13 -0.17,-0.05 -0.32,-0.12 -0.46,-0.2 -0.14,-0.08 -0.25,-0.19 -0.34,-0.33 -0.09,-0.14 -0.13,-0.31 -0.13,-0.52 0,-0.22 0.06,-0.42 0.17,-0.6 0.12,-0.18 0.29,-0.32 0.53,-0.43 0.24,-0.11 0.54,-0.16 0.9,-0.16 0.24,0 0.48,0.03 0.71,0.09 0.24,0.06 0.44,0.15 0.62,0.26l-0.23 0.58c-0.18,-0.11 -0.36,-0.19 -0.55,-0.24 -0.19,-0.05 -0.37,-0.08 -0.55,-0.08 -0.21,0 -0.37,0.02 -0.5,0.07 -0.13,0.05 -0.22,0.11 -0.28,0.19 -0.06,0.08 -0.09,0.17 -0.09,0.27 0,0.12 0.04,0.22 0.13,0.29 0.09,0.07 0.2,0.13 0.34,0.17 0.14,0.04 0.29,0.08 0.46,0.12 0.17,0.04 0.34,0.08 0.51,0.13 0.17,0.05 0.32,0.11 0.46,0.19 0.14,0.08 0.25,0.19 0.34,0.32 0.09,0.14 0.13,0.31 0.13,0.52 0,0.21 -0.06,0.41 -0.17,0.59 -0.12,0.18 -0.29,0.32 -0.53,0.43 -0.24,0.11 -0.54,0.16 -0.91,0.16z"/>
   <path class="fil0" d="M-0 4.94l0 -4.94 2.44 0c0.34,0 0.65,0.04 0.94,0.11l1.27 3.97c-0.21,0.23 -0.46,0.41 -0.76,0.56 -0.42,0.2 -0.9,0.3 -1.45,0.3l-2.44 0zm1.67 -1.3l0.7 0c0.24,0 0.44,-0.04 0.62,-0.13 0.18,-0.09 0.31,-0.22 0.41,-0.4 0.1,-0.18 0.15,-0.39 0.15,-0.64 0,-0.25 -0.05,-0.47 -0.15,-0.64 -0.1,-0.17 -0.24,-0.31 -0.41,-0.4 -0.18,-0.09 -0.38,-0.13 -0.62,-0.13l-0.7 0 0 2.34z"/>
   <path class="fil0" d="M12.02 0l2.4 0 0 1.26 -2.35 0 0 3.69 -1.63 0c0.53,-1.65 1.05,-3.3 1.58,-4.94zm-0.07 3.36l0 -1.26 2.18 0 0 1.26 -2.18 0z"/>
   <polygon class="fil0" points="5.07,4.94 3.49,0 5.21,0 6.49,4.17 5.63,4.17 6.98,0 8.51,0 9.78,4.17 8.95,4.17 10.29,0 11.87,0 10.29,4.94 8.5,4.94 7.47,1.53 7.95,1.53 6.86,4.94 "/>
  </g>
 </g>
</svg>
