<?xml version="1.0" encoding="UTF-8"?>
<!DOCTYPE svg PUBLIC "-//W3C//DTD SVG 1.1//EN" "http://www.w3.org/Graphics/SVG/1.1/DTD/svg11.dtd">
<!-- Creator: CorelDRAW 2021.5 -->
<svg xmlns="http://www.w3.org/2000/svg" xml:space="preserve" width="1.97343in" height="0.624965in" version="1.1" style="shape-rendering:geometricPrecision; text-rendering:geometricPrecision; image-rendering:optimizeQuality; fill-rule:evenodd; clip-rule:evenodd"
viewBox="0 0 167.4 53.01"
 xmlns:xlink="http://www.w3.org/1999/xlink"
 xmlns:xodm="http://www.corel.com/coreldraw/odm/2003">
 <defs>
  <style type="text/css">
   <![CDATA[
    .fil0 {fill:white;fill-rule:nonzero}
   ]]>
  </style>
 </defs>
 <g id="Layer_x0020_1">
  <metadata id="CorelCorpID_0Corel-Layer"/>
  <g id="_2870418771824">
   <path class="fil0" d="M1.65 0.72l37.11 16.28 0 36.01c-12.92,-5.67 -25.84,-11.34 -38.76,-17l0 -36.01 1.65 0.72zm34.76 17.81l-34.05 -14.93 0 30.88 34.05 14.93 0 -30.88z"/>
   <path class="fil0" d="M48.77 3.6l-34.05 14.93 0 30.88 34.05 -14.93 0 -30.88zm-35.7 13.09l38.05 -16.69 0 36.01c-12.92,5.66 -25.84,11.33 -38.76,17l0 -36.01 0.71 -0.31z"/>
   <path class="fil0" d="M75.21 30.61l0.98 1.12c-1.49,1.32 -3.04,2.32 -4.65,2.99 -1.61,0.67 -3.18,1 -4.72,1 -2.07,0 -3.73,-0.63 -5,-1.91 -1.26,-1.26 -1.9,-2.95 -1.9,-5.05 0,-1.87 0.52,-3.66 1.57,-5.35 1.05,-1.69 2.5,-3.05 4.38,-4.08 1.87,-1.03 3.88,-1.54 6.02,-1.54 1.7,0 3.03,0.39 3.99,1.17 0.96,0.78 1.43,1.7 1.43,2.76 0,0.62 -0.21,1.28 -0.63,1.97 -0.42,0.69 -1.12,1.33 -2.12,1.92 -1,0.59 -2.43,1.08 -4.31,1.47 -1.88,0.39 -4.19,0.66 -6.93,0.8 -0.06,0.46 -0.09,0.8 -0.09,1.04 0,0.93 0.2,1.76 0.59,2.49 0.4,0.73 0.96,1.31 1.69,1.74 0.73,0.43 1.49,0.65 2.29,0.65 1,0 2.18,-0.27 3.53,-0.82 1.34,-0.54 2.64,-1.34 3.88,-2.38zm-11.67 -4.14c2.69,-0.3 4.65,-0.59 5.85,-0.87 1.95,-0.46 3.28,-1.02 3.99,-1.68 0.71,-0.65 1.07,-1.37 1.07,-2.15 0,-0.66 -0.27,-1.22 -0.79,-1.67 -0.53,-0.45 -1.28,-0.67 -2.25,-0.67 -1.02,0 -2.1,0.3 -3.24,0.91 -1.14,0.6 -2.1,1.42 -2.9,2.46 -0.8,1.04 -1.37,2.26 -1.73,3.67zm23.3 -8.67l-1.26 5.57c0.57,-0.97 1.11,-1.74 1.65,-2.3 1,-1.1 2.04,-1.92 3.08,-2.46 1.05,-0.54 2.07,-0.8 3.05,-0.8 0.77,0 1.45,0.16 2.03,0.47 0.58,0.31 1.04,0.76 1.39,1.34 0.34,0.58 0.52,1.17 0.52,1.76 0,0.51 -0.11,1.23 -0.32,2.17l-1.72 7.54c-0.19,0.83 -0.28,1.39 -0.28,1.66 0,0.31 0.11,0.57 0.32,0.77 0.22,0.2 0.48,0.3 0.8,0.3 0.82,0 1.87,-0.79 3.16,-2.36l1.12 1.05c-1.04,1.21 -1.95,2.03 -2.72,2.47 -0.77,0.44 -1.58,0.66 -2.42,0.66 -0.64,0 -1.19,-0.12 -1.66,-0.37 -0.47,-0.25 -0.83,-0.6 -1.11,-1.07 -0.27,-0.47 -0.41,-0.96 -0.41,-1.48 0,-0.46 0.08,-1.05 0.25,-1.79l1.78 -7.84c0.16,-0.68 0.23,-1.19 0.23,-1.56 0,-0.51 -0.16,-0.93 -0.5,-1.23 -0.33,-0.3 -0.77,-0.45 -1.31,-0.45 -0.62,0 -1.28,0.17 -1.97,0.51 -0.69,0.34 -1.43,0.91 -2.2,1.69 -0.77,0.79 -1.49,1.77 -2.13,2.94 -0.65,1.17 -1.23,2.55 -1.77,4.17 -0.26,0.75 -0.55,1.87 -0.86,3.36l-0.6 2.82 -2.9 0 3.32 -14.59 -3.32 0 0.36 -1.49c1.14,-0.16 2.03,-0.34 2.67,-0.53 0.64,-0.19 1.46,-0.5 2.44,-0.93l1.27 0zm37.51 -8.46l-4.88 21.44c-0.2,0.89 -0.3,1.52 -0.3,1.88 0,0.39 0.1,0.69 0.31,0.91 0.21,0.22 0.47,0.33 0.8,0.33 0.33,0 0.68,-0.13 1.07,-0.39 0.6,-0.38 1.29,-1.01 2.07,-1.89l1.2 0.97c-1.72,2.08 -3.45,3.12 -5.18,3.12 -1.02,0 -1.81,-0.28 -2.36,-0.85 -0.55,-0.56 -0.83,-1.24 -0.83,-2.03 0,-0.53 0.09,-1.18 0.28,-1.95l4.2 -18.47c-0.33,0.07 -0.57,0.1 -0.74,0.1 -0.22,0 -0.44,-0.04 -0.63,-0.1 -0.11,-0.04 -0.46,-0.24 -1.05,-0.6 -0.67,-0.41 -1.09,-0.64 -1.26,-0.68 -0.38,-0.11 -0.82,-0.18 -1.33,-0.18 -0.93,0 -1.78,0.27 -2.59,0.81 -0.8,0.54 -1.4,1.23 -1.8,2.06 -0.27,0.53 -0.56,1.5 -0.88,2.9l-0.34 1.48 4.89 0 -0.38 1.85 -4.95 0 -3.56 15.25c-0.31,1.34 -0.76,2.69 -1.36,4.03 -0.6,1.34 -1.44,2.4 -2.53,3.16 -1.08,0.77 -2.26,1.15 -3.51,1.15 -1.03,0 -1.86,-0.24 -2.47,-0.7 -0.61,-0.47 -0.91,-0.98 -0.91,-1.55 0,-0.36 0.15,-0.69 0.43,-0.98 0.28,-0.29 0.59,-0.44 0.94,-0.44 0.48,0 1,0.25 1.55,0.76 0.42,0.4 0.74,0.64 0.94,0.74 0.21,0.09 0.42,0.14 0.64,0.14 0.42,0 0.77,-0.1 1.08,-0.31 0.43,-0.31 0.77,-0.73 1.03,-1.27 0.45,-0.93 0.78,-1.86 0.98,-2.82l3.9 -17.15 -3.42 0 0.42 -1.85 3.42 0 0.31 -1.35c0.44,-1.87 1,-3.31 1.71,-4.31 0.71,-1 1.63,-1.78 2.78,-2.36 1.14,-0.57 2.37,-0.86 3.68,-0.86 0.83,0 1.75,0.08 2.75,0.24 1.08,0.18 1.89,0.27 2.43,0.27 0.55,0 1.25,-0.17 2.07,-0.51l1.36 0zm17.32 8.89l2.94 0 -3.16 12.94c-0.15,0.58 -0.21,1.16 -0.21,1.71 0,0.31 0.08,0.56 0.27,0.75 0.18,0.18 0.4,0.27 0.66,0.27 0.31,0 0.64,-0.14 0.99,-0.41 0.63,-0.49 1.22,-1.13 1.77,-1.91l1.13 0.97c-0.88,1.12 -1.69,1.92 -2.45,2.37 -0.75,0.45 -1.52,0.68 -2.31,0.68 -0.9,0 -1.61,-0.27 -2.15,-0.79 -0.54,-0.53 -0.8,-1.19 -0.8,-1.96 0,-0.5 0.11,-1.28 0.34,-2.33 -0.54,0.88 -1.07,1.59 -1.58,2.12 -1,1.02 -2.05,1.79 -3.16,2.3 -1.11,0.51 -2.16,0.77 -3.16,0.77 -0.8,0 -1.51,-0.14 -2.1,-0.42 -0.59,-0.28 -1.06,-0.68 -1.4,-1.22 -0.34,-0.53 -0.5,-1.06 -0.5,-1.62 0,-0.55 0.11,-1.34 0.34,-2.36l2.12 -9.29 -4.18 0 0.39 -1.49c1.02,-0.08 1.94,-0.23 2.76,-0.44 0.82,-0.21 1.86,-0.57 3.13,-1.08l1.5 0 -3.01 13.19c-0.11,0.53 -0.18,0.91 -0.18,1.14 0,0.52 0.16,0.93 0.49,1.25 0.33,0.31 0.75,0.47 1.26,0.47 1.13,0 2.29,-0.45 3.48,-1.36 1.52,-1.16 2.75,-2.65 3.69,-4.47 0.93,-1.82 1.63,-3.71 2.08,-5.67l1 -4.11zm13.66 -0.44l2.46 6.99c1.4,-2.53 2.86,-4.4 4.36,-5.63 1.11,-0.91 2.21,-1.37 3.28,-1.37 0.61,0 1.09,0.15 1.44,0.45 0.35,0.3 0.53,0.68 0.53,1.14 0,0.44 -0.16,0.79 -0.48,1.05 -0.32,0.27 -0.76,0.4 -1.31,0.4 -0.16,0 -0.35,-0.01 -0.59,-0.02 -0.34,-0.01 -0.62,-0.02 -0.83,-0.02 -0.63,0 -1.21,0.16 -1.75,0.48 -0.54,0.32 -1.13,0.88 -1.74,1.7l-2.3 3.51 1.38 3.94c0.46,1.33 0.9,2.21 1.31,2.64 0.42,0.43 0.84,0.65 1.28,0.65 0.39,0 0.77,-0.11 1.14,-0.32 0.26,-0.15 0.93,-0.76 2.01,-1.82l1.13 0.94c-0.93,1.16 -1.8,1.96 -2.59,2.41 -0.79,0.45 -1.61,0.67 -2.47,0.67 -1.02,0 -1.84,-0.27 -2.49,-0.8 -0.64,-0.53 -1.23,-1.53 -1.75,-2.99l-1.45 -4.09c-1.78,3.27 -3.25,5.41 -4.4,6.4 -1.15,0.99 -2.29,1.49 -3.41,1.49 -0.54,0 -0.99,-0.16 -1.34,-0.48 -0.36,-0.31 -0.53,-0.68 -0.53,-1.11 0,-0.4 0.16,-0.75 0.48,-1.05 0.33,-0.3 0.72,-0.45 1.18,-0.45 0.18,0 0.45,0.02 0.82,0.08 0.27,0.04 0.5,0.07 0.67,0.07 0.35,0 0.68,-0.07 1,-0.19 0.31,-0.13 0.67,-0.39 1.08,-0.77 0.41,-0.38 0.93,-1.07 1.58,-2.06 0.27,-0.39 1.01,-1.63 2.23,-3.74l-1.84 -5.19 -3.25 0.02 0.35 -1.49c0.71,-0.14 1.34,-0.32 1.86,-0.53 0.52,-0.22 1.1,-0.52 1.73,-0.92l1.23 0z"/>
  </g>
 </g>
</svg>
