<?xml version="1.0" encoding="UTF-8"?>
<!DOCTYPE svg PUBLIC "-//W3C//DTD SVG 1.1//EN" "http://www.w3.org/Graphics/SVG/1.1/DTD/svg11.dtd">
<!-- Creator: CorelDRAW 2021.5 -->
<svg xmlns="http://www.w3.org/2000/svg" xml:space="preserve" width="1.92838in" height="0.559681in" version="1.1" style="shape-rendering:geometricPrecision; text-rendering:geometricPrecision; image-rendering:optimizeQuality; fill-rule:evenodd; clip-rule:evenodd"
viewBox="0 0 89.14 25.87"
 xmlns:xlink="http://www.w3.org/1999/xlink"
 xmlns:xodm="http://www.corel.com/coreldraw/odm/2003">
 <defs>
  <style type="text/css">
   <![CDATA[
    .fil1 {fill:white}
    .fil0 {fill:white;fill-rule:nonzero}
   ]]>
  </style>
 </defs>
 <g id="Layer_x0020_1">
  <metadata id="CorelCorpID_0Corel-Layer"/>
  <g id="_2870894164368">
   <g>
    <polygon class="fil0" points="27.92,5.1 30.88,5.1 29.41,12.76 32.58,12.76 34.05,5.1 37.01,5.1 33.4,23.92 30.44,23.92 32.07,15.45 28.89,15.45 27.27,23.92 24.31,23.92 "/>
    <path class="fil0" d="M50.1 24.19c-1.43,0 -2.44,-0.41 -3.02,-1.22 -0.58,-0.82 -0.72,-1.98 -0.43,-3.51l0.21 -1.08 2.8 0 -0.25 1.29c-0.23,1.22 0.16,1.83 1.18,1.83 0.5,0 0.91,-0.15 1.23,-0.44 0.32,-0.3 0.54,-0.78 0.67,-1.44 0.15,-0.79 0.11,-1.48 -0.14,-2.08 -0.24,-0.6 -0.77,-1.32 -1.57,-2.16 -1.01,-1.08 -1.68,-2.05 -1.99,-2.92 -0.32,-0.87 -0.37,-1.85 -0.16,-2.94 0.29,-1.49 0.88,-2.64 1.79,-3.45 0.91,-0.82 2.08,-1.22 3.51,-1.22 1.42,0 2.41,0.41 2.98,1.22 0.57,0.82 0.71,1.98 0.42,3.51l-0.15 0.78 -2.8 0 0.19 -0.97c0.12,-0.65 0.09,-1.12 -0.11,-1.41 -0.19,-0.3 -0.53,-0.44 -1.02,-0.44 -0.99,0 -1.59,0.6 -1.82,1.8 -0.13,0.68 -0.07,1.32 0.18,1.91 0.25,0.59 0.78,1.31 1.59,2.15 1.03,1.08 1.69,2.05 1.99,2.93 0.3,0.88 0.33,1.91 0.11,3.09 -0.3,1.54 -0.9,2.72 -1.82,3.55 -0.92,0.82 -2.11,1.24 -3.56,1.24z"/>
    <polygon class="fil0" points="59.91,5.1 62.87,5.1 61.4,12.76 64.57,12.76 66.04,5.1 69,5.1 65.39,23.92 62.43,23.92 64.06,15.45 60.89,15.45 59.26,23.92 56.3,23.92 "/>
    <polygon class="fil0" points="71.21,5.1 79.27,5.1 78.76,7.79 73.65,7.79 72.69,12.76 76.75,12.76 76.24,15.45 72.18,15.45 71.07,21.23 76.18,21.23 75.66,23.92 67.6,23.92 "/>
    <path class="fil0" d="M80.96 5.1l4.52 0c1.47,0 2.5,0.39 3.08,1.18 0.58,0.79 0.73,1.94 0.44,3.47l-1.83 9.52c-0.29,1.52 -0.88,2.68 -1.77,3.47 -0.89,0.79 -2.06,1.18 -3.53,1.18l-4.52 0 3.61 -18.82zm1.37 16.13c0.48,0 0.88,-0.14 1.2,-0.43 0.31,-0.29 0.53,-0.75 0.66,-1.4l1.88 -9.79c0.12,-0.65 0.08,-1.11 -0.12,-1.4 -0.2,-0.29 -0.55,-0.43 -1.03,-0.43l-1.51 0 -2.58 13.44 1.51 0z"/>
    <polygon class="fil1" points="38.81,20.24 39.65,17.68 42.72,8.38 42.78,8.38 42.31,17.68 42.18,20.18 42,23.92 44.96,23.92 45.5,5.1 41.5,5.1 34.82,23.92 37.57,23.92 "/>
   </g>
   <g>
    <polygon class="fil1" points="12.12,0 7.95,0 3.07,25.87 7.24,25.87 "/>
    <polygon class="fil1" points="21,0 16.83,0 11.94,25.87 16.12,25.87 "/>
    <g>
     <polygon class="fil1" points="0.56,14.6 -0,17.54 22.18,17.54 22.73,14.6 "/>
     <polygon class="fil1" points="1.74,8.33 1.18,11.28 23.36,11.28 23.91,8.33 "/>
    </g>
   </g>
  </g>
 </g>
</svg>
