<?xml version="1.0" encoding="UTF-8"?>
<!DOCTYPE svg PUBLIC "-//W3C//DTD SVG 1.1//EN" "http://www.w3.org/Graphics/SVG/1.1/DTD/svg11.dtd">
<!-- Creator: CorelDRAW 2021.5 -->
<svg xmlns="http://www.w3.org/2000/svg" xml:space="preserve" width="1.09648in" height="0.498402in" version="1.1" style="shape-rendering:geometricPrecision; text-rendering:geometricPrecision; image-rendering:optimizeQuality; fill-rule:evenodd; clip-rule:evenodd"
viewBox="0 0 38.46 17.48"
 xmlns:xlink="http://www.w3.org/1999/xlink"
 xmlns:xodm="http://www.corel.com/coreldraw/odm/2003">
 <defs>
  <style type="text/css">
   <![CDATA[
    .fil0 {fill:white}
   ]]>
  </style>
 </defs>
 <g id="Layer_x0020_1">
  <metadata id="CorelCorpID_0Corel-Layer"/>
  <g id="_2870098206864">
   <polygon class="fil0" points="3.5,9.22 3.5,6.99 3.5,5.37 3.5,4.27 3.5,3.5 1.62,3.5 -0,3.5 -0,6.82 -0,6.99 -0,7.77 -0,10.49 -0,11.76 -0,12.71 -0,13.98 -0,17.48 0.18,17.48 3.5,17.48 3.5,15.26 3.5,14.16 3.5,13.98 3.5,10.49 3.5,10.31 "/>
   <polygon class="fil0" points="24.47,6.99 20.98,6.99 20.98,8.02 20.98,10.49 23.45,10.49 24.47,10.49 "/>
   <polygon class="fil0" points="31.47,13.98 28.39,13.98 27.97,13.98 27.97,10.49 26.95,10.49 24.47,10.49 24.47,11.51 25.2,12.24 26.95,13.98 27.67,14.71 27.97,15.01 30.14,17.18 30.44,17.48 31.47,17.48 34.79,17.48 34.96,17.48 35.39,17.48 38.46,17.48 38.46,15.61 38.46,13.98 38.28,13.98 36.83,13.98 34.96,13.98 33.34,13.98 31.89,13.98 "/>
   <path class="fil0" d="M17.48 10.49l0 -0.42 0 -3.07 -3.5 0 -3.32 0 -0.18 0 0 -3.5 -1.27 0 -2.22 0 0 0.42 0 1.8 0 1.27 0 1.87 0 1.62 0 0.18 0 3.14 0 0.18 0 1.62 0 1.87 3.07 0 0.42 0 0.18 0 3.32 0 1.02 0 0.3 -0.3 2.17 -2.17 0.3 -0.3 0.72 -0.72 2.47 0 0 -3.5 -3.5 0zm-6.99 1.87l0 -1.87 3.07 0 0.42 0 3.07 0 0.42 0 0 3.5 -0.42 0 -3.07 0 -0.42 0 -1.45 0 -1.62 0 0 -1.62z"/>
   <polygon class="fil0" points="24.47,6.99 24.9,6.99 27.97,6.99 27.97,5.12 27.97,3.5 31.29,3.5 31.47,3.5 33.94,3.5 34.96,3.5 34.96,2.47 34.96,2.22 34.96,0 32.74,0 31.47,0 27.97,0 27.79,0 27.55,0 24.47,3.07 24.47,3.5 24.47,6.57 "/>
   <polygon class="fil0" points="20.98,6.57 20.98,3.5 20.98,3.07 20.25,2.35 17.91,0 13.98,0 12.96,0 12.71,0 10.49,0 10.49,2.22 10.49,2.47 10.49,3.5 13.98,3.5 14.16,3.5 17.48,3.5 17.48,6.99 19.95,6.99 20.55,6.99 20.98,6.99 "/>
   <polygon class="fil0" points="6.99,3.5 6.99,0.78 6.99,0 3.5,0 3.5,0.42 3.5,3.5 4.27,3.5 6.57,3.5 "/>
   <polygon class="fil0" points="34.96,3.5 34.96,6.99 35.39,6.99 38.46,6.99 38.46,5.72 38.46,3.92 38.46,3.5 36.23,3.5 "/>
  </g>
 </g>
</svg>
