<?xml version="1.0" encoding="UTF-8"?>
<!DOCTYPE svg PUBLIC "-//W3C//DTD SVG 1.1//EN" "http://www.w3.org/Graphics/SVG/1.1/DTD/svg11.dtd">
<!-- Creator: CorelDRAW 2021.5 -->
<svg xmlns="http://www.w3.org/2000/svg" xml:space="preserve" width="2.569in" height="0.600169in" version="1.1" style="shape-rendering:geometricPrecision; text-rendering:geometricPrecision; image-rendering:optimizeQuality; fill-rule:evenodd; clip-rule:evenodd"
viewBox="0 0 450.02 105.13"
 xmlns:xlink="http://www.w3.org/1999/xlink"
 xmlns:xodm="http://www.corel.com/coreldraw/odm/2003">
 <defs>
  <style type="text/css">
   <![CDATA[
    .fil4 {fill:black}
    .fil2 {fill:#E6E6E6}
    .fil3 {fill:white}
    .fil5 {fill:white;fill-rule:nonzero}
    .fil0 {fill:url(#id0)}
    .fil1 {fill:url(#id1)}
   ]]>
  </style>
  <linearGradient id="id0" gradientUnits="userSpaceOnUse" x1="16.54" y1="67.82" x2="55.39" y2="71.95">
   <stop offset="0" style="stop-opacity:1; stop-color:#E6E6E6"/>
   <stop offset="1" style="stop-opacity:1; stop-color:white"/>
  </linearGradient>
  <linearGradient id="id1" gradientUnits="userSpaceOnUse" xlink:href="#id0" x1="123.32" y1="63.95" x2="66.57" y2="102.95">
  </linearGradient>
 </defs>
 <g id="Layer_x0020_1">
  <metadata id="CorelCorpID_0Corel-Layer"/>
  <g id="_2870761467824">
   <polygon class="fil0" points="37.9,34.46 62.64,52.13 63.28,105.13 -0,63.69 "/>
   <polygon class="fil1" points="62.64,52.13 63.28,105.13 93.96,84.79 125.28,64.02 93.96,39.74 86.73,34.14 "/>
   <polygon class="fil2" points="63.28,44.74 87.37,25.79 63.28,0 "/>
   <polygon class="fil3" points="63.28,44.74 63.28,0 39.19,25.79 "/>
   <polygon class="fil4" points="63.28,44.74 44.25,29.77 37.92,34.48 62.64,52.13 86.73,34.14 81.66,30.28 "/>
   <path class="fil5" d="M138.89 32.25l7.72 0c4.72,0 7.09,1.36 7.09,4.07l0 12.61c0,2.01 -1.7,3.29 -5.1,3.88 -0.79,0.13 -1.97,0.2 -3.52,0.2l-0.87 0 0 18.06 -5.32 0 0 -38.81zm5.32 2.75l0 15.23 1.2 0c0.76,0 1.27,-0.03 1.54,-0.08 0.95,-0.2 1.43,-0.61 1.43,-1.22l0 -12.61c0,-0.88 -0.77,-1.32 -2.29,-1.32l-1.88 0zm15.1 1.76l5.32 0 0 34.3 -5.32 0 0 -34.3zm21.65 0l5.1 0 0 34.3 -3.75 0 -6.6 -21 0 21 -4.91 0 0 -34.3 3.79 0 6.37 20.96 0 -20.96zm21.24 0l5.1 0 0 34.3 -3.75 0 -6.6 -21 0 21 -4.91 0 0 -34.3 3.79 0 6.37 20.96 0 -20.96zm15.75 25.66l-1.16 8.64 -5.36 0 1.73 -12.13 3.75 -22.17 7.27 0 3.75 22.13 1.73 12.17 -5.36 0 -1.16 -8.64 -5.17 0zm4.87 -2.44l-2.29 -17.09 -2.29 17.09 4.58 0zm20.87 -11.88l0 -8.04c0,-0.76 -0.77,-1.15 -2.29,-1.15l-0.04 0c-1.52,0 -2.29,0.38 -2.29,1.15l0 27.77c0,0.78 0.77,1.17 2.29,1.17 1.55,0 2.33,-0.38 2.33,-1.17l0 -8.01 5.32 0 0 8.01c0,2.4 -2.55,3.61 -7.65,3.63 -5.06,0 -7.61,-1.21 -7.61,-3.63l0 -27.77c0,-2.4 2.54,-3.6 7.61,-3.6 5.1,0 7.65,1.2 7.65,3.6l0 8.04 -5.32 0zm10.94 22.96l0 -34.3 5.32 0 0 31.85 8.44 0 0 2.45 -13.76 0zm17.87 -34.3l13.76 0 0 2.41 -8.44 0 0 13.49 7.28 0 0 2.46 -7.28 0 0 13.49 8.44 0 0 2.45 -13.76 0 0 -34.3zm40.33 34.3l-7.26 0 -3.75 -25.08 -1.73 -13.73 5.36 0 3.75 31.87 3.75 -31.87 5.36 0 -1.73 13.77 -3.75 25.04zm7.53 -34.3l13.76 0 0 2.41 -8.44 0 0 13.49 7.28 0 0 2.46 -7.28 0 0 13.49 8.44 0 0 2.45 -13.76 0 0 -34.3zm28.41 0l5.1 0 0 34.3 -3.75 0 -6.6 -21 0 21 -4.91 0 0 -34.3 3.79 0 6.37 20.96 0 -20.96zm24.47 0l0 2.41 -4.97 0 0 31.89 -5.28 0 0 -31.89 -4.99 0 0 -2.41 15.24 0zm19.38 31.07c0,2.4 -2.55,3.61 -7.65,3.63 -5.06,0 -7.61,-1.21 -7.61,-3.63l0 -31.03 5.32 0 0 31.03c0,0.78 0.77,1.17 2.29,1.17 1.55,0 2.33,-0.38 2.33,-1.17l0 -31.03 5.32 0 0 31.03zm11.31 -28.66l0 13.47 1.2 0c0.76,0 1.27,-0.02 1.53,-0.05 0.95,-0.19 1.43,-0.55 1.43,-1.09l0 -11.14c0,-0.79 -0.77,-1.19 -2.29,-1.19l-1.88 0zm5.88 15.45l5.36 16.44 -5.81 0 -4.6 -15.96 -0.83 0 0 15.96 -5.32 0 0 -34.3 7.72 0c4.72,0 7.09,1.2 7.09,3.6l0 11.14c0,1.49 -1.2,2.53 -3.61,3.12zm7.09 -17.86l13.76 0 0 2.41 -8.44 0 0 13.49 7.28 0 0 2.46 -7.28 0 0 13.49 8.44 0 0 2.45 -13.76 0 0 -34.3zm23.2 23.06l0 8.01c0,0.78 0.78,1.17 2.33,1.17 1.52,0 2.28,-0.38 2.28,-1.17l0 -10.34c0,-0.83 -1.64,-1.8 -4.94,-2.9 -3.32,-1.1 -4.99,-2.44 -4.99,-4.02l0 -10.53c0,-2.4 2.53,-3.6 7.61,-3.6 5.09,0 7.64,1.2 7.64,3.6l0 8.06 -5.32 0 0 -8.06c0,-0.76 -0.75,-1.15 -2.28,-1.15l-0.04 0c-1.52,0 -2.29,0.38 -2.29,1.15l0 10.47c0,0.76 1.65,1.7 4.95,2.81 3.33,1.09 4.98,2.41 4.98,3.96l0 10.56c0,2.42 -2.53,3.63 -7.6,3.63 -5.1,-0.01 -7.65,-1.22 -7.65,-3.63l0 -8.01 5.32 0z"/>
  </g>
 </g>
</svg>
