<?xml version="1.0" encoding="UTF-8"?>
<!DOCTYPE svg PUBLIC "-//W3C//DTD SVG 1.1//EN" "http://www.w3.org/Graphics/SVG/1.1/DTD/svg11.dtd">
<!-- Creator: CorelDRAW 2021.5 -->
<svg xmlns="http://www.w3.org/2000/svg" xml:space="preserve" width="3.27747in" height="0.775366in" version="1.1" style="shape-rendering:geometricPrecision; text-rendering:geometricPrecision; image-rendering:optimizeQuality; fill-rule:evenodd; clip-rule:evenodd"
viewBox="0 0 216.1 51.12"
 xmlns:xlink="http://www.w3.org/1999/xlink"
 xmlns:xodm="http://www.corel.com/coreldraw/odm/2003">
 <defs>
  <style type="text/css">
   <![CDATA[
    .fil0 {fill:white}
    .fil1 {fill:white;fill-rule:nonzero}
   ]]>
  </style>
 </defs>
 <g id="Layer_x0020_1">
  <metadata id="CorelCorpID_0Corel-Layer"/>
  <g id="_2870886249888">
   <path class="fil0" d="M-0 0.07c1.44,2.93 15.97,16.35 18.69,18.99 1.99,1.93 4.82,4.27 6.15,6.52 -1.15,2.1 -9.46,9.77 -12.49,12.75 -1.89,1.86 -11.5,11.2 -12.2,12.71 6.3,-0.13 12.74,-0.03 19.05,-0.01 4.23,0.02 5.31,0.62 7.78,-1.57 1.71,-1.52 3.18,-3.1 4.82,-4.75l18.89 -19.13c-1.86,-3.22 -12.14,-11.16 -12.89,-13.84 4.24,0.1 10.56,-0.41 14.46,0.08 2.62,0.33 5.63,4.51 7.71,6.06l-0.08 -17.88 -59.9 0.07z"/>
   <path class="fil0" d="M59.91 33.58c-1.75,0.98 -7.28,6.68 -9.12,8.53 -1.85,1.86 -7.8,7.28 -8.31,8.92l17.2 -0.05c0.85,-2.73 0.5,-14.04 0.24,-17.4z"/>
   <path class="fil1" d="M88.6 30.32c-2.26,0 -4.45,-0.26 -6.56,-0.77 -2.11,-0.51 -3.85,-1.18 -5.21,-2.01l2.93 -6.64c1.29,0.75 2.72,1.34 4.3,1.79 1.58,0.45 3.12,0.68 4.61,0.68 0.87,0 1.56,-0.06 2.06,-0.17 0.5,-0.12 0.87,-0.28 1.1,-0.5 0.23,-0.22 0.35,-0.48 0.35,-0.79 0,-0.49 -0.27,-0.87 -0.81,-1.16 -0.54,-0.28 -1.25,-0.52 -2.14,-0.71 -0.89,-0.19 -1.86,-0.4 -2.91,-0.62 -1.05,-0.22 -2.12,-0.51 -3.18,-0.87 -1.07,-0.36 -2.05,-0.84 -2.93,-1.43 -0.89,-0.59 -1.6,-1.37 -2.14,-2.33 -0.54,-0.96 -0.81,-2.17 -0.81,-3.61 0,-1.67 0.47,-3.2 1.41,-4.57 0.94,-1.38 2.34,-2.48 4.21,-3.3 1.87,-0.82 4.19,-1.23 6.97,-1.23 1.83,0 3.63,0.19 5.4,0.58 1.78,0.39 3.37,0.98 4.79,1.78l-2.74 6.6c-1.34,-0.67 -2.63,-1.17 -3.88,-1.51 -1.25,-0.33 -2.46,-0.5 -3.65,-0.5 -0.88,0 -1.57,0.08 -2.08,0.23 -0.51,0.15 -0.88,0.36 -1.1,0.62 -0.22,0.26 -0.33,0.54 -0.33,0.85 0,0.46 0.27,0.83 0.81,1.1 0.54,0.27 1.25,0.5 2.14,0.68 0.89,0.18 1.87,0.37 2.93,0.58 1.07,0.21 2.13,0.49 3.18,0.85 1.05,0.36 2.03,0.84 2.91,1.43 0.89,0.59 1.6,1.36 2.14,2.32 0.54,0.95 0.81,2.14 0.81,3.55 0,1.65 -0.47,3.16 -1.41,4.53 -0.94,1.38 -2.33,2.48 -4.19,3.32 -1.85,0.84 -4.18,1.25 -6.99,1.25zm15.28 -0.62l0 -27.02 9.11 0 0 27.02 -9.11 0zm27.52 0.62c-2.19,0 -4.2,-0.34 -6.04,-1.02 -1.84,-0.68 -3.43,-1.65 -4.79,-2.91 -1.35,-1.26 -2.4,-2.75 -3.15,-4.48 -0.75,-1.72 -1.12,-3.63 -1.12,-5.71 0,-2.08 0.37,-3.99 1.12,-5.71 0.75,-1.72 1.8,-3.22 3.16,-4.48 1.36,-1.26 2.98,-2.23 4.84,-2.91 1.87,-0.68 3.92,-1.02 6.16,-1.02 2.68,0 5.06,0.45 7.16,1.35 2.1,0.9 3.83,2.19 5.19,3.86l-5.83 5.13c-0.85,-0.98 -1.77,-1.72 -2.76,-2.22 -0.99,-0.5 -2.09,-0.75 -3.3,-0.75 -1,0 -1.91,0.15 -2.72,0.46 -0.81,0.31 -1.5,0.76 -2.06,1.35 -0.57,0.59 -1,1.3 -1.31,2.12 -0.31,0.82 -0.46,1.76 -0.46,2.82 0,1 0.15,1.92 0.46,2.76 0.31,0.84 0.75,1.55 1.31,2.14 0.57,0.59 1.24,1.05 2.03,1.37 0.78,0.32 1.67,0.48 2.64,0.48 1.03,0 2.03,-0.17 3.01,-0.52 0.98,-0.35 2.02,-0.95 3.13,-1.79l5.09 6.25c-1.65,1.11 -3.52,1.96 -5.63,2.55 -2.11,0.59 -4.16,0.89 -6.14,0.89zm11.77 -3.43l-7.91 -1.16 0 -10.27 7.91 0 0 11.42zm3.9 2.82l0 -27.02 7.49 0 10.81 17.64 -3.94 0 10.5 -17.64 7.49 0 0.08 27.02 -8.3 0 -0.08 -14.51 1.31 0 -7.18 12.08 -4.01 0 -7.49 -12.08 1.62 0 0 14.51 -8.3 0zm33.89 0l11.81 -27.02 8.95 0 11.81 27.02 -9.42 0 -8.72 -22.69 3.55 0 -8.72 22.69 -9.26 0zm7.02 -4.71l2.32 -6.56 12.43 0 2.32 6.56 -17.06 0z"/>
   <path class="fil1" d="M87.28 49.49c-0.99,0 -1.91,-0.16 -2.76,-0.49 -0.85,-0.33 -1.59,-0.79 -2.21,-1.39 -0.63,-0.6 -1.11,-1.31 -1.46,-2.13 -0.35,-0.82 -0.52,-1.71 -0.52,-2.67 0,-0.97 0.17,-1.86 0.52,-2.67 0.35,-0.82 0.84,-1.53 1.47,-2.13 0.63,-0.6 1.37,-1.06 2.21,-1.39 0.84,-0.33 1.76,-0.49 2.77,-0.49 1.07,0 2.04,0.18 2.92,0.55 0.88,0.37 1.62,0.91 2.23,1.63l-1.56 1.47c-0.47,-0.51 -1,-0.89 -1.58,-1.14 -0.58,-0.25 -1.21,-0.38 -1.89,-0.38 -0.68,0 -1.3,0.11 -1.87,0.33 -0.56,0.22 -1.05,0.54 -1.47,0.95 -0.41,0.41 -0.74,0.89 -0.97,1.45 -0.23,0.56 -0.34,1.17 -0.34,1.84 0,0.67 0.11,1.28 0.34,1.84 0.23,0.56 0.55,1.04 0.97,1.45 0.41,0.41 0.9,0.72 1.47,0.95 0.56,0.22 1.19,0.33 1.87,0.33 0.68,0 1.31,-0.13 1.89,-0.38 0.58,-0.25 1.11,-0.64 1.58,-1.16l1.56 1.49c-0.61,0.71 -1.35,1.24 -2.23,1.62 -0.88,0.37 -1.86,0.56 -2.93,0.56zm14.36 -0.19l5.85 -13 2.38 0 5.87 13 -2.53 0 -5.03 -11.72 0.97 0 -5.01 11.72 -2.49 0zm2.69 -3.01l0.65 -1.89 7.02 0 0.65 1.89 -8.32 0zm22.22 3.01l0 -13 5.35 0c1.15,0 2.14,0.19 2.96,0.56 0.82,0.37 1.46,0.9 1.9,1.6 0.45,0.69 0.67,1.52 0.67,2.47 0,0.95 -0.22,1.78 -0.67,2.47 -0.45,0.69 -1.08,1.23 -1.9,1.6 -0.82,0.37 -1.81,0.56 -2.96,0.56l-4.01 0 1.08 -1.13 0 4.89 -2.41 0zm2.41 -4.63l-1.08 -1.17 3.9 0c1.06,0 1.87,-0.23 2.41,-0.68 0.54,-0.45 0.81,-1.09 0.81,-1.9 0,-0.83 -0.27,-1.47 -0.81,-1.91 -0.54,-0.45 -1.34,-0.67 -2.41,-0.67l-3.9 0 1.08 -1.19 0 7.52zm20.05 4.63l0 -13 2.41 0 0 13 -2.41 0zm17.73 0l0 -10.96 -4.31 0 0 -2.04 11.03 0 0 2.04 -4.31 0 0 10.96 -2.41 0zm15.22 0l5.85 -13 2.38 0 5.87 13 -2.53 0 -5.03 -11.72 0.97 0 -5.01 11.72 -2.49 0zm2.69 -3.01l0.65 -1.89 7.02 0 0.65 1.89 -8.32 0zm22.22 3.01l0 -13 2.41 0 0 10.96 6.8 0 0 2.04 -9.21 0z"/>
  </g>
 </g>
</svg>
