<?xml version="1.0" encoding="UTF-8"?>
<!DOCTYPE svg PUBLIC "-//W3C//DTD SVG 1.1//EN" "http://www.w3.org/Graphics/SVG/1.1/DTD/svg11.dtd">
<!-- Creator: CorelDRAW 2021.5 -->
<svg xmlns="http://www.w3.org/2000/svg" xml:space="preserve" width="1.5556in" height="0.368831in" version="1.1" style="shape-rendering:geometricPrecision; text-rendering:geometricPrecision; image-rendering:optimizeQuality; fill-rule:evenodd; clip-rule:evenodd"
viewBox="0 0 65.52 15.53"
 xmlns:xlink="http://www.w3.org/1999/xlink"
 xmlns:xodm="http://www.corel.com/coreldraw/odm/2003">
 <defs>
  <style type="text/css">
   <![CDATA[
    .fil0 {fill:white}
    .fil1 {fill:white;fill-rule:nonzero}
   ]]>
  </style>
 </defs>
 <g id="Layer_x0020_1">
  <metadata id="CorelCorpID_0Corel-Layer"/>
  <g id="_2870404576368">
   <polygon class="fil0" points="7.89,7.89 10.16,10.16 16.92,10.16 22.3,15.53 30.08,15.53 30.08,10.16 30.08,7.89 24.57,7.89 24.57,10.16 17.68,10.16 22.36,5.48 30.08,5.48 30.08,0 27.84,0 24.57,0 21.08,0 13.92,7.16 6.77,0 -0,0 5.48,5.48 "/>
   <path class="fil1" d="M37.37 1.21c0.13,0.05 0.23,0.13 0.31,0.22 0.08,0.1 0.13,0.19 0.16,0.29 0.02,0.1 0.01,0.2 -0.02,0.3l-1.97 4.42c-0.04,0.1 -0.12,0.18 -0.24,0.23 -0.12,0.05 -0.25,0.07 -0.4,0.05 -0.04,0.01 -0.09,0.01 -0.13,0.01 -0.27,0 -0.44,-0.1 -0.53,-0.29l-1.97 -4.4c-0.07,-0.15 -0.06,-0.3 0.03,-0.46 0.08,-0.16 0.22,-0.28 0.4,-0.36 0.18,-0.08 0.35,-0.1 0.52,-0.06 0.18,0.04 0.3,0.14 0.37,0.28l1.29 2.88 1.3 -2.9c0.07,-0.15 0.19,-0.24 0.37,-0.29 0.17,-0.04 0.35,-0.02 0.53,0.07zm2.24 0.22l0.01 4.73c0,0.16 -0.07,0.29 -0.21,0.4 -0.14,0.1 -0.31,0.15 -0.51,0.15 -0.2,0 -0.36,-0.05 -0.51,-0.15 -0.14,-0.11 -0.21,-0.24 -0.21,-0.4l-0.02 -4.72c0,-0.15 0.07,-0.28 0.21,-0.39 0.14,-0.11 0.31,-0.16 0.51,-0.16 0.13,0 0.25,0.02 0.36,0.07 0.11,0.05 0.2,0.12 0.27,0.2 0.07,0.08 0.1,0.18 0.1,0.27zm4.47 3.37c0.14,0.05 0.26,0.16 0.34,0.33 0.09,0.17 0.13,0.38 0.13,0.6 0,0.12 -0.01,0.24 -0.04,0.35 -0.02,0.07 -0.04,0.14 -0.07,0.2l-0.02 0.02 -0.02 0.01c-0.11,0.07 -0.23,0.12 -0.34,0.17 -0.35,0.15 -0.72,0.22 -1.11,0.22 -0.6,0 -1.14,-0.17 -1.64,-0.5 -0.49,-0.33 -0.85,-0.78 -1.08,-1.34 -0.14,-0.35 -0.2,-0.71 -0.2,-1.08 0,-0.39 0.07,-0.76 0.22,-1.11 0.15,-0.36 0.36,-0.68 0.64,-0.95 0.27,-0.27 0.59,-0.48 0.94,-0.63 0.36,-0.15 0.73,-0.22 1.12,-0.22 0.39,0 0.76,0.07 1.11,0.22 0.13,0.05 0.24,0.11 0.36,0.18l0.02 0.01 0.01 0.02c0.03,0.08 0.05,0.17 0.07,0.25 0.02,0.08 0.02,0.17 0.02,0.25 0,0.22 -0.04,0.42 -0.13,0.6 -0.09,0.17 -0.2,0.29 -0.33,0.34l-0.02 0.01 -0.06 0 -0.02 -0.02c-0.09,-0.09 -0.2,-0.17 -0.31,-0.24 -0.22,-0.13 -0.46,-0.19 -0.72,-0.19 -0.41,0 -0.76,0.15 -1.04,0.44 -0.28,0.28 -0.42,0.62 -0.42,1.02 0,0.4 0.14,0.75 0.42,1.03 0.29,0.29 0.64,0.43 1.04,0.43 0.24,0 0.47,-0.05 0.67,-0.16 0.13,-0.06 0.25,-0.14 0.36,-0.25l0.02 -0.02 0.06 0 0.02 0.01zm5.89 -3.92c0.15,0 0.28,0.07 0.39,0.21 0.11,0.14 0.16,0.31 0.16,0.51 0,0.2 -0.05,0.37 -0.16,0.51 -0.11,0.14 -0.24,0.21 -0.39,0.21l-1.53 0 -0.1 3.87c0,0.1 -0.03,0.19 -0.1,0.27 -0.07,0.08 -0.15,0.15 -0.26,0.2 -0.11,0.05 -0.22,0.07 -0.35,0.07 -0.01,0 -0.01,0 -0.02,0 -0.19,-0.01 -0.36,-0.06 -0.5,-0.17 -0.14,-0.11 -0.21,-0.24 -0.2,-0.4l0.09 -3.83 -1.76 0c-0.15,0 -0.28,-0.07 -0.39,-0.21 -0.11,-0.14 -0.16,-0.31 -0.16,-0.51 0,-0.2 0.05,-0.37 0.16,-0.51 0.11,-0.14 0.24,-0.21 0.39,-0.21l4.73 0zm5.41 0.01c0.2,0.01 0.37,0.06 0.51,0.18 0.14,0.11 0.21,0.24 0.2,0.4l-0.09 3.67c-0.29,0.58 -0.73,1.01 -1.31,1.3 -0.41,0.2 -0.84,0.3 -1.3,0.3 -0.49,0 -0.96,-0.12 -1.39,-0.35 -0.58,-0.32 -1.01,-0.78 -1.27,-1.38l-0.01 -0.02 0 -0.02 0.08 -3.56c0.01,-0.13 0.06,-0.24 0.16,-0.33 0.15,-0.14 0.35,-0.21 0.58,-0.2 0.15,0 0.28,0.03 0.4,0.09 0.12,0.06 0.2,0.15 0.26,0.25 0.04,0.07 0.06,0.15 0.06,0.23l-0.07 3.15c0.14,0.21 0.31,0.37 0.53,0.49 0.21,0.12 0.45,0.18 0.7,0.18 0.23,0 0.46,-0.05 0.66,-0.16 0.21,-0.11 0.38,-0.25 0.52,-0.44l0.08 -3.22c0,-0.06 0.01,-0.11 0.02,-0.16 0.05,-0.12 0.14,-0.21 0.27,-0.29 0.13,-0.07 0.27,-0.1 0.43,-0.1zm3.39 1.49l3.17 2.41 -0.02 0.05c-0.09,0.23 -0.2,0.44 -0.34,0.64 -0.11,0.17 -0.25,0.33 -0.41,0.47 -0.17,0.15 -0.35,0.28 -0.54,0.39l-0.02 0.02c-0.45,0.24 -0.92,0.37 -1.44,0.37 -0.31,0 -0.61,-0.05 -0.91,-0.14 -0.46,-0.15 -0.86,-0.4 -1.2,-0.75 -0.33,-0.35 -0.57,-0.75 -0.71,-1.22l0 -0.02c0,-0.05 0.01,-0.1 0.03,-0.14 0.05,-0.12 0.18,-0.22 0.36,-0.29 0.19,-0.08 0.4,-0.11 0.63,-0.1 0.11,0 0.21,0.01 0.31,0.03 0.33,0.06 0.54,0.18 0.64,0.36 0.03,0.06 0.05,0.12 0.05,0.19l-0.01 0.37c0.22,0.15 0.47,0.22 0.75,0.23 0.28,0.01 0.53,-0.06 0.76,-0.19l-3.08 -2.35c-0.09,-0.07 -0.16,-0.16 -0.2,-0.27l-0.02 -0.02 0.02 -0.03c0.2,-0.36 0.47,-0.66 0.8,-0.91 0.52,-0.39 1.11,-0.59 1.75,-0.59 0.41,0 0.8,0.08 1.17,0.24 0.21,0.09 0.4,0.21 0.59,0.34l0.02 0.02 0.01 0.02c0.02,0.09 0.02,0.19 0.02,0.29 0,0.17 -0.03,0.33 -0.08,0.48 -0.05,0.14 -0.13,0.26 -0.22,0.34 -0.1,0.08 -0.2,0.13 -0.31,0.13l-0.16 0 -0.02 -0.02c-0.28,-0.26 -0.61,-0.39 -1,-0.39 -0.14,0 -0.27,0.02 -0.41,0.06zm-20.35 8.39c0.05,0.21 0.07,0.42 0.07,0.64 0,0.24 -0.03,0.47 -0.08,0.69 -0.16,0.66 -0.5,1.2 -1.03,1.61 -0.53,0.42 -1.13,0.62 -1.81,0.62 -0.73,0 -1.37,-0.24 -1.93,-0.73 -0.55,-0.49 -0.88,-1.09 -0.97,-1.82 -0.01,-0.1 -0.02,-0.18 -0.02,-0.24 -0.01,-0.05 -0.01,-0.1 -0.01,-0.15 0,-0.04 0,-0.09 0.01,-0.13 0.04,-0.78 0.34,-1.43 0.9,-1.97 0.56,-0.54 1.23,-0.8 2.01,-0.8 0.53,0 1.03,0.13 1.48,0.4l0.02 0.02 0.01 0.02c0.03,0.08 0.05,0.15 0.06,0.23 0.02,0.08 0.02,0.16 0.02,0.24 0,0.15 -0.02,0.29 -0.06,0.42 -0.04,0.13 -0.1,0.24 -0.17,0.33 -0.07,0.09 -0.15,0.16 -0.24,0.19l-0.01 0.01 -0.06 0.01 -0.02 -0.02c-0.09,-0.09 -0.2,-0.17 -0.31,-0.24 -0.22,-0.13 -0.46,-0.19 -0.72,-0.19 -0.41,0 -0.76,0.15 -1.04,0.45 -0.26,0.27 -0.4,0.59 -0.42,0.96 0,0.01 0,0.03 0,0.06 0,0.03 0,0.06 0,0.07 0,0.03 0,0.05 0.01,0.07 0.02,0.26 0.1,0.49 0.23,0.69 0.13,0.2 0.31,0.36 0.52,0.48 0.21,0.11 0.45,0.17 0.7,0.17 0.41,0 0.75,-0.14 1.04,-0.43 0.09,-0.08 0.16,-0.17 0.22,-0.27l-1.43 0c-0.07,0 -0.13,-0.03 -0.19,-0.09 -0.06,-0.06 -0.1,-0.15 -0.13,-0.26 -0.03,-0.11 -0.05,-0.23 -0.05,-0.36 0,-0.19 0.03,-0.36 0.1,-0.5 0.07,-0.15 0.16,-0.23 0.28,-0.23l3.01 0 0.02 0.06zm4.5 2.09c0.15,0 0.27,0.07 0.38,0.21 0.11,0.14 0.16,0.31 0.16,0.51 0,0.08 -0.01,0.15 -0.03,0.23 -0.02,0.1 -0.06,0.18 -0.11,0.26 -0.05,0.08 -0.11,0.13 -0.18,0.18 -0.07,0.04 -0.14,0.06 -0.22,0.06l-3.57 -0.01c-0.09,-0.03 -0.18,-0.07 -0.25,-0.11 -0.15,-0.11 -0.22,-0.24 -0.22,-0.4l-0.01 -4.73c0,-0.13 0.05,-0.24 0.15,-0.33 0.14,-0.15 0.33,-0.22 0.57,-0.22 0.19,0 0.35,0.05 0.49,0.15 0.14,0.1 0.21,0.22 0.22,0.36 0.01,0.01 0.01,0.02 0.01,0.04l0.01 3.81 2.6 0zm1.85 -4.01c0.45,-0.26 0.94,-0.39 1.46,-0.39 0.53,0 1.02,0.13 1.47,0.39 0.45,0.26 0.81,0.62 1.07,1.06 0.26,0.45 0.39,0.94 0.39,1.46 0,0.53 -0.13,1.02 -0.39,1.46 -0.26,0.45 -0.62,0.8 -1.07,1.06 -0.45,0.26 -0.94,0.39 -1.47,0.39 -0.53,0 -1.02,-0.13 -1.46,-0.39 -0.45,-0.26 -0.8,-0.62 -1.06,-1.06 -0.26,-0.45 -0.39,-0.94 -0.39,-1.46 0,-0.53 0.13,-1.02 0.39,-1.46 0.26,-0.45 0.62,-0.8 1.06,-1.06zm0.43 3.54c0.29,0.29 0.63,0.43 1.03,0.43 0.4,0 0.75,-0.14 1.04,-0.43 0.29,-0.29 0.43,-0.63 0.43,-1.03 0,-0.4 -0.14,-0.75 -0.43,-1.04 -0.29,-0.29 -0.63,-0.43 -1.04,-0.43 -0.4,0 -0.75,0.14 -1.03,0.43 -0.29,0.29 -0.43,0.63 -0.43,1.04 0,0.4 0.14,0.75 0.43,1.03zm8.54 -2.12c0,0.44 -0.15,0.82 -0.46,1.15 0.31,0.33 0.46,0.71 0.46,1.14 0,0.48 -0.19,0.9 -0.56,1.24 -0.38,0.34 -0.83,0.51 -1.35,0.51 -0.35,0 -0.68,-0.08 -0.98,-0.24 -0.14,0.16 -0.32,0.24 -0.54,0.24 -0.2,0 -0.37,-0.07 -0.51,-0.21 -0.14,-0.14 -0.21,-0.31 -0.21,-0.51l0 -4.32c0,-0.2 0.07,-0.37 0.21,-0.51 0.14,-0.14 0.31,-0.21 0.51,-0.21 0.2,0 0.37,0.07 0.51,0.22 0.31,-0.17 0.64,-0.25 1,-0.25 0.53,0 0.98,0.17 1.35,0.51 0.38,0.34 0.56,0.76 0.56,1.24zm-2.62 1.7l-0.01 1.07c0.11,0.06 0.24,0.09 0.38,0.09 0.2,0 0.36,-0.06 0.51,-0.18 0.14,-0.12 0.21,-0.27 0.21,-0.44 0,-0.17 -0.07,-0.32 -0.21,-0.44 -0.14,-0.12 -0.31,-0.18 -0.51,-0.18 -0.13,0 -0.25,0.03 -0.37,0.09zm0.37 -1.03c0.2,0 0.36,-0.06 0.51,-0.18 0.14,-0.12 0.21,-0.27 0.21,-0.44 0,-0.17 -0.07,-0.32 -0.21,-0.44 -0.14,-0.12 -0.31,-0.18 -0.51,-0.18 -0.13,0 -0.25,0.03 -0.37,0.09l-0.01 1.06c0.11,0.07 0.24,0.1 0.38,0.1zm8.94 0.94c0.12,0.13 0.18,0.3 0.18,0.49 0,0.19 -0.06,0.36 -0.18,0.49 -0.12,0.14 -0.27,0.2 -0.44,0.2l0.16 0.34c0.07,0.14 0.07,0.28 0.02,0.42 -0.07,0.18 -0.21,0.32 -0.42,0.42 -0.1,0.04 -0.21,0.07 -0.33,0.07 -0.13,0 -0.25,-0.03 -0.35,-0.09 -0.1,-0.06 -0.18,-0.14 -0.23,-0.24l-0.44 -0.92 -2.28 0 -0.43 0.92c-0.07,0.15 -0.19,0.25 -0.37,0.3 -0.18,0.05 -0.36,0.04 -0.54,-0.04 -0.2,-0.09 -0.34,-0.23 -0.41,-0.42 -0.05,-0.15 -0.05,-0.29 0.01,-0.42l0.16 -0.34c-0.16,-0.01 -0.3,-0.08 -0.42,-0.22 -0.12,-0.13 -0.18,-0.29 -0.18,-0.48 0,-0.2 0.06,-0.36 0.18,-0.49 0.12,-0.13 0.27,-0.2 0.44,-0.2l0.63 0 1.41 -3.01c0.05,-0.11 0.14,-0.19 0.26,-0.25 0.12,-0.06 0.25,-0.08 0.4,-0.07 0.14,-0.01 0.26,0.01 0.38,0.07 0.12,0.06 0.2,0.14 0.25,0.25l1.42 3.01 0.65 0c0.17,0 0.32,0.07 0.44,0.2zm-2.68 -0.2l-0.48 -1.03 -0.48 1.03 0.96 0zm7.24 1.17c0.15,0 0.27,0.07 0.38,0.21 0.11,0.14 0.16,0.31 0.16,0.51 0,0.08 -0.01,0.15 -0.03,0.23 -0.02,0.1 -0.06,0.18 -0.11,0.26 -0.05,0.08 -0.11,0.13 -0.18,0.18 -0.07,0.04 -0.14,0.06 -0.22,0.06l-3.57 -0.01c-0.09,-0.03 -0.18,-0.07 -0.25,-0.11 -0.15,-0.11 -0.22,-0.24 -0.22,-0.4l-0.01 -4.73c0,-0.13 0.05,-0.24 0.15,-0.33 0.14,-0.15 0.33,-0.22 0.57,-0.22 0.19,0 0.35,0.05 0.49,0.15 0.14,0.1 0.21,0.22 0.22,0.36 0.01,0.01 0.01,0.02 0.01,0.04l0.01 3.81 2.6 0z"/>
  </g>
 </g>
</svg>
